<svg width="1470" height="800" viewBox="0 0 1470 800" fill="none" xmlns="http://www.w3.org/2000/svg">
<circle cx="1130" cy="616" r="50" stroke="#ECE6E7" stroke-width="20"/>
<circle cx="1264" cy="616" r="50" stroke="#ECE6E7" stroke-width="20"/>
<circle cx="1399" cy="616" r="50" stroke="#ECE6E7" stroke-width="20"/>
<circle cx="1068" cy="736" r="50" stroke="#ECE6E7" stroke-width="20"/>
<circle cx="1202" cy="736" r="50" stroke="#ECE6E7" stroke-width="20"/>
<circle cx="1337" cy="736" r="50" stroke="#ECE6E7" stroke-width="20"/>
<circle cx="1130" cy="138" r="50" stroke="#ECE6E7" stroke-width="20"/>
<circle cx="1204" cy="497" r="50" stroke="#ECE6E7" stroke-width="20"/>
<circle cx="1263" cy="377" r="50" stroke="#ECE6E7" stroke-width="20"/>
<circle cx="1263" cy="138" r="50" stroke="#ECE6E7" stroke-width="20"/>
<circle cx="1204" cy="258" r="50" stroke="#ECE6E7" stroke-width="20"/>
<circle cx="1340" cy="497" r="50" stroke="#ECE6E7" stroke-width="20"/>
<circle cx="1399" cy="377" r="50" stroke="#ECE6E7" stroke-width="20"/>
<circle cx="1399" cy="138" r="50" stroke="#ECE6E7" stroke-width="20"/>
<circle cx="1340" cy="258" r="50" stroke="#ECE6E7" stroke-width="20"/>
<circle cx="1204" cy="18" r="50" stroke="#ECE6E7" stroke-width="20"/>
<circle cx="1068" cy="18" r="50" stroke="#ECE6E7" stroke-width="20"/>
<circle cx="1340" cy="18" r="50" stroke="#ECE6E7" stroke-width="20"/>
<circle cx="59.0829" cy="641.423" r="50" transform="rotate(-30 59.0829 641.423)" stroke="#ECE6E7" stroke-width="20"/>
<circle cx="175.13" cy="574.424" r="50" transform="rotate(-30 175.13 574.424)" stroke="#ECE6E7" stroke-width="20"/>
<circle cx="292.044" cy="506.923" r="50" transform="rotate(-30 292.044 506.923)" stroke="#ECE6E7" stroke-width="20"/>
<circle cx="178.583" cy="848.404" r="50" transform="rotate(-30 178.583 848.404)" stroke="#ECE6E7" stroke-width="20"/>
<circle cx="294.63" cy="781.404" r="50" transform="rotate(-30 294.63 781.404)" stroke="#ECE6E7" stroke-width="20"/>
<circle cx="411.544" cy="713.904" r="50" transform="rotate(-30 411.544 713.904)" stroke="#ECE6E7" stroke-width="20"/>
<circle cx="180.937" cy="708.481" r="50" transform="rotate(-30 180.937 708.481)" stroke="#ECE6E7" stroke-width="20"/>
<circle cx="64.0232" cy="775.98" r="50" transform="rotate(-30 64.0232 775.98)" stroke="#ECE6E7" stroke-width="20"/>
<circle cx="297.85" cy="640.98" r="50" transform="rotate(-30 297.85 640.98)" stroke="#ECE6E7" stroke-width="20"/>
<circle cx="417.85" cy="848.827" r="50" transform="rotate(-30 417.85 848.827)" stroke="#ECE6E7" stroke-width="20"/>
<rect x="-2" width="1472" height="799" fill="url(#paint0_linear_712_18)"/>
<defs>
<linearGradient id="paint0_linear_712_18" x1="734" y1="-159.5" x2="734" y2="691.5" gradientUnits="userSpaceOnUse">
<stop stop-color="#202F38" stop-opacity="0.85"/>
<stop offset="1" stop-color="#202F38"/>
</linearGradient>
</defs>
</svg>
