<svg width="656" height="1238" viewBox="0 0 656 1238" fill="none" xmlns="http://www.w3.org/2000/svg">
<circle cx="266" cy="604" r="50" stroke="#ECE6E7" stroke-width="20"/>
<circle cx="400" cy="604" r="50" stroke="#ECE6E7" stroke-width="20"/>
<circle cx="535" cy="604" r="50" stroke="#ECE6E7" stroke-width="20"/>
<circle cx="204" cy="724" r="50" stroke="#ECE6E7" stroke-width="20"/>
<circle cx="338" cy="724" r="50" stroke="#ECE6E7" stroke-width="20"/>
<circle cx="473" cy="724" r="50" stroke="#ECE6E7" stroke-width="20"/>
<circle cx="266" cy="844" r="50" stroke="#ECE6E7" stroke-width="20"/>
<circle cx="400" cy="844" r="50" stroke="#ECE6E7" stroke-width="20"/>
<circle cx="535" cy="844" r="50" stroke="#ECE6E7" stroke-width="20"/>
<circle cx="266" cy="1083" r="50" stroke="#ECE6E7" stroke-width="20"/>
<circle cx="400" cy="1083" r="50" stroke="#ECE6E7" stroke-width="20"/>
<circle cx="535" cy="1083" r="50" stroke="#ECE6E7" stroke-width="20"/>
<circle cx="338" cy="963" r="50" stroke="#ECE6E7" stroke-width="20"/>
<circle cx="203" cy="963" r="50" stroke="#ECE6E7" stroke-width="20"/>
<circle cx="473" cy="963" r="50" stroke="#ECE6E7" stroke-width="20"/>
<circle cx="338" cy="1203" r="50" stroke="#ECE6E7" stroke-width="20"/>
<circle cx="203" cy="1203" r="50" stroke="#ECE6E7" stroke-width="20"/>
<circle cx="473" cy="1203" r="50" stroke="#ECE6E7" stroke-width="20"/>
<circle cx="266" cy="126" r="50" stroke="#ECE6E7" stroke-width="20"/>
<circle cx="340" cy="485" r="50" stroke="#ECE6E7" stroke-width="20"/>
<circle cx="399" cy="365" r="50" stroke="#ECE6E7" stroke-width="20"/>
<circle cx="399" cy="126" r="50" stroke="#ECE6E7" stroke-width="20"/>
<circle cx="340" cy="246" r="50" stroke="#ECE6E7" stroke-width="20"/>
<circle cx="476" cy="485" r="50" stroke="#ECE6E7" stroke-width="20"/>
<circle cx="535" cy="365" r="50" stroke="#ECE6E7" stroke-width="20"/>
<circle cx="535" cy="126" r="50" stroke="#ECE6E7" stroke-width="20"/>
<circle cx="476" cy="246" r="50" stroke="#ECE6E7" stroke-width="20"/>
<circle cx="340" cy="6" r="50" stroke="#ECE6E7" stroke-width="20"/>
<circle cx="204" cy="6" r="50" stroke="#ECE6E7" stroke-width="20"/>
<circle cx="476" cy="6" r="50" stroke="#ECE6E7" stroke-width="20"/>
<rect x="95" y="607" width="561" height="632" fill="url(#paint0_linear_618_86)"/>
<path fill-rule="evenodd" clip-rule="evenodd" d="M207 306C240.137 306 267 279.137 267 246C267 212.863 240.137 186 207 186C173.863 186 147 212.863 147 246C147 259.214 151.272 271.431 158.51 281.344L104.663 324.934C93.6786 312.697 77.7382 305 60 305C26.8629 305 0 331.863 0 365C0 398.137 26.8629 425 60 425C78.3041 425 94.6938 416.804 105.699 403.881L160.112 447.559C151.906 457.822 147 470.838 147 485C147 518.137 173.863 545 207 545C240.137 545 267 518.137 267 485C267 451.863 240.137 425 207 425C190.185 425 174.986 431.917 164.092 443.06L109.358 399.124C115.536 390.205 119.359 379.53 119.926 368H206.074C207.637 399.743 233.869 425 266 425C299.137 425 326 398.137 326 365C326 331.863 299.137 305 266 305C233.869 305 207.637 330.257 206.074 362H119.926C119.331 349.911 115.158 338.763 108.444 329.593L162.285 286.008C173.271 298.278 189.234 306 207 306ZM207 286C229.091 286 247 268.091 247 246C247 223.909 229.091 206 207 206C184.909 206 167 223.909 167 246C167 268.091 184.909 286 207 286ZM100 365C100 387.091 82.0914 405 60 405C37.9086 405 20 387.091 20 365C20 342.909 37.9086 325 60 325C82.0914 325 100 342.909 100 365ZM266 405C288.091 405 306 387.091 306 365C306 342.909 288.091 325 266 325C243.909 325 226 342.909 226 365C226 387.091 243.909 405 266 405ZM207 525C229.091 525 247 507.091 247 485C247 462.909 229.091 445 207 445C184.909 445 167 462.909 167 485C167 507.091 184.909 525 207 525Z" fill="#F26922"/>
<defs>
<linearGradient id="paint0_linear_618_86" x1="375.5" y1="4.64069" x2="375.5" y2="1131.99" gradientUnits="userSpaceOnUse">
<stop stop-color="#202F38" stop-opacity="0"/>
<stop offset="1" stop-color="#202F38"/>
</linearGradient>
</defs>
</svg>
