<svg width="1048" height="1109" viewBox="0 0 1048 1109" fill="none" xmlns="http://www.w3.org/2000/svg">
<path d="M3 584.51C3 523.865 13.3615 465.641 32.4108 411.51M150.272 221.51C227.825 141.68 330.733 86.614 446 69.3096M1043.08 629.51C1044.35 614.679 1045 599.67 1045 584.51C1045 332.031 865.407 121.498 627 73.6897M907.19 937.51C811.987 1040.8 675.55 1105.51 524 1105.51C377.402 1105.51 244.945 1044.96 150.272 947.51" stroke="#000300" stroke-opacity="0.1" stroke-width="3" stroke-dasharray="9 6"/>
<path d="M470.705 425.703C453.403 415.993 444.658 398.843 436.951 383.714C432.822 375.615 428.916 367.958 424.044 361.716C413.031 347.618 401.557 339.636 390.457 331.916C372.512 319.444 353.958 306.54 341.877 270.777C329.715 234.762 330.974 205.103 345.732 180.105C360.2 155.588 386.159 139.24 407.149 127.745C420.846 120.234 432.56 109.052 444.948 97.2107C455.727 86.915 466.865 76.2704 479.874 67.6606C513.24 45.595 539.043 42.6584 566.142 57.8655C576.595 63.7258 586.584 71.843 597.158 80.436C606.508 88.0254 616.169 95.8752 627.465 103.379C628.554 104.101 629.729 104.822 630.95 105.506C636.873 108.831 643.505 111.253 650.51 113.819C657.994 116.559 665.724 119.386 673.123 123.541C681.984 128.508 688.937 134.639 694.365 142.26C711.154 165.816 706.828 184.251 702.65 202.07C700.947 209.333 699.191 216.832 698.726 225.114C698.139 235.681 700.106 246.328 702.185 257.611C705.369 274.851 708.659 292.682 702.84 311.515C691.638 347.764 661.096 359.133 639.102 364.537C632.044 366.278 625.362 367.24 618.902 368.175C605.469 370.116 593.873 371.795 583.719 379.945C580.684 382.38 577.739 387.367 574.896 392.189C571.482 397.975 567.944 403.959 562.862 408.654C544.466 425.666 512.777 439.152 483.446 430.964C478.935 429.679 474.65 427.911 470.705 425.703Z" stroke="#FBDBBF" stroke-opacity="0.05" stroke-width="6" stroke-miterlimit="10" stroke-dasharray="25 25"/>
<path d="M351.351 267.58C369.583 321.556 401.729 316.887 431.929 355.555C449.141 377.584 454.013 412.322 486.149 421.309C510.321 428.063 538.202 417.828 556.086 401.292C564.44 393.566 568.925 378.994 577.467 372.133C595.098 357.982 615.003 360.148 636.726 354.817C661.766 348.66 684.396 337.331 693.289 308.552C701.969 280.482 687.146 253.032 688.738 224.545C690.406 194.724 706.649 176.725 686.223 148.042C669.973 125.233 642.451 125.329 621.928 111.694C569.461 76.8551 549.54 33.5579 485.386 75.9925C458.548 93.7459 439.304 121.517 411.945 136.499C363.307 163.16 327.165 195.97 351.351 267.58Z" fill="#FBDBBF" fill-opacity="0.05"/>
<path d="M826.4 410.841C835.206 409.668 842 402.127 842 393C842 383.059 833.941 375 824 375C814.059 375 806 383.059 806 393C806 402.127 812.794 409.668 821.6 410.841V441.206L800.129 419.735C805.526 412.678 804.998 402.542 798.544 396.088C791.515 389.059 780.118 389.059 773.088 396.088C766.059 403.118 766.059 414.515 773.088 421.544C779.542 427.998 789.678 428.526 796.735 423.129L818.206 444.6H787.841C786.668 435.794 779.127 429 770 429C760.059 429 752 437.059 752 447C752 456.941 760.059 465 770 465C779.127 465 786.668 458.206 787.841 449.4H818.206L796.735 470.871C789.678 465.473 779.542 466.002 773.088 472.456C766.059 479.485 766.059 490.882 773.088 497.912C780.118 504.941 791.515 504.941 798.544 497.912C804.998 491.458 805.527 481.322 800.129 474.265L821.6 452.794V483.159C812.794 484.332 806 491.873 806 501C806 510.941 814.059 519 824 519C833.941 519 842 510.941 842 501C842 491.873 835.206 484.332 826.4 483.159V452.794L847.871 474.265C842.474 481.322 843.002 491.458 849.456 497.912C856.485 504.941 867.882 504.941 874.912 497.912C881.941 490.882 881.941 479.485 874.912 472.456C868.458 466.002 858.322 465.474 851.265 470.871L829.794 449.4H860.159C861.332 458.206 868.873 465 878 465C887.941 465 896 456.941 896 447C896 437.059 887.941 429 878 429C868.873 429 861.332 435.794 860.159 444.6H829.794L851.265 423.129C858.322 428.526 868.458 427.998 874.912 421.544C881.941 414.515 881.941 403.118 874.912 396.088C867.882 389.059 856.485 389.059 849.456 396.088C843.002 402.542 842.473 412.678 847.871 419.735L826.4 441.206V410.841Z" fill="#FBDBBF" fill-opacity="0.05"/>
<path d="M4 340C69.7219 340 123 273.738 123 192C123 273.738 176.278 340 242 340C176.278 340 123 406.262 123 488C123 406.262 69.7219 340 4 340Z" fill="#FBDBBF" fill-opacity="0.05"/>
</svg>
