<svg width="2507" height="1109" viewBox="0 0 2507 1109" fill="none" xmlns="http://www.w3.org/2000/svg">
<path d="M732 584.51C732 523.865 742.362 465.641 761.411 411.51M879.272 221.51C956.825 141.68 1059.73 86.614 1175 69.3096M1772.08 629.51C1773.35 614.679 1774 599.67 1774 584.51C1774 332.031 1594.41 121.498 1356 73.6897M1636.19 937.51C1540.99 1040.8 1404.55 1105.51 1253 1105.51C1106.4 1105.51 973.945 1044.96 879.272 947.51" stroke="#000300" stroke-opacity="0.1" stroke-width="3" stroke-dasharray="9 6"/>
<path d="M247.607 658.472V917.51H184.508V810.869H86.3544V917.51H23.2554V658.472H86.3544V759.947H184.508V658.472H247.607ZM356.258 658.472V917.51H293.159V658.472H356.258ZM558.81 784.67C573.816 787.868 585.87 795.371 594.972 807.179C604.074 818.741 608.625 832.025 608.625 847.031C608.625 868.679 600.999 885.899 585.747 898.691C570.741 911.237 549.708 917.51 522.648 917.51H401.985V658.472H518.589C544.911 658.472 565.452 664.499 580.212 676.553C595.218 688.607 602.721 704.966 602.721 725.63C602.721 740.882 598.662 753.551 590.544 763.637C582.672 773.723 572.094 780.734 558.81 784.67ZM465.084 763.268H506.412C516.744 763.268 524.616 761.054 530.028 756.626C535.686 751.952 538.515 745.187 538.515 736.331C538.515 727.475 535.686 720.71 530.028 716.036C524.616 711.362 516.744 709.025 506.412 709.025H465.084V763.268ZM511.578 866.588C522.156 866.588 530.274 864.251 535.932 859.577C541.836 854.657 544.788 847.646 544.788 838.544C544.788 829.442 541.713 822.308 535.563 817.142C529.659 811.976 521.418 809.393 510.84 809.393H465.084V866.588H511.578ZM708.321 709.025V761.423H792.822V810.131H708.321V866.957H803.892V917.51H645.222V658.472H803.892V709.025H708.321ZM976.959 917.51L923.085 819.725H907.956V917.51H844.857V658.472H950.76C971.178 658.472 988.521 662.039 1002.79 669.173C1017.3 676.307 1028.13 686.147 1035.26 698.693C1042.4 710.993 1045.96 724.769 1045.96 740.021C1045.96 757.241 1041.04 772.616 1031.2 786.146C1021.61 799.676 1007.34 809.27 988.398 814.928L1048.18 917.51H976.959ZM907.956 775.076H947.07C958.632 775.076 967.242 772.247 972.9 766.589C978.804 760.931 981.756 752.936 981.756 742.604C981.756 732.764 978.804 725.015 972.9 719.357C967.242 713.699 958.632 710.87 947.07 710.87H907.956V775.076ZM1317.3 917.51H1254.2L1148.67 757.733V917.51H1085.57V658.472H1148.67L1254.2 818.987V658.472H1317.3V917.51ZM1524.3 871.754H1427.62L1412.12 917.51H1346.07L1439.79 658.472H1512.86L1606.58 917.51H1539.79L1524.3 871.754ZM1508.06 823.046L1475.96 728.213L1444.22 823.046H1508.06ZM1821.45 658.472V709.025H1752.82V917.51H1689.72V709.025H1621.09V658.472H1821.45ZM1916.22 658.472V917.51H1853.12V658.472H1916.22ZM2084.45 920.093C2060.1 920.093 2037.71 914.435 2017.3 903.119C1997.12 891.803 1981.01 876.059 1968.96 855.887C1957.15 835.469 1951.25 812.591 1951.25 787.253C1951.25 761.915 1957.15 739.16 1968.96 718.988C1981.01 698.816 1997.12 683.072 2017.3 671.756C2037.71 660.44 2060.1 654.782 2084.45 654.782C2108.81 654.782 2131.07 660.44 2151.24 671.756C2171.66 683.072 2187.65 698.816 2199.21 718.988C2211.02 739.16 2216.93 761.915 2216.93 787.253C2216.93 812.591 2211.02 835.469 2199.21 855.887C2187.41 876.059 2171.42 891.803 2151.24 903.119C2131.07 914.435 2108.81 920.093 2084.45 920.093ZM2084.45 862.529C2105.12 862.529 2121.6 855.641 2133.9 841.865C2146.45 828.089 2152.72 809.885 2152.72 787.253C2152.72 764.375 2146.45 746.171 2133.9 732.641C2121.6 718.865 2105.12 711.977 2084.45 711.977C2063.54 711.977 2046.82 718.742 2034.27 732.272C2021.97 745.802 2015.82 764.129 2015.82 787.253C2015.82 810.131 2021.97 828.458 2034.27 842.234C2046.82 855.764 2063.54 862.529 2084.45 862.529ZM2483.76 917.51H2420.66L2315.13 757.733V917.51H2252.03V658.472H2315.13L2420.66 818.987V658.472H2483.76V917.51Z" fill="#FBDBBF" fill-opacity="0.05"/>
<path d="M1217.71 425.703C1200.4 415.993 1191.66 398.843 1183.95 383.714C1179.82 375.615 1175.92 367.958 1171.04 361.716C1160.03 347.618 1148.56 339.636 1137.46 331.916C1119.51 319.444 1100.96 306.54 1088.88 270.777C1076.72 234.762 1077.97 205.103 1092.73 180.105C1107.2 155.588 1133.16 139.24 1154.15 127.745C1167.85 120.234 1179.56 109.052 1191.95 97.2107C1202.73 86.915 1213.86 76.2704 1226.87 67.6606C1260.24 45.595 1286.04 42.6584 1313.14 57.8655C1323.59 63.7258 1333.58 71.843 1344.16 80.436C1353.51 88.0254 1363.17 95.8752 1374.46 103.379C1375.55 104.101 1376.73 104.822 1377.95 105.506C1383.87 108.831 1390.51 111.253 1397.51 113.819C1404.99 116.559 1412.72 119.386 1420.12 123.541C1428.98 128.508 1435.94 134.639 1441.37 142.26C1458.15 165.816 1453.83 184.251 1449.65 202.07C1447.95 209.333 1446.19 216.832 1445.73 225.114C1445.14 235.681 1447.11 246.328 1449.18 257.611C1452.37 274.851 1455.66 292.682 1449.84 311.515C1438.64 347.764 1408.1 359.133 1386.1 364.537C1379.04 366.278 1372.36 367.24 1365.9 368.175C1352.47 370.116 1340.87 371.795 1330.72 379.945C1327.68 382.38 1324.74 387.367 1321.9 392.189C1318.48 397.975 1314.94 403.959 1309.86 408.654C1291.47 425.666 1259.78 439.152 1230.45 430.964C1225.93 429.679 1221.65 427.911 1217.71 425.703Z" stroke="#FBDBBF" stroke-opacity="0.05" stroke-width="6" stroke-miterlimit="10" stroke-dasharray="25 25"/>
<path d="M1098.35 267.58C1116.58 321.556 1148.73 316.887 1178.93 355.555C1196.14 377.584 1201.01 412.322 1233.15 421.309C1257.32 428.063 1285.2 417.828 1303.09 401.292C1311.44 393.566 1315.93 378.994 1324.47 372.133C1342.1 357.982 1362 360.148 1383.73 354.817C1408.77 348.66 1431.4 337.331 1440.29 308.552C1448.97 280.482 1434.15 253.032 1435.74 224.545C1437.41 194.724 1453.65 176.725 1433.22 148.042C1416.97 125.233 1389.45 125.329 1368.93 111.694C1316.46 76.8551 1296.54 33.5579 1232.39 75.9925C1205.55 93.7459 1186.3 121.517 1158.95 136.499C1110.31 163.16 1074.16 195.97 1098.35 267.58Z" fill="#FBDBBF" fill-opacity="0.05"/>
<path d="M1555.4 410.841C1564.21 409.668 1571 402.127 1571 393C1571 383.059 1562.94 375 1553 375C1543.06 375 1535 383.059 1535 393C1535 402.127 1541.79 409.668 1550.6 410.841V441.206L1529.13 419.735C1534.53 412.678 1534 402.542 1527.54 396.088C1520.51 389.059 1509.12 389.059 1502.09 396.088C1495.06 403.118 1495.06 414.515 1502.09 421.544C1508.54 427.998 1518.68 428.526 1525.73 423.129L1547.21 444.6H1516.84C1515.67 435.794 1508.13 429 1499 429C1489.06 429 1481 437.059 1481 447C1481 456.941 1489.06 465 1499 465C1508.13 465 1515.67 458.206 1516.84 449.4H1547.21L1525.73 470.871C1518.68 465.473 1508.54 466.002 1502.09 472.456C1495.06 479.485 1495.06 490.882 1502.09 497.912C1509.12 504.941 1520.51 504.941 1527.54 497.912C1534 491.458 1534.53 481.322 1529.13 474.265L1550.6 452.794V483.159C1541.79 484.332 1535 491.873 1535 501C1535 510.941 1543.06 519 1553 519C1562.94 519 1571 510.941 1571 501C1571 491.873 1564.21 484.332 1555.4 483.159V452.794L1576.87 474.265C1571.47 481.322 1572 491.458 1578.46 497.912C1585.49 504.941 1596.88 504.941 1603.91 497.912C1610.94 490.882 1610.94 479.485 1603.91 472.456C1597.46 466.002 1587.32 465.474 1580.27 470.871L1558.79 449.4H1589.16C1590.33 458.206 1597.87 465 1607 465C1616.94 465 1625 456.941 1625 447C1625 437.059 1616.94 429 1607 429C1597.87 429 1590.33 435.794 1589.16 444.6H1558.79L1580.26 423.129C1587.32 428.526 1597.46 427.998 1603.91 421.544C1610.94 414.515 1610.94 403.118 1603.91 396.088C1596.88 389.059 1585.49 389.059 1578.46 396.088C1572 402.542 1571.47 412.678 1576.87 419.735L1555.4 441.206V410.841Z" fill="#FBDBBF" fill-opacity="0.05"/>
<path d="M733 340C798.722 340 852 273.738 852 192C852 273.738 905.278 340 971 340C905.278 340 852 406.262 852 488C852 406.262 798.722 340 733 340Z" fill="#FBDBBF" fill-opacity="0.05"/>
</svg>
