<svg width="120" height="558" viewBox="0 0 120 558" fill="none" xmlns="http://www.w3.org/2000/svg">
<path d="M61 110.5L61 192.5" stroke="#415056" stroke-width="6"/>
<path d="M61 291L61 373" stroke="#415056" stroke-width="6"/>
<path d="M61 476L61 558" stroke="#415056" stroke-width="6"/>
<path d="M65.4167 233.667H78.75C79.8551 233.667 80.9149 234.106 81.6963 234.887C82.4777 235.668 82.9167 236.728 82.9167 237.833V242.217C82.9172 242.761 82.8111 243.3 82.6042 243.804L76.1563 259.46C75.999 259.842 75.7318 260.168 75.3887 260.398C75.0456 260.628 74.642 260.75 74.2292 260.75H39.1667C38.6141 260.75 38.0842 260.531 37.6935 260.14C37.3028 259.749 37.0833 259.219 37.0833 258.667V237.833C37.0833 237.281 37.3028 236.751 37.6935 236.36C38.0842 235.969 38.6141 235.75 39.1667 235.75H46.4208C46.7544 235.75 47.0831 235.67 47.3792 235.517C47.6754 235.363 47.9305 235.141 48.1229 234.869L59.4833 218.771C59.627 218.567 59.8387 218.422 60.0803 218.361C60.3219 218.3 60.5772 218.328 60.8 218.44L64.5792 220.329C65.6427 220.861 66.4924 221.74 66.9869 222.821C67.4815 223.903 67.5913 225.121 67.2979 226.273L65.4167 233.667ZM49.5833 239.058V256.583H72.8333L78.75 242.217V237.833H65.4167C64.7821 237.833 64.1559 237.688 63.5859 237.409C63.0159 237.13 62.5171 236.725 62.1277 236.224C61.7382 235.723 61.4683 235.14 61.3386 234.518C61.2089 233.897 61.2227 233.255 61.3792 232.64L63.2604 225.248C63.3193 225.017 63.2975 224.774 63.1985 224.557C63.0996 224.341 62.9296 224.165 62.7167 224.058L61.3396 223.371L51.5271 237.271C51.0063 238.008 50.3396 238.612 49.5833 239.058ZM45.4167 239.917H41.25V256.583H45.4167V239.917Z" fill="white"/>
<circle cx="60" cy="242" r="50" stroke="#415056" stroke-width="20"/>
<path d="M60 401.083L77.1187 404.888C78.0708 405.1 78.75 405.944 78.75 406.921V427.727C78.75 431.906 76.6604 435.81 73.1833 438.127L60 446.917L46.8167 438.127C43.3375 435.808 41.25 431.906 41.25 427.729V406.921C41.25 405.944 41.9292 405.1 42.8812 404.888L60 401.083ZM60 405.352L45.4167 408.592V427.727C45.4167 430.513 46.8083 433.115 49.1271 434.66L60 441.91L70.8729 434.66C73.1917 433.115 74.5833 430.515 74.5833 427.729V408.592L60 405.354V405.352ZM69.275 416.129L72.2229 419.075L58.9646 432.333L50.125 423.494L53.0708 420.548L58.9625 426.44L69.275 416.127V416.129Z" fill="white"/>
<circle cx="60" cy="424" r="50" stroke="#415056" stroke-width="20"/>
<path d="M48.2958 47.4333C51.6161 44.7731 55.7454 43.3266 60 43.3333C64.4271 43.3333 68.4958 44.8667 71.7042 47.4333L74.7313 44.4063L77.6771 47.3521L74.65 50.3792C76.8536 53.1378 78.2334 56.4626 78.6309 59.9708C79.0283 63.4791 78.4271 67.0282 76.8964 70.2099C75.3658 73.3915 72.9679 76.0764 69.9788 77.9554C66.9896 79.8344 63.5307 80.8313 60 80.8313C56.4693 80.8313 53.0104 79.8344 50.0212 77.9554C47.0321 76.0764 44.6342 73.3915 43.1036 70.2099C41.573 67.0282 40.9718 63.4791 41.3692 59.9708C41.7666 56.4626 43.1465 53.1378 45.35 50.3792L42.3229 47.3542L45.2688 44.4083L48.2958 47.4354V47.4333ZM60 76.6667C61.9151 76.6667 63.8115 76.2895 65.5808 75.5566C67.3501 74.8237 68.9578 73.7495 70.312 72.3953C71.6662 71.0411 72.7404 69.4335 73.4733 67.6641C74.2061 65.8948 74.5833 63.9984 74.5833 62.0833C74.5833 60.1682 74.2061 58.2719 73.4733 56.5025C72.7404 54.7332 71.6662 53.1256 70.312 51.7714C68.9578 50.4172 67.3501 49.343 65.5808 48.6101C63.8115 47.8772 61.9151 47.5 60 47.5C56.1323 47.5 52.4229 49.0365 49.688 51.7714C46.9531 54.5063 45.4167 58.2156 45.4167 62.0833C45.4167 65.9511 46.9531 69.6604 49.688 72.3953C52.4229 75.1302 56.1323 76.6667 60 76.6667ZM62.0833 60H68.3333L57.9167 73.5417V64.1667H51.6667L62.0833 50.6146V60ZM51.6667 37.0833H68.3333V41.25H51.6667V37.0833Z" fill="white"/>
<circle cx="60" cy="60" r="50" stroke="#415056" stroke-width="20"/>
</svg>
