<svg width="50" height="150" viewBox="0 0 50 150" fill="none" xmlns="http://www.w3.org/2000/svg">
<path d="M41.6667 134.333H49V149H41.6667C35.3015 149 29.197 146.471 24.6961 141.971C20.1952 137.47 17.6667 131.365 17.6667 125V94.1667C17.6667 90.5862 16.2444 87.1525 13.7126 84.6207C11.1809 82.089 7.74709 80.6667 4.16667 80.6667H1V69.3333H4.16667C5.93951 69.3333 7.695 68.9841 9.33289 68.3057C10.9708 67.6273 12.459 66.6329 13.7126 65.3793C14.9662 64.1257 15.9606 62.6375 16.639 60.9996C17.3175 59.3617 17.6667 57.6062 17.6667 55.8333V25C17.6667 18.6348 20.1952 12.5303 24.6961 8.02944C29.197 3.52856 35.3015 1 41.6667 1H49V15.6667H41.6667C39.1913 15.6667 36.8173 16.65 35.067 18.4003C33.3167 20.1507 32.3333 22.5246 32.3333 25V59.1667V59.1669C32.3341 62.4648 31.2942 65.6789 29.3617 68.3513C27.4291 71.0236 24.7025 73.018 21.5703 74.0502L18.6884 75L21.5703 75.9498C24.7025 76.982 27.4291 78.9764 29.3617 81.6487C31.2942 84.3211 32.3341 87.5352 32.3333 90.8331V90.8333V125C32.3333 127.475 33.3167 129.849 35.067 131.6C36.8173 133.35 39.1913 134.333 41.6667 134.333Z" fill="#F26922" stroke="#FFF7F7" stroke-width="2"/>
</svg>
