<svg width="35" height="35" viewBox="0 0 35 35" fill="none" xmlns="http://www.w3.org/2000/svg">
<g clip-path="url(#clip0_406_10)">
<path d="M34.4531 17.5002C34.4531 26.8632 26.863 34.4534 17.5 34.4534C8.13702 34.4534 0.546875 26.8632 0.546875 17.5002C0.546875 8.13727 8.13702 0.547119 17.5 0.547119C26.863 0.547119 34.4531 8.13727 34.4531 17.5002ZM15.539 26.4768L28.1172 13.8987C28.5443 13.4716 28.5443 12.779 28.1172 12.3519L26.5704 10.8051C26.1433 10.3779 25.4507 10.3779 25.0236 10.8051L14.7656 21.063L9.97643 16.2738C9.54933 15.8467 8.85678 15.8467 8.4296 16.2738L6.88283 17.8206C6.45572 18.2477 6.45572 18.9402 6.88283 19.3673L13.9922 26.4767C14.4194 26.9039 15.1119 26.9039 15.539 26.4768Z" fill="#202F38"/>
</g>
<defs>
<clipPath id="clip0_406_10">
<rect width="35" height="35" fill="white" transform="translate(0 0.000244141)"/>
</clipPath>
</defs>
</svg>
