<svg width="308" height="255" viewBox="0 0 308 255" fill="none" xmlns="http://www.w3.org/2000/svg">
<path d="M32.5725 244L34.7505 231.652H39.1965C40.9005 231.652 42.2145 232.036 43.1385 232.804C44.0745 233.56 44.5425 234.754 44.5425 236.386C44.5425 236.71 44.5305 237.028 44.5065 237.34C44.4825 237.652 44.4465 237.958 44.3985 238.258C44.1825 239.482 43.7625 240.52 43.1385 241.372C42.5145 242.224 41.7225 242.878 40.7625 243.334C39.8025 243.778 38.6925 244 37.4325 244H32.5725ZM34.5525 242.524H37.3425C38.0985 242.524 38.7765 242.422 39.3765 242.218C39.9885 242.014 40.5165 241.726 40.9605 241.354C41.4045 240.97 41.7645 240.496 42.0405 239.932C42.3165 239.368 42.5145 238.732 42.6345 238.024C42.6705 237.82 42.6945 237.628 42.7065 237.448C42.7305 237.268 42.7425 237.1 42.7425 236.944C42.7545 236.776 42.7605 236.62 42.7605 236.476C42.7605 235.672 42.6165 235.024 42.3285 234.532C42.0405 234.04 41.6205 233.686 41.0685 233.47C40.5165 233.242 39.8505 233.128 39.0705 233.128H36.2085L34.5525 242.524ZM50.0753 244.216C49.2233 244.216 48.5093 244.09 47.9333 243.838C47.3693 243.574 46.9433 243.178 46.6553 242.65C46.3793 242.11 46.2413 241.45 46.2413 240.67C46.2413 240.346 46.2593 240.022 46.2953 239.698C46.3313 239.362 46.3793 239.044 46.4393 238.744C46.6193 237.892 46.9013 237.136 47.2853 236.476C47.6693 235.804 48.1853 235.276 48.8333 234.892C49.4933 234.508 50.3093 234.316 51.2813 234.316C52.0973 234.316 52.7693 234.454 53.2973 234.73C53.8373 234.994 54.2333 235.378 54.4853 235.882C54.7493 236.386 54.8813 237.004 54.8813 237.736C54.8813 238.012 54.8573 238.318 54.8093 238.654C54.7733 238.99 54.7133 239.326 54.6293 239.662H47.9513C47.9273 239.842 47.9033 240.016 47.8793 240.184C47.8673 240.34 47.8613 240.49 47.8613 240.634C47.8613 241.162 47.9393 241.594 48.0953 241.93C48.2633 242.266 48.5153 242.512 48.8513 242.668C49.1873 242.824 49.6013 242.902 50.0933 242.902C50.4053 242.902 50.7053 242.866 50.9933 242.794C51.2813 242.71 51.5453 242.584 51.7853 242.416C52.0253 242.248 52.2353 242.032 52.4153 241.768C52.5953 241.492 52.7333 241.162 52.8293 240.778H54.3773C54.2573 241.354 54.0653 241.858 53.8013 242.29C53.5373 242.722 53.2193 243.082 52.8473 243.37C52.4753 243.646 52.0493 243.856 51.5693 244C51.1013 244.144 50.6033 244.216 50.0753 244.216ZM48.1673 238.474H53.2073C53.2433 238.306 53.2673 238.15 53.2793 238.006C53.2913 237.862 53.2973 237.724 53.2973 237.592C53.2973 237.148 53.2193 236.782 53.0633 236.494C52.9193 236.206 52.6973 235.99 52.3973 235.846C52.0973 235.69 51.7193 235.612 51.2633 235.612C50.7353 235.612 50.2673 235.726 49.8593 235.954C49.4513 236.17 49.1033 236.488 48.8153 236.908C48.5393 237.328 48.3233 237.85 48.1673 238.474ZM60.3506 244.216C59.5346 244.216 58.8506 244.09 58.2986 243.838C57.7466 243.586 57.3326 243.196 57.0566 242.668C56.7806 242.14 56.6426 241.474 56.6426 240.67C56.6426 240.358 56.6546 240.046 56.6786 239.734C56.7146 239.41 56.7686 239.092 56.8406 238.78C56.9846 238.096 57.1826 237.484 57.4346 236.944C57.6866 236.392 58.0046 235.924 58.3886 235.54C58.7726 235.144 59.2226 234.844 59.7386 234.64C60.2666 234.424 60.8666 234.316 61.5386 234.316C62.3306 234.316 62.9786 234.43 63.4826 234.658C63.9866 234.874 64.3646 235.186 64.6166 235.594C64.8686 236.002 64.9946 236.5 64.9946 237.088C64.9946 237.232 64.9886 237.388 64.9766 237.556C64.9646 237.712 64.9406 237.874 64.9046 238.042H63.3206C63.3446 237.91 63.3626 237.784 63.3746 237.664C63.3866 237.532 63.3926 237.406 63.3926 237.286C63.3926 236.926 63.3266 236.626 63.1946 236.386C63.0746 236.134 62.8766 235.948 62.6006 235.828C62.3366 235.696 61.9886 235.63 61.5566 235.63C61.0406 235.63 60.5726 235.756 60.1526 236.008C59.7326 236.248 59.3786 236.62 59.0906 237.124C58.8026 237.616 58.5866 238.252 58.4426 239.032C58.3946 239.296 58.3586 239.524 58.3346 239.716C58.3106 239.908 58.2926 240.082 58.2806 240.238C58.2686 240.382 58.2626 240.514 58.2626 240.634C58.2626 241.162 58.3406 241.594 58.4966 241.93C58.6646 242.254 58.8986 242.494 59.1986 242.65C59.5106 242.806 59.8826 242.884 60.3146 242.884C60.8546 242.884 61.2986 242.788 61.6466 242.596C62.0066 242.404 62.2946 242.128 62.5106 241.768C62.7266 241.396 62.8766 240.97 62.9606 240.49H64.4726C64.3646 241.222 64.1426 241.87 63.8066 242.434C63.4826 242.986 63.0326 243.424 62.4566 243.748C61.8926 244.06 61.1906 244.216 60.3506 244.216ZM70.2966 244.216C69.4686 244.216 68.7726 244.09 68.2086 243.838C67.6446 243.574 67.2126 243.184 66.9126 242.668C66.6246 242.14 66.4806 241.474 66.4806 240.67C66.4806 240.43 66.4926 240.184 66.5166 239.932C66.5526 239.668 66.5946 239.398 66.6426 239.122C66.8346 238.006 67.1526 237.1 67.5966 236.404C68.0406 235.696 68.6046 235.174 69.2886 234.838C69.9846 234.49 70.7946 234.316 71.7186 234.316C72.5586 234.316 73.2606 234.448 73.8246 234.712C74.3886 234.964 74.8146 235.354 75.1026 235.882C75.3906 236.41 75.5346 237.082 75.5346 237.898C75.5346 238.126 75.5226 238.366 75.4986 238.618C75.4746 238.87 75.4386 239.134 75.3906 239.41C75.1986 240.514 74.8806 241.42 74.4366 242.128C73.9926 242.836 73.4286 243.364 72.7446 243.712C72.0606 244.048 71.2446 244.216 70.2966 244.216ZM70.3686 242.884C70.9686 242.884 71.4906 242.764 71.9346 242.524C72.3906 242.284 72.7626 241.912 73.0506 241.408C73.3506 240.892 73.5666 240.244 73.6986 239.464C73.7466 239.188 73.7826 238.96 73.8066 238.78C73.8306 238.588 73.8486 238.426 73.8606 238.294C73.8726 238.15 73.8786 238.018 73.8786 237.898C73.8786 237.382 73.7946 236.962 73.6266 236.638C73.4586 236.302 73.2066 236.056 72.8706 235.9C72.5466 235.732 72.1326 235.648 71.6286 235.648C71.0286 235.648 70.5066 235.774 70.0626 236.026C69.6186 236.266 69.2526 236.638 68.9646 237.142C68.6766 237.634 68.4606 238.276 68.3166 239.068C68.2686 239.344 68.2266 239.578 68.1906 239.77C68.1666 239.962 68.1486 240.124 68.1366 240.256C68.1246 240.388 68.1186 240.514 68.1186 240.634C68.1186 241.162 68.2026 241.588 68.3706 241.912C68.5386 242.236 68.7906 242.482 69.1266 242.65C69.4626 242.806 69.8766 242.884 70.3686 242.884ZM80.0942 244.216C79.5902 244.216 79.1342 244.138 78.7262 243.982C78.3182 243.826 78.0002 243.58 77.7722 243.244C77.5442 242.908 77.4302 242.458 77.4302 241.894C77.4302 241.714 77.4422 241.534 77.4662 241.354C77.4902 241.162 77.5202 240.964 77.5562 240.76L78.6542 234.532H80.2382L79.1582 240.688C79.1462 240.832 79.1282 240.97 79.1042 241.102C79.0802 241.234 79.0682 241.36 79.0682 241.48C79.0682 241.828 79.1342 242.104 79.2662 242.308C79.4102 242.5 79.6022 242.632 79.8422 242.704C80.0942 242.776 80.3762 242.812 80.6882 242.812C81.0482 242.812 81.3962 242.752 81.7322 242.632C82.0682 242.512 82.3802 242.332 82.6682 242.092C82.9562 241.84 83.2082 241.528 83.4242 241.156C83.6402 240.784 83.7902 240.352 83.8742 239.86L84.8102 234.532H86.4122L84.7382 244H83.4782L83.5682 242.578H83.4602C83.1602 242.95 82.8242 243.262 82.4522 243.514C82.0922 243.754 81.7142 243.928 81.3182 244.036C80.9222 244.156 80.5142 244.216 80.0942 244.216ZM87.1956 247.114L89.4096 234.532H90.6516L90.5976 235.882H90.7236C91.1196 235.354 91.5756 234.964 92.0916 234.712C92.6196 234.448 93.1716 234.316 93.7476 234.316C94.4196 234.316 94.9896 234.442 95.4576 234.694C95.9256 234.946 96.2856 235.324 96.5376 235.828C96.7896 236.332 96.9156 236.974 96.9156 237.754C96.9156 238.006 96.9036 238.276 96.8796 238.564C96.8676 238.852 96.8316 239.158 96.7716 239.482C96.5796 240.562 96.2736 241.45 95.8536 242.146C95.4336 242.842 94.9296 243.364 94.3416 243.712C93.7536 244.048 93.1056 244.216 92.3976 244.216C91.9776 244.216 91.5876 244.168 91.2276 244.072C90.8676 243.976 90.5556 243.826 90.2916 243.622C90.0276 243.406 89.8116 243.136 89.6436 242.812H89.5356L88.7796 247.114H87.1956ZM92.0016 242.83C92.5656 242.83 93.0516 242.716 93.4596 242.488C93.8676 242.26 94.2036 241.906 94.4676 241.426C94.7436 240.934 94.9476 240.304 95.0796 239.536C95.1396 239.248 95.1816 239.002 95.2056 238.798C95.2296 238.582 95.2476 238.396 95.2596 238.24C95.2716 238.084 95.2776 237.946 95.2776 237.826C95.2776 237.322 95.1996 236.914 95.0436 236.602C94.8876 236.29 94.6656 236.062 94.3776 235.918C94.0896 235.774 93.7356 235.702 93.3156 235.702C92.7516 235.702 92.2536 235.834 91.8216 236.098C91.4016 236.35 91.0536 236.728 90.7776 237.232C90.5016 237.724 90.3036 238.336 90.1836 239.068C90.1356 239.32 90.0996 239.536 90.0756 239.716C90.0516 239.896 90.0336 240.052 90.0216 240.184C90.0096 240.316 90.0036 240.448 90.0036 240.58C90.0036 241.156 90.0936 241.612 90.2736 241.948C90.4536 242.272 90.6936 242.5 90.9936 242.632C91.2936 242.764 91.6296 242.83 92.0016 242.83ZM98.5065 244L100.793 230.986H102.377L100.091 244H98.5065ZM107.14 244.216C106.288 244.216 105.574 244.09 104.998 243.838C104.434 243.574 104.008 243.178 103.72 242.65C103.444 242.11 103.306 241.45 103.306 240.67C103.306 240.346 103.324 240.022 103.36 239.698C103.396 239.362 103.444 239.044 103.504 238.744C103.684 237.892 103.966 237.136 104.35 236.476C104.734 235.804 105.25 235.276 105.898 234.892C106.558 234.508 107.374 234.316 108.346 234.316C109.162 234.316 109.834 234.454 110.362 234.73C110.902 234.994 111.298 235.378 111.55 235.882C111.814 236.386 111.946 237.004 111.946 237.736C111.946 238.012 111.922 238.318 111.874 238.654C111.838 238.99 111.778 239.326 111.694 239.662H105.016C104.992 239.842 104.968 240.016 104.944 240.184C104.932 240.34 104.926 240.49 104.926 240.634C104.926 241.162 105.004 241.594 105.16 241.93C105.328 242.266 105.58 242.512 105.916 242.668C106.252 242.824 106.666 242.902 107.158 242.902C107.47 242.902 107.77 242.866 108.058 242.794C108.346 242.71 108.61 242.584 108.85 242.416C109.09 242.248 109.3 242.032 109.48 241.768C109.66 241.492 109.798 241.162 109.894 240.778H111.442C111.322 241.354 111.13 241.858 110.866 242.29C110.602 242.722 110.284 243.082 109.912 243.37C109.54 243.646 109.114 243.856 108.634 244C108.166 244.144 107.668 244.216 107.14 244.216ZM105.232 238.474H110.272C110.308 238.306 110.332 238.15 110.344 238.006C110.356 237.862 110.362 237.724 110.362 237.592C110.362 237.148 110.284 236.782 110.128 236.494C109.984 236.206 109.762 235.99 109.462 235.846C109.162 235.69 108.784 235.612 108.328 235.612C107.8 235.612 107.332 235.726 106.924 235.954C106.516 236.17 106.168 236.488 105.88 236.908C105.604 237.328 105.388 237.85 105.232 238.474ZM116.857 244.216C116.197 244.216 115.627 244.09 115.147 243.838C114.679 243.574 114.319 243.184 114.067 242.668C113.827 242.152 113.707 241.522 113.707 240.778C113.707 240.526 113.719 240.256 113.743 239.968C113.767 239.68 113.803 239.374 113.851 239.05C113.995 238.234 114.199 237.532 114.463 236.944C114.739 236.344 115.063 235.852 115.435 235.468C115.819 235.084 116.245 234.796 116.713 234.604C117.181 234.412 117.685 234.316 118.225 234.316C118.645 234.316 119.029 234.364 119.377 234.46C119.737 234.556 120.055 234.706 120.331 234.91C120.607 235.114 120.817 235.384 120.961 235.72H121.087L121.915 230.986H123.499L121.213 244H119.953L120.007 242.65H119.881C119.485 243.178 119.029 243.574 118.513 243.838C117.997 244.09 117.445 244.216 116.857 244.216ZM117.307 242.83C117.871 242.83 118.363 242.704 118.783 242.452C119.203 242.188 119.551 241.804 119.827 241.3C120.103 240.796 120.307 240.184 120.439 239.464C120.475 239.212 120.505 238.996 120.529 238.816C120.553 238.636 120.571 238.48 120.583 238.348C120.595 238.204 120.601 238.072 120.601 237.952C120.601 237.376 120.511 236.926 120.331 236.602C120.151 236.266 119.911 236.032 119.611 235.9C119.311 235.768 118.981 235.702 118.621 235.702C118.057 235.702 117.565 235.816 117.145 236.044C116.737 236.272 116.401 236.632 116.137 237.124C115.873 237.604 115.669 238.228 115.525 238.996C115.477 239.284 115.435 239.536 115.399 239.752C115.375 239.956 115.357 240.136 115.345 240.292C115.345 240.436 115.345 240.574 115.345 240.706C115.345 241.462 115.513 242.008 115.849 242.344C116.185 242.668 116.671 242.83 117.307 242.83ZM131.101 244L129.715 231.652H131.389L132.271 239.986C132.283 240.118 132.301 240.31 132.325 240.562C132.349 240.802 132.373 241.054 132.397 241.318C132.421 241.582 132.439 241.822 132.451 242.038H132.577C132.661 241.822 132.745 241.582 132.829 241.318C132.925 241.042 133.015 240.784 133.099 240.544C133.195 240.304 133.267 240.118 133.315 239.986L136.663 231.652H138.877L139.597 239.986C139.609 240.118 139.621 240.31 139.633 240.562C139.645 240.802 139.657 241.054 139.669 241.318C139.693 241.582 139.711 241.822 139.723 242.038H139.849C139.921 241.822 140.005 241.588 140.101 241.336C140.209 241.072 140.305 240.82 140.389 240.58C140.485 240.328 140.569 240.13 140.641 239.986L144.187 231.652H145.879L140.461 244H138.355L137.617 235.612C137.605 235.432 137.593 235.222 137.581 234.982C137.569 234.73 137.557 234.472 137.545 234.208C137.533 233.944 137.527 233.716 137.527 233.524H137.401C137.341 233.728 137.263 233.962 137.167 234.226C137.071 234.49 136.975 234.748 136.879 235C136.795 235.252 136.723 235.456 136.663 235.612L133.225 244H131.101ZM148.956 244.216C148.104 244.216 147.39 244.09 146.814 243.838C146.25 243.574 145.824 243.178 145.536 242.65C145.26 242.11 145.122 241.45 145.122 240.67C145.122 240.346 145.14 240.022 145.176 239.698C145.212 239.362 145.26 239.044 145.32 238.744C145.5 237.892 145.782 237.136 146.166 236.476C146.55 235.804 147.066 235.276 147.714 234.892C148.374 234.508 149.19 234.316 150.162 234.316C150.978 234.316 151.65 234.454 152.178 234.73C152.718 234.994 153.114 235.378 153.366 235.882C153.63 236.386 153.762 237.004 153.762 237.736C153.762 238.012 153.738 238.318 153.69 238.654C153.654 238.99 153.594 239.326 153.51 239.662H146.832C146.808 239.842 146.784 240.016 146.76 240.184C146.748 240.34 146.742 240.49 146.742 240.634C146.742 241.162 146.82 241.594 146.976 241.93C147.144 242.266 147.396 242.512 147.732 242.668C148.068 242.824 148.482 242.902 148.974 242.902C149.286 242.902 149.586 242.866 149.874 242.794C150.162 242.71 150.426 242.584 150.666 242.416C150.906 242.248 151.116 242.032 151.296 241.768C151.476 241.492 151.614 241.162 151.71 240.778H153.258C153.138 241.354 152.946 241.858 152.682 242.29C152.418 242.722 152.1 243.082 151.728 243.37C151.356 243.646 150.93 243.856 150.45 244C149.982 244.144 149.484 244.216 148.956 244.216ZM147.048 238.474H152.088C152.124 238.306 152.148 238.15 152.16 238.006C152.172 237.862 152.178 237.724 152.178 237.592C152.178 237.148 152.1 236.782 151.944 236.494C151.8 236.206 151.578 235.99 151.278 235.846C150.978 235.69 150.6 235.612 150.144 235.612C149.616 235.612 149.148 235.726 148.74 235.954C148.332 236.17 147.984 236.488 147.696 236.908C147.42 237.328 147.204 237.85 147.048 238.474ZM159.915 244.216C159.243 244.216 158.661 244.09 158.169 243.838C157.689 243.586 157.329 243.19 157.089 242.65H156.963L156.567 244H155.307L157.593 230.986H159.177L158.349 235.72H158.457C158.721 235.384 159.009 235.114 159.321 234.91C159.633 234.706 159.969 234.556 160.329 234.46C160.689 234.364 161.049 234.316 161.409 234.316C162.045 234.316 162.591 234.442 163.047 234.694C163.515 234.946 163.875 235.324 164.127 235.828C164.379 236.332 164.505 236.974 164.505 237.754C164.505 237.982 164.493 238.228 164.469 238.492C164.445 238.756 164.403 239.038 164.343 239.338C164.151 240.478 163.851 241.408 163.443 242.128C163.035 242.836 162.531 243.364 161.931 243.712C161.343 244.048 160.671 244.216 159.915 244.216ZM159.609 242.83C160.137 242.83 160.599 242.722 160.995 242.506C161.403 242.29 161.745 241.936 162.021 241.444C162.309 240.94 162.525 240.274 162.669 239.446C162.717 239.158 162.753 238.918 162.777 238.726C162.813 238.522 162.837 238.348 162.849 238.204C162.861 238.048 162.867 237.91 162.867 237.79C162.867 237.31 162.789 236.92 162.633 236.62C162.489 236.308 162.261 236.08 161.949 235.936C161.649 235.78 161.271 235.702 160.815 235.702C160.503 235.702 160.185 235.756 159.861 235.864C159.549 235.972 159.255 236.158 158.979 236.422C158.703 236.686 158.451 237.04 158.223 237.484C158.007 237.916 157.845 238.462 157.737 239.122C157.701 239.362 157.671 239.578 157.647 239.77C157.623 239.95 157.605 240.112 157.593 240.256C157.581 240.388 157.575 240.514 157.575 240.634C157.575 241.114 157.647 241.522 157.791 241.858C157.935 242.182 158.157 242.428 158.457 242.596C158.757 242.752 159.141 242.83 159.609 242.83ZM169.39 244L176.338 231.652H178.498L181.126 244H179.38L178.75 240.904H172.918L171.208 244H169.39ZM173.746 239.428H178.426L177.652 235.594C177.628 235.414 177.592 235.222 177.544 235.018C177.508 234.802 177.466 234.586 177.418 234.37C177.37 234.142 177.328 233.926 177.292 233.722C177.268 233.518 177.244 233.338 177.22 233.182H177.112C176.992 233.422 176.848 233.698 176.68 234.01C176.524 234.322 176.368 234.622 176.212 234.91C176.068 235.198 175.948 235.432 175.852 235.612L173.746 239.428ZM183.171 244L184.827 234.532H186.069L185.979 236.062H186.069C186.213 235.798 186.393 235.534 186.609 235.27C186.825 234.994 187.089 234.766 187.401 234.586C187.713 234.406 188.085 234.316 188.517 234.316C188.709 234.316 188.877 234.334 189.021 234.37C189.177 234.394 189.291 234.424 189.363 234.46L189.111 235.918H188.499C188.115 235.918 187.761 235.99 187.437 236.134C187.113 236.278 186.831 236.476 186.591 236.728C186.351 236.98 186.153 237.286 185.997 237.646C185.841 238.006 185.727 238.402 185.655 238.834L184.755 244H183.171ZM193.436 244.216C192.62 244.216 191.936 244.09 191.384 243.838C190.832 243.586 190.418 243.196 190.142 242.668C189.866 242.14 189.728 241.474 189.728 240.67C189.728 240.358 189.74 240.046 189.764 239.734C189.8 239.41 189.854 239.092 189.926 238.78C190.07 238.096 190.268 237.484 190.52 236.944C190.772 236.392 191.09 235.924 191.474 235.54C191.858 235.144 192.308 234.844 192.824 234.64C193.352 234.424 193.952 234.316 194.624 234.316C195.416 234.316 196.064 234.43 196.568 234.658C197.072 234.874 197.45 235.186 197.702 235.594C197.954 236.002 198.08 236.5 198.08 237.088C198.08 237.232 198.074 237.388 198.062 237.556C198.05 237.712 198.026 237.874 197.99 238.042H196.406C196.43 237.91 196.448 237.784 196.46 237.664C196.472 237.532 196.478 237.406 196.478 237.286C196.478 236.926 196.412 236.626 196.28 236.386C196.16 236.134 195.962 235.948 195.686 235.828C195.422 235.696 195.074 235.63 194.642 235.63C194.126 235.63 193.658 235.756 193.238 236.008C192.818 236.248 192.464 236.62 192.176 237.124C191.888 237.616 191.672 238.252 191.528 239.032C191.48 239.296 191.444 239.524 191.42 239.716C191.396 239.908 191.378 240.082 191.366 240.238C191.354 240.382 191.348 240.514 191.348 240.634C191.348 241.162 191.426 241.594 191.582 241.93C191.75 242.254 191.984 242.494 192.284 242.65C192.596 242.806 192.968 242.884 193.4 242.884C193.94 242.884 194.384 242.788 194.732 242.596C195.092 242.404 195.38 242.128 195.596 241.768C195.812 241.396 195.962 240.97 196.046 240.49H197.558C197.45 241.222 197.228 241.87 196.892 242.434C196.568 242.986 196.118 243.424 195.542 243.748C194.978 244.06 194.276 244.216 193.436 244.216ZM199.386 244L201.672 230.986H203.256L202.428 235.72H202.536C202.824 235.408 203.13 235.15 203.454 234.946C203.79 234.73 204.144 234.574 204.516 234.478C204.9 234.37 205.29 234.316 205.686 234.316C206.202 234.316 206.658 234.394 207.054 234.55C207.45 234.706 207.762 234.952 207.99 235.288C208.218 235.624 208.332 236.074 208.332 236.638C208.332 236.806 208.32 236.986 208.296 237.178C208.284 237.37 208.26 237.568 208.224 237.772L207.126 244H205.542L206.622 237.862C206.646 237.718 206.664 237.58 206.676 237.448C206.7 237.304 206.712 237.172 206.712 237.052C206.712 236.704 206.64 236.434 206.496 236.242C206.364 236.05 206.178 235.918 205.938 235.846C205.698 235.762 205.416 235.72 205.092 235.72C204.744 235.72 204.396 235.786 204.048 235.918C203.7 236.038 203.376 236.224 203.076 236.476C202.788 236.728 202.536 237.046 202.32 237.43C202.116 237.814 201.972 238.252 201.888 238.744L200.97 244H199.386ZM212.013 232.75L212.319 230.986H213.903L213.597 232.75H212.013ZM210.069 244L211.743 234.532H213.327L211.653 244H210.069ZM216.937 244.216C216.517 244.216 216.187 244.144 215.947 244C215.719 243.868 215.551 243.694 215.443 243.478C215.347 243.262 215.299 243.01 215.299 242.722C215.299 242.638 215.305 242.554 215.317 242.47C215.329 242.374 215.341 242.278 215.353 242.182L216.451 235.864H215.227L215.461 234.532H216.703L217.477 231.886H218.719L218.251 234.532H220.033L219.799 235.864H218.035L216.973 241.822C216.961 241.894 216.943 241.99 216.919 242.11C216.907 242.218 216.901 242.29 216.901 242.326C216.901 242.506 216.955 242.644 217.063 242.74C217.171 242.836 217.339 242.884 217.567 242.884H218.575L218.395 243.928C218.263 243.988 218.113 244.036 217.945 244.072C217.777 244.108 217.603 244.138 217.423 244.162C217.255 244.198 217.093 244.216 216.937 244.216ZM224.603 244.216C223.751 244.216 223.037 244.09 222.461 243.838C221.897 243.574 221.471 243.178 221.183 242.65C220.907 242.11 220.769 241.45 220.769 240.67C220.769 240.346 220.787 240.022 220.823 239.698C220.859 239.362 220.907 239.044 220.967 238.744C221.147 237.892 221.429 237.136 221.813 236.476C222.197 235.804 222.713 235.276 223.361 234.892C224.021 234.508 224.837 234.316 225.809 234.316C226.625 234.316 227.297 234.454 227.825 234.73C228.365 234.994 228.761 235.378 229.013 235.882C229.277 236.386 229.409 237.004 229.409 237.736C229.409 238.012 229.385 238.318 229.337 238.654C229.301 238.99 229.241 239.326 229.157 239.662H222.479C222.455 239.842 222.431 240.016 222.407 240.184C222.395 240.34 222.389 240.49 222.389 240.634C222.389 241.162 222.467 241.594 222.623 241.93C222.791 242.266 223.043 242.512 223.379 242.668C223.715 242.824 224.129 242.902 224.621 242.902C224.933 242.902 225.233 242.866 225.521 242.794C225.809 242.71 226.073 242.584 226.313 242.416C226.553 242.248 226.763 242.032 226.943 241.768C227.123 241.492 227.261 241.162 227.357 240.778H228.905C228.785 241.354 228.593 241.858 228.329 242.29C228.065 242.722 227.747 243.082 227.375 243.37C227.003 243.646 226.577 243.856 226.097 244C225.629 244.144 225.131 244.216 224.603 244.216ZM222.695 238.474H227.735C227.771 238.306 227.795 238.15 227.807 238.006C227.819 237.862 227.825 237.724 227.825 237.592C227.825 237.148 227.747 236.782 227.591 236.494C227.447 236.206 227.225 235.99 226.925 235.846C226.625 235.69 226.247 235.612 225.791 235.612C225.263 235.612 224.795 235.726 224.387 235.954C223.979 236.17 223.631 236.488 223.343 236.908C223.067 237.328 222.851 237.85 222.695 238.474ZM234.878 244.216C234.062 244.216 233.378 244.09 232.826 243.838C232.274 243.586 231.86 243.196 231.584 242.668C231.308 242.14 231.17 241.474 231.17 240.67C231.17 240.358 231.182 240.046 231.206 239.734C231.242 239.41 231.296 239.092 231.368 238.78C231.512 238.096 231.71 237.484 231.962 236.944C232.214 236.392 232.532 235.924 232.916 235.54C233.3 235.144 233.75 234.844 234.266 234.64C234.794 234.424 235.394 234.316 236.066 234.316C236.858 234.316 237.506 234.43 238.01 234.658C238.514 234.874 238.892 235.186 239.144 235.594C239.396 236.002 239.522 236.5 239.522 237.088C239.522 237.232 239.516 237.388 239.504 237.556C239.492 237.712 239.468 237.874 239.432 238.042H237.848C237.872 237.91 237.89 237.784 237.902 237.664C237.914 237.532 237.92 237.406 237.92 237.286C237.92 236.926 237.854 236.626 237.722 236.386C237.602 236.134 237.404 235.948 237.128 235.828C236.864 235.696 236.516 235.63 236.084 235.63C235.568 235.63 235.1 235.756 234.68 236.008C234.26 236.248 233.906 236.62 233.618 237.124C233.33 237.616 233.114 238.252 232.97 239.032C232.922 239.296 232.886 239.524 232.862 239.716C232.838 239.908 232.82 240.082 232.808 240.238C232.796 240.382 232.79 240.514 232.79 240.634C232.79 241.162 232.868 241.594 233.024 241.93C233.192 242.254 233.426 242.494 233.726 242.65C234.038 242.806 234.41 242.884 234.842 242.884C235.382 242.884 235.826 242.788 236.174 242.596C236.534 242.404 236.822 242.128 237.038 241.768C237.254 241.396 237.404 240.97 237.488 240.49H239C238.892 241.222 238.67 241.87 238.334 242.434C238.01 242.986 237.56 243.424 236.984 243.748C236.42 244.06 235.718 244.216 234.878 244.216ZM243.096 244.216C242.676 244.216 242.346 244.144 242.106 244C241.878 243.868 241.71 243.694 241.602 243.478C241.506 243.262 241.458 243.01 241.458 242.722C241.458 242.638 241.464 242.554 241.476 242.47C241.488 242.374 241.5 242.278 241.512 242.182L242.61 235.864H241.386L241.62 234.532H242.862L243.636 231.886H244.878L244.41 234.532H246.192L245.958 235.864H244.194L243.132 241.822C243.12 241.894 243.102 241.99 243.078 242.11C243.066 242.218 243.06 242.29 243.06 242.326C243.06 242.506 243.114 242.644 243.222 242.74C243.33 242.836 243.498 242.884 243.726 242.884H244.734L244.554 243.928C244.422 243.988 244.272 244.036 244.104 244.072C243.936 244.108 243.762 244.138 243.582 244.162C243.414 244.198 243.252 244.216 243.096 244.216ZM249.7 244.216C249.196 244.216 248.74 244.138 248.332 243.982C247.924 243.826 247.606 243.58 247.378 243.244C247.15 242.908 247.036 242.458 247.036 241.894C247.036 241.714 247.048 241.534 247.072 241.354C247.096 241.162 247.126 240.964 247.162 240.76L248.26 234.532H249.844L248.764 240.688C248.752 240.832 248.734 240.97 248.71 241.102C248.686 241.234 248.674 241.36 248.674 241.48C248.674 241.828 248.74 242.104 248.872 242.308C249.016 242.5 249.208 242.632 249.448 242.704C249.7 242.776 249.982 242.812 250.294 242.812C250.654 242.812 251.002 242.752 251.338 242.632C251.674 242.512 251.986 242.332 252.274 242.092C252.562 241.84 252.814 241.528 253.03 241.156C253.246 240.784 253.396 240.352 253.48 239.86L254.416 234.532H256.018L254.344 244H253.084L253.174 242.578H253.066C252.766 242.95 252.43 243.262 252.058 243.514C251.698 243.754 251.32 243.928 250.924 244.036C250.528 244.156 250.12 244.216 249.7 244.216ZM257.359 244L259.015 234.532H260.257L260.167 236.062H260.257C260.401 235.798 260.581 235.534 260.797 235.27C261.013 234.994 261.277 234.766 261.589 234.586C261.901 234.406 262.273 234.316 262.705 234.316C262.897 234.316 263.065 234.334 263.209 234.37C263.365 234.394 263.479 234.424 263.551 234.46L263.299 235.918H262.687C262.303 235.918 261.949 235.99 261.625 236.134C261.301 236.278 261.019 236.476 260.779 236.728C260.539 236.98 260.341 237.286 260.185 237.646C260.029 238.006 259.915 238.402 259.843 238.834L258.943 244H257.359ZM267.75 244.216C266.898 244.216 266.184 244.09 265.608 243.838C265.044 243.574 264.618 243.178 264.33 242.65C264.054 242.11 263.916 241.45 263.916 240.67C263.916 240.346 263.934 240.022 263.97 239.698C264.006 239.362 264.054 239.044 264.114 238.744C264.294 237.892 264.576 237.136 264.96 236.476C265.344 235.804 265.86 235.276 266.508 234.892C267.168 234.508 267.984 234.316 268.956 234.316C269.772 234.316 270.444 234.454 270.972 234.73C271.512 234.994 271.908 235.378 272.16 235.882C272.424 236.386 272.556 237.004 272.556 237.736C272.556 238.012 272.532 238.318 272.484 238.654C272.448 238.99 272.388 239.326 272.304 239.662H265.626C265.602 239.842 265.578 240.016 265.554 240.184C265.542 240.34 265.536 240.49 265.536 240.634C265.536 241.162 265.614 241.594 265.77 241.93C265.938 242.266 266.19 242.512 266.526 242.668C266.862 242.824 267.276 242.902 267.768 242.902C268.08 242.902 268.38 242.866 268.668 242.794C268.956 242.71 269.22 242.584 269.46 242.416C269.7 242.248 269.91 242.032 270.09 241.768C270.27 241.492 270.408 241.162 270.504 240.778H272.052C271.932 241.354 271.74 241.858 271.476 242.29C271.212 242.722 270.894 243.082 270.522 243.37C270.15 243.646 269.724 243.856 269.244 244C268.776 244.144 268.278 244.216 267.75 244.216ZM265.842 238.474H270.882C270.918 238.306 270.942 238.15 270.954 238.006C270.966 237.862 270.972 237.724 270.972 237.592C270.972 237.148 270.894 236.782 270.738 236.494C270.594 236.206 270.372 235.99 270.072 235.846C269.772 235.69 269.394 235.612 268.938 235.612C268.41 235.612 267.942 235.726 267.534 235.954C267.126 236.17 266.778 236.488 266.49 236.908C266.214 237.328 265.998 237.85 265.842 238.474Z" fill="#415056"/>
<path d="M162 120H192V150H162V120Z" fill="#D9D9D9"/>
<path d="M200 120H230V150H200V120Z" fill="#D9D9D9"/>
<path d="M239 120H269V150H239V120Z" fill="#D9D9D9"/>
<path d="M278 120H308V150H278V120Z" fill="#D9D9D9"/>
<path d="M172.457 176V163.652H176.543L178.307 169.97C178.379 170.198 178.451 170.468 178.523 170.78C178.595 171.092 178.667 171.404 178.739 171.716C178.823 172.016 178.889 172.286 178.937 172.526H179.081C179.105 172.322 179.147 172.082 179.207 171.806C179.267 171.518 179.333 171.212 179.405 170.888C179.477 170.564 179.555 170.252 179.639 169.952L181.403 163.652H185.417V176H182.771V170.15C182.771 169.61 182.771 169.07 182.771 168.53C182.783 167.978 182.795 167.498 182.807 167.09C182.831 166.682 182.843 166.418 182.843 166.298H182.699C182.675 166.43 182.615 166.676 182.519 167.036C182.435 167.384 182.339 167.756 182.231 168.152C182.135 168.548 182.045 168.89 181.961 169.178L180.035 176H177.695L175.751 169.196C175.679 168.944 175.595 168.65 175.499 168.314C175.415 167.966 175.331 167.612 175.247 167.252C175.175 166.88 175.103 166.562 175.031 166.298H174.887C174.899 166.622 174.911 167.012 174.923 167.468C174.935 167.912 174.947 168.374 174.959 168.854C174.971 169.322 174.977 169.754 174.977 170.15V176H172.457ZM188.478 165.146V162.986H190.98V165.146H188.478ZM188.478 176V166.532H190.98V176H188.478ZM197.975 176.216C196.967 176.216 196.121 176.042 195.437 175.694C194.753 175.334 194.231 174.788 193.871 174.056C193.523 173.312 193.349 172.382 193.349 171.266C193.349 170.126 193.523 169.196 193.871 168.476C194.231 167.744 194.753 167.198 195.437 166.838C196.133 166.478 196.979 166.298 197.975 166.298C198.623 166.298 199.205 166.376 199.721 166.532C200.249 166.688 200.705 166.928 201.089 167.252C201.473 167.576 201.761 167.978 201.953 168.458C202.157 168.926 202.259 169.484 202.259 170.132H199.757C199.757 169.7 199.691 169.346 199.559 169.07C199.427 168.794 199.223 168.584 198.947 168.44C198.683 168.296 198.347 168.224 197.939 168.224C197.459 168.224 197.069 168.332 196.769 168.548C196.469 168.764 196.247 169.082 196.103 169.502C195.959 169.922 195.887 170.444 195.887 171.068V171.482C195.887 172.094 195.959 172.61 196.103 173.03C196.259 173.45 196.493 173.768 196.805 173.984C197.117 174.188 197.525 174.29 198.029 174.29C198.437 174.29 198.773 174.218 199.037 174.074C199.313 173.93 199.523 173.714 199.667 173.426C199.811 173.138 199.883 172.79 199.883 172.382H202.259C202.259 172.994 202.157 173.54 201.953 174.02C201.761 174.5 201.473 174.902 201.089 175.226C200.717 175.55 200.267 175.796 199.739 175.964C199.211 176.132 198.623 176.216 197.975 176.216ZM204.676 176V166.532H206.746L206.944 168.008H207.07C207.19 167.696 207.346 167.414 207.538 167.162C207.73 166.898 207.97 166.688 208.258 166.532C208.546 166.376 208.882 166.298 209.266 166.298C209.47 166.298 209.656 166.322 209.824 166.37C209.992 166.406 210.118 166.442 210.202 166.478V168.746H209.428C209.056 168.746 208.726 168.8 208.438 168.908C208.162 169.004 207.928 169.16 207.736 169.376C207.544 169.592 207.4 169.856 207.304 170.168C207.22 170.48 207.178 170.846 207.178 171.266V176H204.676ZM216.234 176.216C215.202 176.216 214.326 176.042 213.606 175.694C212.886 175.334 212.34 174.788 211.968 174.056C211.596 173.312 211.41 172.382 211.41 171.266C211.41 170.126 211.596 169.196 211.968 168.476C212.34 167.744 212.886 167.204 213.606 166.856C214.326 166.496 215.202 166.316 216.234 166.316C217.29 166.316 218.172 166.496 218.88 166.856C219.6 167.204 220.146 167.744 220.518 168.476C220.89 169.196 221.076 170.126 221.076 171.266C221.076 172.382 220.89 173.312 220.518 174.056C220.146 174.788 219.6 175.334 218.88 175.694C218.172 176.042 217.29 176.216 216.234 176.216ZM216.234 174.272C216.786 174.272 217.224 174.17 217.548 173.966C217.884 173.762 218.13 173.45 218.286 173.03C218.442 172.61 218.52 172.094 218.52 171.482V171.05C218.52 170.438 218.442 169.922 218.286 169.502C218.13 169.082 217.884 168.77 217.548 168.566C217.224 168.35 216.786 168.242 216.234 168.242C215.694 168.242 215.256 168.35 214.92 168.566C214.596 168.77 214.356 169.082 214.2 169.502C214.044 169.922 213.966 170.438 213.966 171.05V171.482C213.966 172.094 214.044 172.61 214.2 173.03C214.356 173.45 214.596 173.762 214.92 173.966C215.256 174.17 215.694 174.272 216.234 174.272ZM227.291 176.216C226.631 176.216 226.037 176.144 225.509 176C224.981 175.856 224.531 175.658 224.159 175.406C223.787 175.142 223.499 174.83 223.295 174.47C223.103 174.11 223.007 173.702 223.007 173.246C223.007 173.198 223.007 173.15 223.007 173.102C223.007 173.054 223.013 173.018 223.025 172.994H225.437C225.437 173.018 225.437 173.042 225.437 173.066C225.437 173.09 225.437 173.114 225.437 173.138C225.449 173.438 225.545 173.684 225.725 173.876C225.905 174.056 226.139 174.188 226.427 174.272C226.727 174.356 227.039 174.398 227.363 174.398C227.651 174.398 227.927 174.374 228.191 174.326C228.467 174.266 228.695 174.164 228.875 174.02C229.067 173.876 229.163 173.69 229.163 173.462C229.163 173.174 229.043 172.952 228.803 172.796C228.575 172.64 228.269 172.514 227.885 172.418C227.513 172.322 227.105 172.214 226.661 172.094C226.253 171.998 225.845 171.89 225.437 171.77C225.029 171.638 224.657 171.47 224.321 171.266C223.997 171.062 223.733 170.798 223.529 170.474C223.325 170.138 223.223 169.718 223.223 169.214C223.223 168.722 223.331 168.296 223.547 167.936C223.763 167.564 224.057 167.258 224.429 167.018C224.813 166.778 225.257 166.604 225.761 166.496C226.277 166.376 226.829 166.316 227.417 166.316C227.969 166.316 228.485 166.376 228.965 166.496C229.445 166.604 229.865 166.772 230.225 167C230.585 167.216 230.867 167.492 231.071 167.828C231.275 168.152 231.377 168.518 231.377 168.926C231.377 169.01 231.377 169.088 231.377 169.16C231.377 169.232 231.371 169.28 231.359 169.304H228.965V169.16C228.965 168.944 228.899 168.764 228.767 168.62C228.635 168.464 228.443 168.344 228.191 168.26C227.951 168.176 227.657 168.134 227.309 168.134C227.069 168.134 226.847 168.152 226.643 168.188C226.451 168.224 226.283 168.278 226.139 168.35C225.995 168.422 225.881 168.512 225.797 168.62C225.725 168.716 225.689 168.836 225.689 168.98C225.689 169.184 225.773 169.352 225.941 169.484C226.121 169.604 226.355 169.706 226.643 169.79C226.931 169.874 227.249 169.964 227.597 170.06C228.029 170.18 228.479 170.3 228.947 170.42C229.427 170.528 229.871 170.678 230.279 170.87C230.687 171.062 231.017 171.338 231.269 171.698C231.521 172.046 231.647 172.52 231.647 173.12C231.647 173.696 231.533 174.182 231.305 174.578C231.089 174.974 230.783 175.292 230.387 175.532C229.991 175.772 229.529 175.946 229.001 176.054C228.473 176.162 227.903 176.216 227.291 176.216ZM238.301 176.216C237.257 176.216 236.381 176.042 235.673 175.694C234.965 175.334 234.431 174.788 234.071 174.056C233.711 173.324 233.531 172.394 233.531 171.266C233.531 170.126 233.711 169.196 234.071 168.476C234.431 167.744 234.959 167.204 235.655 166.856C236.363 166.496 237.227 166.316 238.247 166.316C239.207 166.316 240.017 166.49 240.677 166.838C241.337 167.174 241.835 167.702 242.171 168.422C242.507 169.13 242.675 170.048 242.675 171.176V171.824H236.069C236.093 172.376 236.177 172.844 236.321 173.228C236.477 173.612 236.711 173.9 237.023 174.092C237.347 174.272 237.773 174.362 238.301 174.362C238.589 174.362 238.847 174.326 239.075 174.254C239.315 174.182 239.519 174.074 239.687 173.93C239.855 173.786 239.987 173.606 240.083 173.39C240.179 173.174 240.227 172.928 240.227 172.652H242.675C242.675 173.252 242.567 173.774 242.351 174.218C242.135 174.662 241.835 175.034 241.451 175.334C241.067 175.622 240.605 175.844 240.065 176C239.537 176.144 238.949 176.216 238.301 176.216ZM236.105 170.24H240.101C240.101 169.88 240.053 169.568 239.957 169.304C239.873 169.04 239.753 168.824 239.597 168.656C239.441 168.488 239.249 168.368 239.021 168.296C238.805 168.212 238.559 168.17 238.283 168.17C237.827 168.17 237.443 168.248 237.131 168.404C236.831 168.548 236.597 168.776 236.429 169.088C236.273 169.388 236.165 169.772 236.105 170.24ZM245.05 176V166.532H247.12L247.318 168.008H247.444C247.564 167.696 247.72 167.414 247.912 167.162C248.104 166.898 248.344 166.688 248.632 166.532C248.92 166.376 249.256 166.298 249.64 166.298C249.844 166.298 250.03 166.322 250.198 166.37C250.366 166.406 250.492 166.442 250.576 166.478V168.746H249.802C249.43 168.746 249.1 168.8 248.812 168.908C248.536 169.004 248.302 169.16 248.11 169.376C247.918 169.592 247.774 169.856 247.678 170.168C247.594 170.48 247.552 170.846 247.552 171.266V176H245.05ZM254.876 176L251.348 166.532H253.994L255.38 170.528C255.452 170.732 255.536 171.002 255.632 171.338C255.74 171.674 255.848 172.028 255.956 172.4C256.064 172.772 256.154 173.108 256.226 173.408H256.316C256.4 173.132 256.49 172.814 256.586 172.454C256.682 172.082 256.778 171.728 256.874 171.392C256.982 171.044 257.072 170.756 257.144 170.528L258.53 166.532H261.05L257.504 176H254.876ZM262.812 165.146V162.986H265.314V165.146H262.812ZM262.812 176V166.532H265.314V176H262.812ZM272.309 176.216C271.301 176.216 270.455 176.042 269.771 175.694C269.087 175.334 268.565 174.788 268.205 174.056C267.857 173.312 267.683 172.382 267.683 171.266C267.683 170.126 267.857 169.196 268.205 168.476C268.565 167.744 269.087 167.198 269.771 166.838C270.467 166.478 271.313 166.298 272.309 166.298C272.957 166.298 273.539 166.376 274.055 166.532C274.583 166.688 275.039 166.928 275.423 167.252C275.807 167.576 276.095 167.978 276.287 168.458C276.491 168.926 276.593 169.484 276.593 170.132H274.091C274.091 169.7 274.025 169.346 273.893 169.07C273.761 168.794 273.557 168.584 273.281 168.44C273.017 168.296 272.681 168.224 272.273 168.224C271.793 168.224 271.403 168.332 271.103 168.548C270.803 168.764 270.581 169.082 270.437 169.502C270.293 169.922 270.221 170.444 270.221 171.068V171.482C270.221 172.094 270.293 172.61 270.437 173.03C270.593 173.45 270.827 173.768 271.139 173.984C271.451 174.188 271.859 174.29 272.363 174.29C272.771 174.29 273.107 174.218 273.371 174.074C273.647 173.93 273.857 173.714 274.001 173.426C274.145 173.138 274.217 172.79 274.217 172.382H276.593C276.593 172.994 276.491 173.54 276.287 174.02C276.095 174.5 275.807 174.902 275.423 175.226C275.051 175.55 274.601 175.796 274.073 175.964C273.545 176.132 272.957 176.216 272.309 176.216ZM283.311 176.216C282.267 176.216 281.391 176.042 280.683 175.694C279.975 175.334 279.441 174.788 279.081 174.056C278.721 173.324 278.541 172.394 278.541 171.266C278.541 170.126 278.721 169.196 279.081 168.476C279.441 167.744 279.969 167.204 280.665 166.856C281.373 166.496 282.237 166.316 283.257 166.316C284.217 166.316 285.027 166.49 285.687 166.838C286.347 167.174 286.845 167.702 287.181 168.422C287.517 169.13 287.685 170.048 287.685 171.176V171.824H281.079C281.103 172.376 281.187 172.844 281.331 173.228C281.487 173.612 281.721 173.9 282.033 174.092C282.357 174.272 282.783 174.362 283.311 174.362C283.599 174.362 283.857 174.326 284.085 174.254C284.325 174.182 284.529 174.074 284.697 173.93C284.865 173.786 284.997 173.606 285.093 173.39C285.189 173.174 285.237 172.928 285.237 172.652H287.685C287.685 173.252 287.577 173.774 287.361 174.218C287.145 174.662 286.845 175.034 286.461 175.334C286.077 175.622 285.615 175.844 285.075 176C284.547 176.144 283.959 176.216 283.311 176.216ZM281.115 170.24H285.111C285.111 169.88 285.063 169.568 284.967 169.304C284.883 169.04 284.763 168.824 284.607 168.656C284.451 168.488 284.259 168.368 284.031 168.296C283.815 168.212 283.569 168.17 283.293 168.17C282.837 168.17 282.453 168.248 282.141 168.404C281.841 168.548 281.607 168.776 281.439 169.088C281.283 169.388 281.175 169.772 281.115 170.24ZM293.895 176.216C293.235 176.216 292.641 176.144 292.113 176C291.585 175.856 291.135 175.658 290.763 175.406C290.391 175.142 290.103 174.83 289.899 174.47C289.707 174.11 289.611 173.702 289.611 173.246C289.611 173.198 289.611 173.15 289.611 173.102C289.611 173.054 289.617 173.018 289.629 172.994H292.041C292.041 173.018 292.041 173.042 292.041 173.066C292.041 173.09 292.041 173.114 292.041 173.138C292.053 173.438 292.149 173.684 292.329 173.876C292.509 174.056 292.743 174.188 293.031 174.272C293.331 174.356 293.643 174.398 293.967 174.398C294.255 174.398 294.531 174.374 294.795 174.326C295.071 174.266 295.299 174.164 295.479 174.02C295.671 173.876 295.767 173.69 295.767 173.462C295.767 173.174 295.647 172.952 295.407 172.796C295.179 172.64 294.873 172.514 294.489 172.418C294.117 172.322 293.709 172.214 293.265 172.094C292.857 171.998 292.449 171.89 292.041 171.77C291.633 171.638 291.261 171.47 290.925 171.266C290.601 171.062 290.337 170.798 290.133 170.474C289.929 170.138 289.827 169.718 289.827 169.214C289.827 168.722 289.935 168.296 290.151 167.936C290.367 167.564 290.661 167.258 291.033 167.018C291.417 166.778 291.861 166.604 292.365 166.496C292.881 166.376 293.433 166.316 294.021 166.316C294.573 166.316 295.089 166.376 295.569 166.496C296.049 166.604 296.469 166.772 296.829 167C297.189 167.216 297.471 167.492 297.675 167.828C297.879 168.152 297.981 168.518 297.981 168.926C297.981 169.01 297.981 169.088 297.981 169.16C297.981 169.232 297.975 169.28 297.963 169.304H295.569V169.16C295.569 168.944 295.503 168.764 295.371 168.62C295.239 168.464 295.047 168.344 294.795 168.26C294.555 168.176 294.261 168.134 293.913 168.134C293.673 168.134 293.451 168.152 293.247 168.188C293.055 168.224 292.887 168.278 292.743 168.35C292.599 168.422 292.485 168.512 292.401 168.62C292.329 168.716 292.293 168.836 292.293 168.98C292.293 169.184 292.377 169.352 292.545 169.484C292.725 169.604 292.959 169.706 293.247 169.79C293.535 169.874 293.853 169.964 294.201 170.06C294.633 170.18 295.083 170.3 295.551 170.42C296.031 170.528 296.475 170.678 296.883 170.87C297.291 171.062 297.621 171.338 297.873 171.698C298.125 172.046 298.251 172.52 298.251 173.12C298.251 173.696 298.137 174.182 297.909 174.578C297.693 174.974 297.387 175.292 296.991 175.532C296.595 175.772 296.133 175.946 295.605 176.054C295.077 176.162 294.507 176.216 293.895 176.216Z" fill="#202F38"/>
<path d="M234 70L225.34 85L242.66 85L234 70ZM234 120L242.66 105L225.34 105L234 120ZM232.5 83.5L232.5 106.5L235.5 106.5L235.5 83.5L232.5 83.5Z" fill="#415056"/>
<path d="M0 120H146V190H0V120Z" fill="#FFF7F7"/>
<path d="M59.3149 161.216C58.0309 161.216 56.9329 160.994 56.0209 160.55C55.1089 160.094 54.4129 159.392 53.9329 158.444C53.4649 157.496 53.2309 156.29 53.2309 154.826C53.2309 152.666 53.7589 151.064 54.8149 150.02C55.8829 148.964 57.3829 148.436 59.3149 148.436C60.3709 148.436 61.3189 148.616 62.1589 148.976C62.9989 149.336 63.6589 149.876 64.1389 150.596C64.6309 151.316 64.8769 152.222 64.8769 153.314H62.1769C62.1769 152.738 62.0569 152.252 61.8169 151.856C61.5889 151.46 61.2589 151.16 60.8269 150.956C60.4069 150.74 59.9149 150.632 59.3509 150.632C58.5829 150.632 57.9469 150.782 57.4429 151.082C56.9509 151.382 56.5849 151.826 56.3449 152.414C56.1169 152.99 56.0029 153.698 56.0029 154.538V155.096C56.0029 155.96 56.1229 156.686 56.3629 157.274C56.6029 157.85 56.9629 158.288 57.4429 158.588C57.9349 158.876 58.5649 159.02 59.3329 159.02C59.9329 159.02 60.4549 158.918 60.8989 158.714C61.3429 158.51 61.6849 158.21 61.9249 157.814C62.1649 157.418 62.2849 156.932 62.2849 156.356H64.8769C64.8769 157.448 64.6369 158.354 64.1569 159.074C63.6889 159.794 63.0349 160.334 62.1949 160.694C61.3549 161.042 60.3949 161.216 59.3149 161.216ZM67.5301 161V148.652H72.5701C73.8541 148.652 74.9461 148.874 75.8461 149.318C76.7461 149.762 77.4361 150.44 77.9161 151.352C78.4081 152.252 78.6541 153.41 78.6541 154.826C78.6541 156.23 78.4081 157.388 77.9161 158.3C77.4361 159.212 76.7461 159.89 75.8461 160.334C74.9461 160.778 73.8541 161 72.5701 161H67.5301ZM70.2121 158.786H72.5521C73.0921 158.786 73.5721 158.708 73.9921 158.552C74.4121 158.396 74.7601 158.168 75.0361 157.868C75.3121 157.556 75.5221 157.172 75.6661 156.716C75.8101 156.248 75.8821 155.708 75.8821 155.096V154.556C75.8821 153.944 75.8101 153.41 75.6661 152.954C75.5221 152.486 75.3121 152.102 75.0361 151.802C74.7601 151.49 74.4121 151.256 73.9921 151.1C73.5721 150.932 73.0921 150.848 72.5521 150.848H70.2121V158.786ZM81.3768 161V148.652H83.8428L88.8108 155.312C88.8828 155.396 88.9728 155.516 89.0808 155.672C89.1888 155.816 89.2908 155.96 89.3868 156.104C89.4828 156.248 89.5488 156.362 89.5848 156.446H89.6748C89.6748 156.242 89.6748 156.044 89.6748 155.852C89.6748 155.648 89.6748 155.468 89.6748 155.312V148.652H92.2128V161H89.7468L84.6708 154.178C84.5508 154.01 84.4248 153.824 84.2928 153.62C84.1608 153.416 84.0648 153.26 84.0048 153.152H83.9148C83.9148 153.332 83.9148 153.512 83.9148 153.692C83.9148 153.86 83.9148 154.022 83.9148 154.178V161H81.3768Z" fill="#202F38"/>
<path d="M72 70L63.3397 85L80.6603 85L72 70ZM72 120L80.6603 105L63.3397 105L72 120ZM70.5 83.5L70.5 106.5L73.5 106.5L73.5 83.5L70.5 83.5Z" fill="#415056"/>
<path d="M0 0H308V70H0V0Z" fill="#415056"/>
<path d="M139.496 41.216C138.368 41.216 137.396 41.036 136.58 40.676C135.776 40.316 135.158 39.776 134.726 39.056C134.294 38.324 134.078 37.418 134.078 36.338V28.652H136.778V36.266C136.778 37.154 137.012 37.838 137.48 38.318C137.948 38.786 138.62 39.02 139.496 39.02C140.372 39.02 141.044 38.786 141.512 38.318C141.992 37.838 142.232 37.154 142.232 36.266V28.652H144.932V36.338C144.932 37.418 144.716 38.324 144.284 39.056C143.852 39.776 143.228 40.316 142.412 40.676C141.608 41.036 140.636 41.216 139.496 41.216ZM151.773 41.216C151.113 41.216 150.519 41.144 149.991 41C149.463 40.856 149.013 40.658 148.641 40.406C148.269 40.142 147.981 39.83 147.777 39.47C147.585 39.11 147.489 38.702 147.489 38.246C147.489 38.198 147.489 38.15 147.489 38.102C147.489 38.054 147.495 38.018 147.507 37.994H149.919C149.919 38.018 149.919 38.042 149.919 38.066C149.919 38.09 149.919 38.114 149.919 38.138C149.931 38.438 150.027 38.684 150.207 38.876C150.387 39.056 150.621 39.188 150.909 39.272C151.209 39.356 151.521 39.398 151.845 39.398C152.133 39.398 152.409 39.374 152.673 39.326C152.949 39.266 153.177 39.164 153.357 39.02C153.549 38.876 153.645 38.69 153.645 38.462C153.645 38.174 153.525 37.952 153.285 37.796C153.057 37.64 152.751 37.514 152.367 37.418C151.995 37.322 151.587 37.214 151.143 37.094C150.735 36.998 150.327 36.89 149.919 36.77C149.511 36.638 149.139 36.47 148.803 36.266C148.479 36.062 148.215 35.798 148.011 35.474C147.807 35.138 147.705 34.718 147.705 34.214C147.705 33.722 147.813 33.296 148.029 32.936C148.245 32.564 148.539 32.258 148.911 32.018C149.295 31.778 149.739 31.604 150.243 31.496C150.759 31.376 151.311 31.316 151.899 31.316C152.451 31.316 152.967 31.376 153.447 31.496C153.927 31.604 154.347 31.772 154.707 32C155.067 32.216 155.349 32.492 155.553 32.828C155.757 33.152 155.859 33.518 155.859 33.926C155.859 34.01 155.859 34.088 155.859 34.16C155.859 34.232 155.853 34.28 155.841 34.304H153.447V34.16C153.447 33.944 153.381 33.764 153.249 33.62C153.117 33.464 152.925 33.344 152.673 33.26C152.433 33.176 152.139 33.134 151.791 33.134C151.551 33.134 151.329 33.152 151.125 33.188C150.933 33.224 150.765 33.278 150.621 33.35C150.477 33.422 150.363 33.512 150.279 33.62C150.207 33.716 150.171 33.836 150.171 33.98C150.171 34.184 150.255 34.352 150.423 34.484C150.603 34.604 150.837 34.706 151.125 34.79C151.413 34.874 151.731 34.964 152.079 35.06C152.511 35.18 152.961 35.3 153.429 35.42C153.909 35.528 154.353 35.678 154.761 35.87C155.169 36.062 155.499 36.338 155.751 36.698C156.003 37.046 156.129 37.52 156.129 38.12C156.129 38.696 156.015 39.182 155.787 39.578C155.571 39.974 155.265 40.292 154.869 40.532C154.473 40.772 154.011 40.946 153.483 41.054C152.955 41.162 152.385 41.216 151.773 41.216ZM162.783 41.216C161.739 41.216 160.863 41.042 160.155 40.694C159.447 40.334 158.913 39.788 158.553 39.056C158.193 38.324 158.013 37.394 158.013 36.266C158.013 35.126 158.193 34.196 158.553 33.476C158.913 32.744 159.441 32.204 160.137 31.856C160.845 31.496 161.709 31.316 162.729 31.316C163.689 31.316 164.499 31.49 165.159 31.838C165.819 32.174 166.317 32.702 166.653 33.422C166.989 34.13 167.157 35.048 167.157 36.176V36.824H160.551C160.575 37.376 160.659 37.844 160.803 38.228C160.959 38.612 161.193 38.9 161.505 39.092C161.829 39.272 162.255 39.362 162.783 39.362C163.071 39.362 163.329 39.326 163.557 39.254C163.797 39.182 164.001 39.074 164.169 38.93C164.337 38.786 164.469 38.606 164.565 38.39C164.661 38.174 164.709 37.928 164.709 37.652H167.157C167.157 38.252 167.049 38.774 166.833 39.218C166.617 39.662 166.317 40.034 165.933 40.334C165.549 40.622 165.087 40.844 164.547 41C164.019 41.144 163.431 41.216 162.783 41.216ZM160.587 35.24H164.583C164.583 34.88 164.535 34.568 164.439 34.304C164.355 34.04 164.235 33.824 164.079 33.656C163.923 33.488 163.731 33.368 163.503 33.296C163.287 33.212 163.041 33.17 162.765 33.17C162.309 33.17 161.925 33.248 161.613 33.404C161.313 33.548 161.079 33.776 160.911 34.088C160.755 34.388 160.647 34.772 160.587 35.24ZM169.532 41V31.532H171.602L171.8 33.008H171.926C172.046 32.696 172.202 32.414 172.394 32.162C172.586 31.898 172.826 31.688 173.114 31.532C173.402 31.376 173.738 31.298 174.122 31.298C174.326 31.298 174.512 31.322 174.68 31.37C174.848 31.406 174.974 31.442 175.058 31.478V33.746H174.284C173.912 33.746 173.582 33.8 173.294 33.908C173.018 34.004 172.784 34.16 172.592 34.376C172.4 34.592 172.256 34.856 172.16 35.168C172.076 35.48 172.034 35.846 172.034 36.266V41H169.532Z" fill="white"/>
</svg>
