<svg width="1331" height="321" viewBox="0 0 1331 321" fill="none" xmlns="http://www.w3.org/2000/svg">
<circle cx="538" cy="260.999" r="50" transform="rotate(-90 538 260.999)" stroke="#FFF7F7" stroke-width="20"/>
<circle cx="418" cy="193.998" r="50" transform="rotate(-90 418 193.998)" stroke="#FFF7F7" stroke-width="20"/>
<circle cx="299" cy="260.999" r="50" transform="rotate(-90 299 260.999)" stroke="#FFF7F7" stroke-width="20"/>
<circle cx="538" cy="127.999" r="50" transform="rotate(-90 538 127.999)" stroke="#FFF7F7" stroke-width="20"/>
<circle cx="418" cy="60.998" r="50" transform="rotate(-90 418 60.998)" stroke="#FFF7F7" stroke-width="20"/>
<circle cx="179" cy="60.998" r="50" transform="rotate(-90 179 60.998)" stroke="#FFF7F7" stroke-width="20"/>
<circle cx="299" cy="127.999" r="50" transform="rotate(-90 299 127.999)" stroke="#FFF7F7" stroke-width="20"/>
<circle cx="60.0001" cy="127.999" r="50" transform="rotate(-90 60.0001 127.999)" stroke="#FFF7F7" stroke-width="20"/>
<circle r="50" transform="matrix(4.37114e-08 -1 -1 -4.37114e-08 791.999 260.999)" stroke="#FFF7F7" stroke-width="20"/>
<circle r="50" transform="matrix(4.37114e-08 -1 -1 -4.37114e-08 911.999 193.998)" stroke="#FFF7F7" stroke-width="20"/>
<circle r="50" transform="matrix(4.37114e-08 -1 -1 -4.37114e-08 1031 260.999)" stroke="#FFF7F7" stroke-width="20"/>
<circle r="50" transform="matrix(4.37114e-08 -1 -1 -4.37114e-08 791.999 127.999)" stroke="#FFF7F7" stroke-width="20"/>
<circle r="50" transform="matrix(4.37114e-08 -1 -1 -4.37114e-08 911.999 60.998)" stroke="#FFF7F7" stroke-width="20"/>
<circle r="50" transform="matrix(4.37114e-08 -1 -1 -4.37114e-08 1151 60.998)" stroke="#FFF7F7" stroke-width="20"/>
<circle r="50" transform="matrix(4.37114e-08 -1 -1 -4.37114e-08 1031 127.999)" stroke="#FFF7F7" stroke-width="20"/>
<circle r="50" transform="matrix(4.37114e-08 -1 -1 -4.37114e-08 1271 127.999)" stroke="#FFF7F7" stroke-width="20"/>
<path d="M229.5 195H616.5" stroke="#202F38" stroke-width="10" stroke-dasharray="20 20"/>
<path d="M713 195H1100" stroke="#202F38" stroke-width="10" stroke-dasharray="20 20"/>
<circle cx="179" cy="193" r="50" stroke="#202F38" stroke-width="20"/>
<circle cx="665" cy="193" r="50" stroke="#202F38" stroke-width="20"/>
<path d="M650.417 202.584H653.362L672.767 183.179L669.821 180.234L650.417 199.638V202.584ZM683.75 206.75H646.25V197.911L674.24 169.921C674.63 169.53 675.16 169.311 675.712 169.311C676.265 169.311 676.795 169.53 677.185 169.921L683.079 175.815C683.47 176.205 683.689 176.735 683.689 177.288C683.689 177.84 683.47 178.37 683.079 178.761L659.256 202.584H683.75V206.75ZM672.767 177.288L675.712 180.234L678.658 177.288L675.712 174.342L672.767 177.288Z" fill="#202F38"/>
<circle cx="1151" cy="193" r="50" stroke="#202F38" stroke-width="20"/>
<path d="M1152 194.221L1160.84 203.058L1157.89 206.006L1154.08 202.198V213.833H1149.92V202.194L1146.11 206.006L1143.16 203.058L1152 194.221ZM1152 172.167C1155.58 172.167 1159.03 173.481 1161.7 175.861C1164.37 178.24 1166.08 181.517 1166.49 185.071C1169.08 185.778 1171.34 187.373 1172.88 189.578C1174.41 191.783 1175.12 194.458 1174.89 197.134C1174.65 199.81 1173.48 202.319 1171.58 204.22C1169.68 206.122 1167.18 207.296 1164.5 207.537V203.342C1165.46 203.205 1166.38 202.878 1167.21 202.381C1168.04 201.884 1168.77 201.226 1169.34 200.447C1169.92 199.667 1170.33 198.78 1170.56 197.839C1170.79 196.898 1170.82 195.921 1170.67 194.965C1170.52 194.008 1170.17 193.093 1169.66 192.27C1169.15 191.448 1168.48 190.736 1167.69 190.176C1166.9 189.616 1166.01 189.218 1165.06 189.007C1164.12 188.796 1163.14 188.775 1162.19 188.946C1162.51 187.427 1162.49 185.854 1162.13 184.343C1161.77 182.831 1161.08 181.42 1160.1 180.211C1159.13 179.003 1157.89 178.028 1156.49 177.359C1155.09 176.689 1153.55 176.341 1152 176.341C1150.45 176.341 1148.91 176.689 1147.51 177.359C1146.11 178.028 1144.88 179.003 1143.9 180.211C1142.92 181.42 1142.23 182.831 1141.87 184.343C1141.51 185.854 1141.49 187.427 1141.82 188.946C1139.92 188.589 1137.95 189.001 1136.35 190.093C1134.76 191.185 1133.66 192.866 1133.3 194.767C1132.95 196.667 1133.36 198.632 1134.45 200.228C1135.54 201.825 1137.22 202.922 1139.13 203.279L1139.5 203.342V207.537C1136.82 207.296 1134.32 206.123 1132.42 204.221C1130.52 202.32 1129.35 199.811 1129.11 197.135C1128.88 194.458 1129.59 191.784 1131.12 189.579C1132.66 187.373 1134.92 185.778 1137.51 185.071C1137.92 181.517 1139.63 178.239 1142.3 175.86C1144.97 173.481 1148.42 172.166 1152 172.167Z" fill="#202F38"/>
<path d="M185.25 177.333H164.417V210.667H193.583V185.667H185.25V177.333ZM160.25 175.233C160.25 174.092 161.181 173.167 162.331 173.167H187.333L197.75 183.583V212.735C197.752 213.009 197.7 213.28 197.597 213.534C197.494 213.787 197.342 214.018 197.15 214.213C196.958 214.407 196.729 214.563 196.477 214.669C196.225 214.775 195.955 214.831 195.681 214.833H162.319C161.772 214.829 161.248 214.61 160.861 214.224C160.474 213.837 160.254 213.314 160.25 212.767V175.233ZM182.185 199.096C180.438 200.117 178.379 200.467 176.393 200.082C174.406 199.697 172.627 198.602 171.388 197.003C170.149 195.403 169.534 193.407 169.657 191.387C169.781 189.367 170.635 187.461 172.06 186.025C173.495 184.591 175.403 183.729 177.427 183.601C179.451 183.473 181.452 184.088 183.056 185.33C184.659 186.572 185.754 188.356 186.137 190.348C186.519 192.34 186.161 194.403 185.131 196.15L189.735 200.754L186.79 203.702L182.185 199.098V199.096ZM180.898 194.862C181.296 194.478 181.613 194.018 181.832 193.51C182.05 193.002 182.165 192.455 182.17 191.902C182.175 191.348 182.069 190.8 181.86 190.288C181.65 189.775 181.341 189.31 180.95 188.919C180.558 188.528 180.093 188.218 179.581 188.009C179.069 187.799 178.52 187.694 177.967 187.699C177.414 187.704 176.867 187.819 176.359 188.037C175.85 188.255 175.391 188.573 175.006 188.971C174.247 189.757 173.827 190.809 173.837 191.902C173.846 192.994 174.284 194.039 175.057 194.812C175.83 195.584 176.875 196.022 177.967 196.032C179.06 196.041 180.112 195.621 180.898 194.862Z" fill="#202F38"/>
</svg>
