<svg width="308" height="498" viewBox="0 0 308 498" fill="none" xmlns="http://www.w3.org/2000/svg">
<path d="M36.7532 487L38.6612 476.146H34.4312L34.6832 474.652H44.8892L44.6372 476.146H40.3712L38.4632 487H36.7532ZM43.5956 487L45.2516 477.532H46.4936L46.4036 479.062H46.4936C46.6376 478.798 46.8176 478.534 47.0336 478.27C47.2496 477.994 47.5136 477.766 47.8256 477.586C48.1376 477.406 48.5096 477.316 48.9416 477.316C49.1336 477.316 49.3016 477.334 49.4456 477.37C49.6016 477.394 49.7156 477.424 49.7876 477.46L49.5356 478.918H48.9236C48.5396 478.918 48.1856 478.99 47.8616 479.134C47.5376 479.278 47.2556 479.476 47.0156 479.728C46.7756 479.98 46.5776 480.286 46.4216 480.646C46.2656 481.006 46.1516 481.402 46.0796 481.834L45.1796 487H43.5956ZM53.0864 487.216C52.4624 487.216 51.9164 487.09 51.4484 486.838C50.9924 486.586 50.6384 486.208 50.3864 485.704C50.1344 485.2 50.0084 484.558 50.0084 483.778C50.0084 483.538 50.0204 483.286 50.0444 483.022C50.0804 482.758 50.1224 482.476 50.1704 482.176C50.3624 481.048 50.6624 480.124 51.0704 479.404C51.4784 478.684 51.9764 478.156 52.5644 477.82C53.1644 477.484 53.8364 477.316 54.5804 477.316C55.0004 477.316 55.3784 477.37 55.7144 477.478C56.0624 477.574 56.3684 477.736 56.6324 477.964C56.8964 478.18 57.1064 478.456 57.2624 478.792H57.3704L57.8564 477.532H59.1524L58.7564 479.764C58.6844 480.172 58.6004 480.616 58.5044 481.096C58.4204 481.576 58.3364 482.056 58.2524 482.536C58.1684 483.004 58.0904 483.442 58.0184 483.85C57.9584 484.246 57.9044 484.588 57.8564 484.876C57.8204 485.152 57.8024 485.326 57.8024 485.398C57.8024 485.554 57.8444 485.674 57.9284 485.758C58.0124 485.83 58.1324 485.866 58.2884 485.866H59.0084L58.8284 486.91C58.7084 486.97 58.5464 487.03 58.3424 487.09C58.1504 487.162 57.9224 487.198 57.6584 487.198C57.3224 487.198 57.0524 487.126 56.8484 486.982C56.6444 486.826 56.5064 486.604 56.4344 486.316C56.4104 486.22 56.3924 486.112 56.3804 485.992C56.3684 485.872 56.3624 485.752 56.3624 485.632L56.2544 485.596C55.8584 486.148 55.3844 486.556 54.8324 486.82C54.2924 487.084 53.7104 487.216 53.0864 487.216ZM53.6624 485.83C53.9744 485.83 54.2864 485.776 54.5984 485.668C54.9104 485.548 55.2044 485.356 55.4804 485.092C55.7564 484.828 56.0024 484.48 56.2184 484.048C56.4344 483.604 56.5964 483.058 56.7044 482.41C56.7524 482.17 56.7824 481.96 56.7944 481.78C56.8184 481.588 56.8364 481.42 56.8484 481.276C56.8604 481.132 56.8664 481.006 56.8664 480.898C56.8664 480.418 56.7944 480.016 56.6504 479.692C56.5184 479.356 56.3024 479.11 56.0024 478.954C55.7144 478.786 55.3364 478.702 54.8684 478.702C54.3524 478.702 53.8964 478.81 53.5004 479.026C53.1044 479.242 52.7684 479.602 52.4924 480.106C52.2164 480.598 52.0004 481.258 51.8444 482.086C51.7964 482.362 51.7604 482.602 51.7364 482.806C51.7124 482.998 51.6944 483.172 51.6824 483.328C51.6704 483.472 51.6644 483.61 51.6644 483.742C51.6644 484.462 51.8264 484.99 52.1504 485.326C52.4864 485.662 52.9904 485.83 53.6624 485.83ZM63.9323 487.216C63.2723 487.216 62.7023 487.09 62.2223 486.838C61.7543 486.574 61.3943 486.184 61.1423 485.668C60.9023 485.152 60.7823 484.522 60.7823 483.778C60.7823 483.526 60.7943 483.256 60.8183 482.968C60.8423 482.68 60.8783 482.374 60.9263 482.05C61.0703 481.234 61.2743 480.532 61.5383 479.944C61.8143 479.344 62.1383 478.852 62.5103 478.468C62.8943 478.084 63.3203 477.796 63.7883 477.604C64.2563 477.412 64.7603 477.316 65.3003 477.316C65.7203 477.316 66.1043 477.364 66.4523 477.46C66.8123 477.556 67.1303 477.706 67.4063 477.91C67.6823 478.114 67.8923 478.384 68.0363 478.72H68.1623L68.9903 473.986H70.5743L68.2883 487H67.0283L67.0823 485.65H66.9563C66.5603 486.178 66.1043 486.574 65.5883 486.838C65.0723 487.09 64.5203 487.216 63.9323 487.216ZM64.3823 485.83C64.9463 485.83 65.4383 485.704 65.8583 485.452C66.2783 485.188 66.6263 484.804 66.9023 484.3C67.1783 483.796 67.3823 483.184 67.5143 482.464C67.5503 482.212 67.5803 481.996 67.6043 481.816C67.6283 481.636 67.6463 481.48 67.6583 481.348C67.6703 481.204 67.6763 481.072 67.6763 480.952C67.6763 480.376 67.5863 479.926 67.4063 479.602C67.2263 479.266 66.9863 479.032 66.6863 478.9C66.3863 478.768 66.0563 478.702 65.6963 478.702C65.1323 478.702 64.6403 478.816 64.2203 479.044C63.8123 479.272 63.4763 479.632 63.2123 480.124C62.9483 480.604 62.7443 481.228 62.6003 481.996C62.5523 482.284 62.5103 482.536 62.4743 482.752C62.4503 482.956 62.4323 483.136 62.4203 483.292C62.4203 483.436 62.4203 483.574 62.4203 483.706C62.4203 484.462 62.5883 485.008 62.9243 485.344C63.2603 485.668 63.7463 485.83 64.3823 485.83ZM73.2632 475.75L73.5692 473.986H75.1532L74.8472 475.75H73.2632ZM71.3192 487L72.9932 477.532H74.5772L72.9032 487H71.3192ZM78.1877 487.216C77.7677 487.216 77.4377 487.144 77.1977 487C76.9697 486.868 76.8017 486.694 76.6937 486.478C76.5977 486.262 76.5497 486.01 76.5497 485.722C76.5497 485.638 76.5557 485.554 76.5677 485.47C76.5797 485.374 76.5917 485.278 76.6037 485.182L77.7017 478.864H76.4777L76.7117 477.532H77.9537L78.7277 474.886H79.9697L79.5017 477.532H81.2837L81.0497 478.864H79.2857L78.2237 484.822C78.2117 484.894 78.1937 484.99 78.1697 485.11C78.1577 485.218 78.1517 485.29 78.1517 485.326C78.1517 485.506 78.2057 485.644 78.3137 485.74C78.4217 485.836 78.5897 485.884 78.8177 485.884H79.8257L79.6457 486.928C79.5137 486.988 79.3637 487.036 79.1957 487.072C79.0277 487.108 78.8537 487.138 78.6737 487.162C78.5057 487.198 78.3437 487.216 78.1877 487.216ZM83.7475 475.75L84.0535 473.986H85.6375L85.3315 475.75H83.7475ZM81.8035 487L83.4775 477.532H85.0615L83.3875 487H81.8035ZM90.4 487.216C89.572 487.216 88.876 487.09 88.312 486.838C87.748 486.574 87.316 486.184 87.016 485.668C86.728 485.14 86.584 484.474 86.584 483.67C86.584 483.43 86.596 483.184 86.62 482.932C86.656 482.668 86.698 482.398 86.746 482.122C86.938 481.006 87.256 480.1 87.7 479.404C88.144 478.696 88.708 478.174 89.392 477.838C90.088 477.49 90.898 477.316 91.822 477.316C92.662 477.316 93.364 477.448 93.928 477.712C94.492 477.964 94.918 478.354 95.206 478.882C95.494 479.41 95.638 480.082 95.638 480.898C95.638 481.126 95.626 481.366 95.602 481.618C95.578 481.87 95.542 482.134 95.494 482.41C95.302 483.514 94.984 484.42 94.54 485.128C94.096 485.836 93.532 486.364 92.848 486.712C92.164 487.048 91.348 487.216 90.4 487.216ZM90.472 485.884C91.072 485.884 91.594 485.764 92.038 485.524C92.494 485.284 92.866 484.912 93.154 484.408C93.454 483.892 93.67 483.244 93.802 482.464C93.85 482.188 93.886 481.96 93.91 481.78C93.934 481.588 93.952 481.426 93.964 481.294C93.976 481.15 93.982 481.018 93.982 480.898C93.982 480.382 93.898 479.962 93.73 479.638C93.562 479.302 93.31 479.056 92.974 478.9C92.65 478.732 92.236 478.648 91.732 478.648C91.132 478.648 90.61 478.774 90.166 479.026C89.722 479.266 89.356 479.638 89.068 480.142C88.78 480.634 88.564 481.276 88.42 482.068C88.372 482.344 88.33 482.578 88.294 482.77C88.27 482.962 88.252 483.124 88.24 483.256C88.228 483.388 88.222 483.514 88.222 483.634C88.222 484.162 88.306 484.588 88.474 484.912C88.642 485.236 88.894 485.482 89.23 485.65C89.566 485.806 89.98 485.884 90.472 485.884ZM97.2096 487L98.8656 477.532H100.108L100.018 478.954H100.144C100.456 478.582 100.792 478.276 101.152 478.036C101.524 477.784 101.908 477.604 102.304 477.496C102.7 477.376 103.102 477.316 103.51 477.316C104.026 477.316 104.482 477.394 104.878 477.55C105.274 477.706 105.586 477.952 105.814 478.288C106.042 478.624 106.156 479.074 106.156 479.638C106.156 479.806 106.144 479.986 106.12 480.178C106.108 480.37 106.084 480.568 106.048 480.772L104.95 487H103.366L104.446 480.862C104.47 480.706 104.488 480.562 104.5 480.43C104.524 480.286 104.536 480.16 104.536 480.052C104.536 479.704 104.464 479.434 104.32 479.242C104.188 479.05 104.002 478.918 103.762 478.846C103.522 478.762 103.24 478.72 102.916 478.72C102.568 478.72 102.22 478.786 101.872 478.918C101.536 479.038 101.218 479.224 100.918 479.476C100.63 479.728 100.378 480.046 100.162 480.43C99.9456 480.814 99.7956 481.252 99.7116 481.744L98.7936 487H97.2096ZM111.042 487.216C110.418 487.216 109.872 487.09 109.404 486.838C108.948 486.586 108.594 486.208 108.342 485.704C108.09 485.2 107.964 484.558 107.964 483.778C107.964 483.538 107.976 483.286 108 483.022C108.036 482.758 108.078 482.476 108.126 482.176C108.318 481.048 108.618 480.124 109.026 479.404C109.434 478.684 109.932 478.156 110.52 477.82C111.12 477.484 111.792 477.316 112.536 477.316C112.956 477.316 113.334 477.37 113.67 477.478C114.018 477.574 114.324 477.736 114.588 477.964C114.852 478.18 115.062 478.456 115.218 478.792H115.326L115.812 477.532H117.108L116.712 479.764C116.64 480.172 116.556 480.616 116.46 481.096C116.376 481.576 116.292 482.056 116.208 482.536C116.124 483.004 116.046 483.442 115.974 483.85C115.914 484.246 115.86 484.588 115.812 484.876C115.776 485.152 115.758 485.326 115.758 485.398C115.758 485.554 115.8 485.674 115.884 485.758C115.968 485.83 116.088 485.866 116.244 485.866H116.964L116.784 486.91C116.664 486.97 116.502 487.03 116.298 487.09C116.106 487.162 115.878 487.198 115.614 487.198C115.278 487.198 115.008 487.126 114.804 486.982C114.6 486.826 114.462 486.604 114.39 486.316C114.366 486.22 114.348 486.112 114.336 485.992C114.324 485.872 114.318 485.752 114.318 485.632L114.21 485.596C113.814 486.148 113.34 486.556 112.788 486.82C112.248 487.084 111.666 487.216 111.042 487.216ZM111.618 485.83C111.93 485.83 112.242 485.776 112.554 485.668C112.866 485.548 113.16 485.356 113.436 485.092C113.712 484.828 113.958 484.48 114.174 484.048C114.39 483.604 114.552 483.058 114.66 482.41C114.708 482.17 114.738 481.96 114.75 481.78C114.774 481.588 114.792 481.42 114.804 481.276C114.816 481.132 114.822 481.006 114.822 480.898C114.822 480.418 114.75 480.016 114.606 479.692C114.474 479.356 114.258 479.11 113.958 478.954C113.67 478.786 113.292 478.702 112.824 478.702C112.308 478.702 111.852 478.81 111.456 479.026C111.06 479.242 110.724 479.602 110.448 480.106C110.172 480.598 109.956 481.258 109.8 482.086C109.752 482.362 109.716 482.602 109.692 482.806C109.668 482.998 109.65 483.172 109.638 483.328C109.626 483.472 109.62 483.61 109.62 483.742C109.62 484.462 109.782 484.99 110.106 485.326C110.442 485.662 110.946 485.83 111.618 485.83ZM118.522 487L120.808 473.986H122.392L120.106 487H118.522ZM129.963 487L128.577 474.652H130.251L131.133 482.986C131.145 483.118 131.163 483.31 131.187 483.562C131.211 483.802 131.235 484.054 131.259 484.318C131.283 484.582 131.301 484.822 131.313 485.038H131.439C131.523 484.822 131.607 484.582 131.691 484.318C131.787 484.042 131.877 483.784 131.961 483.544C132.057 483.304 132.129 483.118 132.177 482.986L135.525 474.652H137.739L138.459 482.986C138.471 483.118 138.483 483.31 138.495 483.562C138.507 483.802 138.519 484.054 138.531 484.318C138.555 484.582 138.573 484.822 138.585 485.038H138.711C138.783 484.822 138.867 484.588 138.963 484.336C139.071 484.072 139.167 483.82 139.251 483.58C139.347 483.328 139.431 483.13 139.503 482.986L143.049 474.652H144.741L139.323 487H137.217L136.479 478.612C136.467 478.432 136.455 478.222 136.443 477.982C136.431 477.73 136.419 477.472 136.407 477.208C136.395 476.944 136.389 476.716 136.389 476.524H136.263C136.203 476.728 136.125 476.962 136.029 477.226C135.933 477.49 135.837 477.748 135.741 478C135.657 478.252 135.585 478.456 135.525 478.612L132.087 487H129.963ZM147.817 487.216C146.965 487.216 146.251 487.09 145.675 486.838C145.111 486.574 144.685 486.178 144.397 485.65C144.121 485.11 143.983 484.45 143.983 483.67C143.983 483.346 144.001 483.022 144.037 482.698C144.073 482.362 144.121 482.044 144.181 481.744C144.361 480.892 144.643 480.136 145.027 479.476C145.411 478.804 145.927 478.276 146.575 477.892C147.235 477.508 148.051 477.316 149.023 477.316C149.839 477.316 150.511 477.454 151.039 477.73C151.579 477.994 151.975 478.378 152.227 478.882C152.491 479.386 152.623 480.004 152.623 480.736C152.623 481.012 152.599 481.318 152.551 481.654C152.515 481.99 152.455 482.326 152.371 482.662H145.693C145.669 482.842 145.645 483.016 145.621 483.184C145.609 483.34 145.603 483.49 145.603 483.634C145.603 484.162 145.681 484.594 145.837 484.93C146.005 485.266 146.257 485.512 146.593 485.668C146.929 485.824 147.343 485.902 147.835 485.902C148.147 485.902 148.447 485.866 148.735 485.794C149.023 485.71 149.287 485.584 149.527 485.416C149.767 485.248 149.977 485.032 150.157 484.768C150.337 484.492 150.475 484.162 150.571 483.778H152.119C151.999 484.354 151.807 484.858 151.543 485.29C151.279 485.722 150.961 486.082 150.589 486.37C150.217 486.646 149.791 486.856 149.311 487C148.843 487.144 148.345 487.216 147.817 487.216ZM145.909 481.474H150.949C150.985 481.306 151.009 481.15 151.021 481.006C151.033 480.862 151.039 480.724 151.039 480.592C151.039 480.148 150.961 479.782 150.805 479.494C150.661 479.206 150.439 478.99 150.139 478.846C149.839 478.69 149.461 478.612 149.005 478.612C148.477 478.612 148.009 478.726 147.601 478.954C147.193 479.17 146.845 479.488 146.557 479.908C146.281 480.328 146.065 480.85 145.909 481.474ZM158.776 487.216C158.104 487.216 157.522 487.09 157.03 486.838C156.55 486.586 156.19 486.19 155.95 485.65H155.824L155.428 487H154.168L156.454 473.986H158.038L157.21 478.72H157.318C157.582 478.384 157.87 478.114 158.182 477.91C158.494 477.706 158.83 477.556 159.19 477.46C159.55 477.364 159.91 477.316 160.27 477.316C160.906 477.316 161.452 477.442 161.908 477.694C162.376 477.946 162.736 478.324 162.988 478.828C163.24 479.332 163.366 479.974 163.366 480.754C163.366 480.982 163.354 481.228 163.33 481.492C163.306 481.756 163.264 482.038 163.204 482.338C163.012 483.478 162.712 484.408 162.304 485.128C161.896 485.836 161.392 486.364 160.792 486.712C160.204 487.048 159.532 487.216 158.776 487.216ZM158.47 485.83C158.998 485.83 159.46 485.722 159.856 485.506C160.264 485.29 160.606 484.936 160.882 484.444C161.17 483.94 161.386 483.274 161.53 482.446C161.578 482.158 161.614 481.918 161.638 481.726C161.674 481.522 161.698 481.348 161.71 481.204C161.722 481.048 161.728 480.91 161.728 480.79C161.728 480.31 161.65 479.92 161.494 479.62C161.35 479.308 161.122 479.08 160.81 478.936C160.51 478.78 160.132 478.702 159.676 478.702C159.364 478.702 159.046 478.756 158.722 478.864C158.41 478.972 158.116 479.158 157.84 479.422C157.564 479.686 157.312 480.04 157.084 480.484C156.868 480.916 156.706 481.462 156.598 482.122C156.562 482.362 156.532 482.578 156.508 482.77C156.484 482.95 156.466 483.112 156.454 483.256C156.442 483.388 156.436 483.514 156.436 483.634C156.436 484.114 156.508 484.522 156.652 484.858C156.796 485.182 157.018 485.428 157.318 485.596C157.618 485.752 158.002 485.83 158.47 485.83ZM168.251 487L175.199 474.652H177.359L179.987 487H178.241L177.611 483.904H171.779L170.069 487H168.251ZM172.607 482.428H177.287L176.513 478.594C176.489 478.414 176.453 478.222 176.405 478.018C176.369 477.802 176.327 477.586 176.279 477.37C176.231 477.142 176.189 476.926 176.153 476.722C176.129 476.518 176.105 476.338 176.081 476.182H175.973C175.853 476.422 175.709 476.698 175.541 477.01C175.385 477.322 175.229 477.622 175.073 477.91C174.929 478.198 174.809 478.432 174.713 478.612L172.607 482.428ZM182.033 487L183.689 477.532H184.931L184.841 479.062H184.931C185.075 478.798 185.255 478.534 185.471 478.27C185.687 477.994 185.951 477.766 186.263 477.586C186.575 477.406 186.947 477.316 187.379 477.316C187.571 477.316 187.739 477.334 187.883 477.37C188.039 477.394 188.153 477.424 188.225 477.46L187.973 478.918H187.361C186.977 478.918 186.623 478.99 186.299 479.134C185.975 479.278 185.693 479.476 185.453 479.728C185.213 479.98 185.015 480.286 184.859 480.646C184.703 481.006 184.589 481.402 184.517 481.834L183.617 487H182.033ZM192.297 487.216C191.481 487.216 190.797 487.09 190.245 486.838C189.693 486.586 189.279 486.196 189.003 485.668C188.727 485.14 188.589 484.474 188.589 483.67C188.589 483.358 188.601 483.046 188.625 482.734C188.661 482.41 188.715 482.092 188.787 481.78C188.931 481.096 189.129 480.484 189.381 479.944C189.633 479.392 189.951 478.924 190.335 478.54C190.719 478.144 191.169 477.844 191.685 477.64C192.213 477.424 192.813 477.316 193.485 477.316C194.277 477.316 194.925 477.43 195.429 477.658C195.933 477.874 196.311 478.186 196.563 478.594C196.815 479.002 196.941 479.5 196.941 480.088C196.941 480.232 196.935 480.388 196.923 480.556C196.911 480.712 196.887 480.874 196.851 481.042H195.267C195.291 480.91 195.309 480.784 195.321 480.664C195.333 480.532 195.339 480.406 195.339 480.286C195.339 479.926 195.273 479.626 195.141 479.386C195.021 479.134 194.823 478.948 194.547 478.828C194.283 478.696 193.935 478.63 193.503 478.63C192.987 478.63 192.519 478.756 192.099 479.008C191.679 479.248 191.325 479.62 191.037 480.124C190.749 480.616 190.533 481.252 190.389 482.032C190.341 482.296 190.305 482.524 190.281 482.716C190.257 482.908 190.239 483.082 190.227 483.238C190.215 483.382 190.209 483.514 190.209 483.634C190.209 484.162 190.287 484.594 190.443 484.93C190.611 485.254 190.845 485.494 191.145 485.65C191.457 485.806 191.829 485.884 192.261 485.884C192.801 485.884 193.245 485.788 193.593 485.596C193.953 485.404 194.241 485.128 194.457 484.768C194.673 484.396 194.823 483.97 194.907 483.49H196.419C196.311 484.222 196.089 484.87 195.753 485.434C195.429 485.986 194.979 486.424 194.403 486.748C193.839 487.06 193.137 487.216 192.297 487.216ZM198.247 487L200.533 473.986H202.117L201.289 478.72H201.397C201.685 478.408 201.991 478.15 202.315 477.946C202.651 477.73 203.005 477.574 203.377 477.478C203.761 477.37 204.151 477.316 204.547 477.316C205.063 477.316 205.519 477.394 205.915 477.55C206.311 477.706 206.623 477.952 206.851 478.288C207.079 478.624 207.193 479.074 207.193 479.638C207.193 479.806 207.181 479.986 207.157 480.178C207.145 480.37 207.121 480.568 207.085 480.772L205.987 487H204.403L205.483 480.862C205.507 480.718 205.525 480.58 205.537 480.448C205.561 480.304 205.573 480.172 205.573 480.052C205.573 479.704 205.501 479.434 205.357 479.242C205.225 479.05 205.039 478.918 204.799 478.846C204.559 478.762 204.277 478.72 203.953 478.72C203.605 478.72 203.257 478.786 202.909 478.918C202.561 479.038 202.237 479.224 201.937 479.476C201.649 479.728 201.397 480.046 201.181 480.43C200.977 480.814 200.833 481.252 200.749 481.744L199.831 487H198.247ZM210.874 475.75L211.18 473.986H212.764L212.458 475.75H210.874ZM208.93 487L210.604 477.532H212.188L210.514 487H208.93ZM215.798 487.216C215.378 487.216 215.048 487.144 214.808 487C214.58 486.868 214.412 486.694 214.304 486.478C214.208 486.262 214.16 486.01 214.16 485.722C214.16 485.638 214.166 485.554 214.178 485.47C214.19 485.374 214.202 485.278 214.214 485.182L215.312 478.864H214.088L214.322 477.532H215.564L216.338 474.886H217.58L217.112 477.532H218.894L218.66 478.864H216.896L215.834 484.822C215.822 484.894 215.804 484.99 215.78 485.11C215.768 485.218 215.762 485.29 215.762 485.326C215.762 485.506 215.816 485.644 215.924 485.74C216.032 485.836 216.2 485.884 216.428 485.884H217.436L217.256 486.928C217.124 486.988 216.974 487.036 216.806 487.072C216.638 487.108 216.464 487.138 216.284 487.162C216.116 487.198 215.954 487.216 215.798 487.216ZM223.464 487.216C222.612 487.216 221.898 487.09 221.322 486.838C220.758 486.574 220.332 486.178 220.044 485.65C219.768 485.11 219.63 484.45 219.63 483.67C219.63 483.346 219.648 483.022 219.684 482.698C219.72 482.362 219.768 482.044 219.828 481.744C220.008 480.892 220.29 480.136 220.674 479.476C221.058 478.804 221.574 478.276 222.222 477.892C222.882 477.508 223.698 477.316 224.67 477.316C225.486 477.316 226.158 477.454 226.686 477.73C227.226 477.994 227.622 478.378 227.874 478.882C228.138 479.386 228.27 480.004 228.27 480.736C228.27 481.012 228.246 481.318 228.198 481.654C228.162 481.99 228.102 482.326 228.018 482.662H221.34C221.316 482.842 221.292 483.016 221.268 483.184C221.256 483.34 221.25 483.49 221.25 483.634C221.25 484.162 221.328 484.594 221.484 484.93C221.652 485.266 221.904 485.512 222.24 485.668C222.576 485.824 222.99 485.902 223.482 485.902C223.794 485.902 224.094 485.866 224.382 485.794C224.67 485.71 224.934 485.584 225.174 485.416C225.414 485.248 225.624 485.032 225.804 484.768C225.984 484.492 226.122 484.162 226.218 483.778H227.766C227.646 484.354 227.454 484.858 227.19 485.29C226.926 485.722 226.608 486.082 226.236 486.37C225.864 486.646 225.438 486.856 224.958 487C224.49 487.144 223.992 487.216 223.464 487.216ZM221.556 481.474H226.596C226.632 481.306 226.656 481.15 226.668 481.006C226.68 480.862 226.686 480.724 226.686 480.592C226.686 480.148 226.608 479.782 226.452 479.494C226.308 479.206 226.086 478.99 225.786 478.846C225.486 478.69 225.108 478.612 224.652 478.612C224.124 478.612 223.656 478.726 223.248 478.954C222.84 479.17 222.492 479.488 222.204 479.908C221.928 480.328 221.712 480.85 221.556 481.474ZM233.739 487.216C232.923 487.216 232.239 487.09 231.687 486.838C231.135 486.586 230.721 486.196 230.445 485.668C230.169 485.14 230.031 484.474 230.031 483.67C230.031 483.358 230.043 483.046 230.067 482.734C230.103 482.41 230.157 482.092 230.229 481.78C230.373 481.096 230.571 480.484 230.823 479.944C231.075 479.392 231.393 478.924 231.777 478.54C232.161 478.144 232.611 477.844 233.127 477.64C233.655 477.424 234.255 477.316 234.927 477.316C235.719 477.316 236.367 477.43 236.871 477.658C237.375 477.874 237.753 478.186 238.005 478.594C238.257 479.002 238.383 479.5 238.383 480.088C238.383 480.232 238.377 480.388 238.365 480.556C238.353 480.712 238.329 480.874 238.293 481.042H236.709C236.733 480.91 236.751 480.784 236.763 480.664C236.775 480.532 236.781 480.406 236.781 480.286C236.781 479.926 236.715 479.626 236.583 479.386C236.463 479.134 236.265 478.948 235.989 478.828C235.725 478.696 235.377 478.63 234.945 478.63C234.429 478.63 233.961 478.756 233.541 479.008C233.121 479.248 232.767 479.62 232.479 480.124C232.191 480.616 231.975 481.252 231.831 482.032C231.783 482.296 231.747 482.524 231.723 482.716C231.699 482.908 231.681 483.082 231.669 483.238C231.657 483.382 231.651 483.514 231.651 483.634C231.651 484.162 231.729 484.594 231.885 484.93C232.053 485.254 232.287 485.494 232.587 485.65C232.899 485.806 233.271 485.884 233.703 485.884C234.243 485.884 234.687 485.788 235.035 485.596C235.395 485.404 235.683 485.128 235.899 484.768C236.115 484.396 236.265 483.97 236.349 483.49H237.861C237.753 484.222 237.531 484.87 237.195 485.434C236.871 485.986 236.421 486.424 235.845 486.748C235.281 487.06 234.579 487.216 233.739 487.216ZM241.957 487.216C241.537 487.216 241.207 487.144 240.967 487C240.739 486.868 240.571 486.694 240.463 486.478C240.367 486.262 240.319 486.01 240.319 485.722C240.319 485.638 240.325 485.554 240.337 485.47C240.349 485.374 240.361 485.278 240.373 485.182L241.471 478.864H240.247L240.481 477.532H241.723L242.497 474.886H243.739L243.271 477.532H245.053L244.819 478.864H243.055L241.993 484.822C241.981 484.894 241.963 484.99 241.939 485.11C241.927 485.218 241.921 485.29 241.921 485.326C241.921 485.506 241.975 485.644 242.083 485.74C242.191 485.836 242.359 485.884 242.587 485.884H243.595L243.415 486.928C243.283 486.988 243.133 487.036 242.965 487.072C242.797 487.108 242.623 487.138 242.443 487.162C242.275 487.198 242.113 487.216 241.957 487.216ZM248.561 487.216C248.057 487.216 247.601 487.138 247.193 486.982C246.785 486.826 246.467 486.58 246.239 486.244C246.011 485.908 245.897 485.458 245.897 484.894C245.897 484.714 245.909 484.534 245.933 484.354C245.957 484.162 245.987 483.964 246.023 483.76L247.121 477.532H248.705L247.625 483.688C247.613 483.832 247.595 483.97 247.571 484.102C247.547 484.234 247.535 484.36 247.535 484.48C247.535 484.828 247.601 485.104 247.733 485.308C247.877 485.5 248.069 485.632 248.309 485.704C248.561 485.776 248.843 485.812 249.155 485.812C249.515 485.812 249.863 485.752 250.199 485.632C250.535 485.512 250.847 485.332 251.135 485.092C251.423 484.84 251.675 484.528 251.891 484.156C252.107 483.784 252.257 483.352 252.341 482.86L253.277 477.532H254.879L253.205 487H251.945L252.035 485.578H251.927C251.627 485.95 251.291 486.262 250.919 486.514C250.559 486.754 250.181 486.928 249.785 487.036C249.389 487.156 248.981 487.216 248.561 487.216ZM256.221 487L257.877 477.532H259.119L259.029 479.062H259.119C259.263 478.798 259.443 478.534 259.659 478.27C259.875 477.994 260.139 477.766 260.451 477.586C260.763 477.406 261.135 477.316 261.567 477.316C261.759 477.316 261.927 477.334 262.071 477.37C262.227 477.394 262.341 477.424 262.413 477.46L262.161 478.918H261.549C261.165 478.918 260.811 478.99 260.487 479.134C260.163 479.278 259.881 479.476 259.641 479.728C259.401 479.98 259.203 480.286 259.047 480.646C258.891 481.006 258.777 481.402 258.705 481.834L257.805 487H256.221ZM266.611 487.216C265.759 487.216 265.045 487.09 264.469 486.838C263.905 486.574 263.479 486.178 263.191 485.65C262.915 485.11 262.777 484.45 262.777 483.67C262.777 483.346 262.795 483.022 262.831 482.698C262.867 482.362 262.915 482.044 262.975 481.744C263.155 480.892 263.437 480.136 263.821 479.476C264.205 478.804 264.721 478.276 265.369 477.892C266.029 477.508 266.845 477.316 267.817 477.316C268.633 477.316 269.305 477.454 269.833 477.73C270.373 477.994 270.769 478.378 271.021 478.882C271.285 479.386 271.417 480.004 271.417 480.736C271.417 481.012 271.393 481.318 271.345 481.654C271.309 481.99 271.249 482.326 271.165 482.662H264.487C264.463 482.842 264.439 483.016 264.415 483.184C264.403 483.34 264.397 483.49 264.397 483.634C264.397 484.162 264.475 484.594 264.631 484.93C264.799 485.266 265.051 485.512 265.387 485.668C265.723 485.824 266.137 485.902 266.629 485.902C266.941 485.902 267.241 485.866 267.529 485.794C267.817 485.71 268.081 485.584 268.321 485.416C268.561 485.248 268.771 485.032 268.951 484.768C269.131 484.492 269.269 484.162 269.365 483.778H270.913C270.793 484.354 270.601 484.858 270.337 485.29C270.073 485.722 269.755 486.082 269.383 486.37C269.011 486.646 268.585 486.856 268.105 487C267.637 487.144 267.139 487.216 266.611 487.216ZM264.703 481.474H269.743C269.779 481.306 269.803 481.15 269.815 481.006C269.827 480.862 269.833 480.724 269.833 480.592C269.833 480.148 269.755 479.782 269.599 479.494C269.455 479.206 269.233 478.99 268.933 478.846C268.633 478.69 268.255 478.612 267.799 478.612C267.271 478.612 266.803 478.726 266.395 478.954C265.987 479.17 265.639 479.488 265.351 479.908C265.075 480.328 264.859 480.85 264.703 481.474Z" fill="#415056"/>
<path d="M162 360H305V430H162V360Z" fill="#FFF7F7"/>
<path d="M219.296 401.216C218.012 401.216 216.914 400.994 216.002 400.55C215.09 400.094 214.394 399.392 213.914 398.444C213.446 397.496 213.212 396.29 213.212 394.826C213.212 392.666 213.74 391.064 214.796 390.02C215.864 388.964 217.364 388.436 219.296 388.436C220.352 388.436 221.3 388.616 222.14 388.976C222.98 389.336 223.64 389.876 224.12 390.596C224.612 391.316 224.858 392.222 224.858 393.314H222.158C222.158 392.738 222.038 392.252 221.798 391.856C221.57 391.46 221.24 391.16 220.808 390.956C220.388 390.74 219.896 390.632 219.332 390.632C218.564 390.632 217.928 390.782 217.424 391.082C216.932 391.382 216.566 391.826 216.326 392.414C216.098 392.99 215.984 393.698 215.984 394.538V395.096C215.984 395.96 216.104 396.686 216.344 397.274C216.584 397.85 216.944 398.288 217.424 398.588C217.916 398.876 218.546 399.02 219.314 399.02C219.914 399.02 220.436 398.918 220.88 398.714C221.324 398.51 221.666 398.21 221.906 397.814C222.146 397.418 222.266 396.932 222.266 396.356H224.858C224.858 397.448 224.618 398.354 224.138 399.074C223.67 399.794 223.016 400.334 222.176 400.694C221.336 401.042 220.376 401.216 219.296 401.216ZM227.512 401V388.652H231.598L233.362 394.97C233.434 395.198 233.506 395.468 233.578 395.78C233.65 396.092 233.722 396.404 233.794 396.716C233.878 397.016 233.944 397.286 233.992 397.526H234.136C234.16 397.322 234.202 397.082 234.262 396.806C234.322 396.518 234.388 396.212 234.46 395.888C234.532 395.564 234.61 395.252 234.694 394.952L236.458 388.652H240.472V401H237.826V395.15C237.826 394.61 237.826 394.07 237.826 393.53C237.838 392.978 237.85 392.498 237.862 392.09C237.886 391.682 237.898 391.418 237.898 391.298H237.754C237.73 391.43 237.67 391.676 237.574 392.036C237.49 392.384 237.394 392.756 237.286 393.152C237.19 393.548 237.1 393.89 237.016 394.178L235.09 401H232.75L230.806 394.196C230.734 393.944 230.65 393.65 230.554 393.314C230.47 392.966 230.386 392.612 230.302 392.252C230.23 391.88 230.158 391.562 230.086 391.298H229.942C229.954 391.622 229.966 392.012 229.978 392.468C229.99 392.912 230.002 393.374 230.014 393.854C230.026 394.322 230.032 394.754 230.032 395.15V401H227.512ZM248.555 401.216C247.835 401.216 247.151 401.144 246.503 401C245.855 400.856 245.279 400.628 244.775 400.316C244.283 399.992 243.893 399.59 243.605 399.11C243.329 398.618 243.191 398.024 243.191 397.328C243.191 397.268 243.191 397.208 243.191 397.148C243.191 397.076 243.197 397.022 243.209 396.986H245.873C245.861 397.022 245.855 397.07 245.855 397.13C245.855 397.19 245.855 397.244 245.855 397.292C245.855 397.676 245.957 398 246.161 398.264C246.377 398.528 246.689 398.726 247.097 398.858C247.505 398.99 247.979 399.056 248.519 399.056C248.867 399.056 249.173 399.038 249.437 399.002C249.713 398.954 249.953 398.894 250.157 398.822C250.373 398.738 250.547 398.642 250.679 398.534C250.823 398.426 250.925 398.3 250.985 398.156C251.057 398.012 251.093 397.85 251.093 397.67C251.093 397.346 250.985 397.082 250.769 396.878C250.565 396.674 250.277 396.5 249.905 396.356C249.545 396.212 249.137 396.08 248.681 395.96C248.225 395.84 247.757 395.72 247.277 395.6C246.797 395.468 246.329 395.312 245.873 395.132C245.417 394.94 245.009 394.712 244.649 394.448C244.289 394.184 244.001 393.848 243.785 393.44C243.569 393.032 243.461 392.54 243.461 391.964C243.461 391.352 243.587 390.824 243.839 390.38C244.103 389.936 244.469 389.57 244.937 389.282C245.405 388.994 245.945 388.784 246.557 388.652C247.169 388.508 247.835 388.436 248.555 388.436C249.227 388.436 249.863 388.508 250.463 388.652C251.063 388.784 251.591 389 252.047 389.3C252.503 389.6 252.857 389.978 253.109 390.434C253.373 390.89 253.505 391.43 253.505 392.054V392.27H250.895V392.126C250.895 391.802 250.799 391.526 250.607 391.298C250.415 391.07 250.145 390.89 249.797 390.758C249.449 390.626 249.041 390.56 248.573 390.56C248.069 390.56 247.637 390.608 247.277 390.704C246.929 390.8 246.659 390.944 246.467 391.136C246.287 391.316 246.197 391.532 246.197 391.784C246.197 392.072 246.299 392.312 246.503 392.504C246.719 392.684 247.007 392.846 247.367 392.99C247.739 393.122 248.153 393.242 248.609 393.35C249.065 393.458 249.533 393.578 250.013 393.71C250.493 393.842 250.961 393.998 251.417 394.178C251.873 394.358 252.281 394.586 252.641 394.862C253.001 395.126 253.289 395.456 253.505 395.852C253.721 396.248 253.829 396.722 253.829 397.274C253.829 398.222 253.601 398.984 253.145 399.56C252.689 400.136 252.065 400.556 251.273 400.82C250.481 401.084 249.575 401.216 248.555 401.216Z" fill="#202F38"/>
<path d="M234 310L225.34 325L242.66 325L234 310ZM234 360L242.66 345L225.34 345L234 360ZM232.5 323.5L232.5 346.5L235.5 346.5L235.5 323.5L232.5 323.5Z" fill="#415056"/>
<path d="M0 360H143V430H0V360Z" fill="#FFF7F7"/>
<path d="M29.854 401V388.652H34.894C36.178 388.652 37.27 388.874 38.17 389.318C39.07 389.762 39.76 390.44 40.24 391.352C40.732 392.252 40.978 393.41 40.978 394.826C40.978 396.23 40.732 397.388 40.24 398.3C39.76 399.212 39.07 399.89 38.17 400.334C37.27 400.778 36.178 401 34.894 401H29.854ZM32.536 398.786H34.876C35.416 398.786 35.896 398.708 36.316 398.552C36.736 398.396 37.084 398.168 37.36 397.868C37.636 397.556 37.846 397.172 37.99 396.716C38.134 396.248 38.206 395.708 38.206 395.096V394.556C38.206 393.944 38.134 393.41 37.99 392.954C37.846 392.486 37.636 392.102 37.36 391.802C37.084 391.49 36.736 391.256 36.316 391.1C35.896 390.932 35.416 390.848 34.876 390.848H32.536V398.786ZM45.9866 401.216C45.6746 401.216 45.3386 401.18 44.9786 401.108C44.6306 401.036 44.3006 400.91 43.9886 400.73C43.6766 400.538 43.4186 400.268 43.2146 399.92C43.0226 399.56 42.9266 399.104 42.9266 398.552C42.9266 397.892 43.0706 397.346 43.3586 396.914C43.6466 396.482 44.0546 396.146 44.5826 395.906C45.1226 395.654 45.7646 395.48 46.5086 395.384C47.2526 395.288 48.0746 395.24 48.9746 395.24V394.538C48.9746 394.262 48.9266 394.022 48.8306 393.818C48.7466 393.614 48.5906 393.452 48.3626 393.332C48.1466 393.212 47.8406 393.152 47.4446 393.152C47.0486 393.152 46.7246 393.2 46.4726 393.296C46.2326 393.392 46.0586 393.518 45.9506 393.674C45.8546 393.818 45.8066 393.98 45.8066 394.16V394.376H43.3766C43.3646 394.316 43.3586 394.262 43.3586 394.214C43.3586 394.154 43.3586 394.082 43.3586 393.998C43.3586 393.446 43.5266 392.972 43.8626 392.576C44.1986 392.168 44.6726 391.856 45.2846 391.64C45.8966 391.424 46.6106 391.316 47.4266 391.316C48.3026 391.316 49.0346 391.43 49.6226 391.658C50.2226 391.886 50.6786 392.222 50.9906 392.666C51.3146 393.11 51.4766 393.668 51.4766 394.34V398.642C51.4766 398.858 51.5366 399.02 51.6566 399.128C51.7886 399.224 51.9326 399.272 52.0886 399.272H52.6826V400.91C52.5626 400.97 52.3766 401.03 52.1246 401.09C51.8726 401.162 51.5666 401.198 51.2066 401.198C50.8586 401.198 50.5466 401.144 50.2706 401.036C50.0066 400.94 49.7846 400.802 49.6046 400.622C49.4246 400.43 49.2986 400.202 49.2266 399.938H49.1006C48.8966 400.19 48.6446 400.412 48.3446 400.604C48.0566 400.796 47.7146 400.946 47.3186 401.054C46.9346 401.162 46.4906 401.216 45.9866 401.216ZM46.8326 399.326C47.1686 399.326 47.4686 399.278 47.7326 399.182C47.9966 399.074 48.2186 398.936 48.3986 398.768C48.5786 398.588 48.7166 398.372 48.8126 398.12C48.9206 397.868 48.9746 397.598 48.9746 397.31V396.788C48.3026 396.788 47.7026 396.836 47.1746 396.932C46.6466 397.016 46.2266 397.166 45.9146 397.382C45.6146 397.598 45.4646 397.898 45.4646 398.282C45.4646 398.498 45.5186 398.684 45.6266 398.84C45.7346 398.996 45.8906 399.116 46.0946 399.2C46.2986 399.284 46.5446 399.326 46.8326 399.326ZM57.292 401.216C56.692 401.216 56.206 401.108 55.834 400.892C55.462 400.676 55.192 400.388 55.024 400.028C54.856 399.656 54.772 399.248 54.772 398.804V393.458H53.602V391.532H54.862L55.33 388.832H57.274V391.532H59.002V393.458H57.274V398.39C57.274 398.678 57.34 398.9 57.472 399.056C57.604 399.2 57.82 399.272 58.12 399.272H59.002V400.928C58.858 400.976 58.69 401.018 58.498 401.054C58.306 401.102 58.102 401.138 57.886 401.162C57.67 401.198 57.472 401.216 57.292 401.216ZM63.6604 401.216C63.3484 401.216 63.0124 401.18 62.6524 401.108C62.3044 401.036 61.9744 400.91 61.6624 400.73C61.3504 400.538 61.0924 400.268 60.8884 399.92C60.6964 399.56 60.6004 399.104 60.6004 398.552C60.6004 397.892 60.7444 397.346 61.0324 396.914C61.3204 396.482 61.7284 396.146 62.2564 395.906C62.7964 395.654 63.4384 395.48 64.1824 395.384C64.9264 395.288 65.7484 395.24 66.6484 395.24V394.538C66.6484 394.262 66.6004 394.022 66.5044 393.818C66.4204 393.614 66.2644 393.452 66.0364 393.332C65.8204 393.212 65.5144 393.152 65.1184 393.152C64.7224 393.152 64.3984 393.2 64.1464 393.296C63.9064 393.392 63.7324 393.518 63.6244 393.674C63.5284 393.818 63.4804 393.98 63.4804 394.16V394.376H61.0504C61.0384 394.316 61.0324 394.262 61.0324 394.214C61.0324 394.154 61.0324 394.082 61.0324 393.998C61.0324 393.446 61.2004 392.972 61.5364 392.576C61.8724 392.168 62.3464 391.856 62.9584 391.64C63.5704 391.424 64.2844 391.316 65.1004 391.316C65.9764 391.316 66.7084 391.43 67.2964 391.658C67.8964 391.886 68.3524 392.222 68.6644 392.666C68.9884 393.11 69.1504 393.668 69.1504 394.34V398.642C69.1504 398.858 69.2104 399.02 69.3304 399.128C69.4624 399.224 69.6064 399.272 69.7624 399.272H70.3564V400.91C70.2364 400.97 70.0504 401.03 69.7984 401.09C69.5464 401.162 69.2404 401.198 68.8804 401.198C68.5324 401.198 68.2204 401.144 67.9444 401.036C67.6804 400.94 67.4584 400.802 67.2784 400.622C67.0984 400.43 66.9724 400.202 66.9004 399.938H66.7744C66.5704 400.19 66.3184 400.412 66.0184 400.604C65.7304 400.796 65.3884 400.946 64.9924 401.054C64.6084 401.162 64.1644 401.216 63.6604 401.216ZM64.5064 399.326C64.8424 399.326 65.1424 399.278 65.4064 399.182C65.6704 399.074 65.8924 398.936 66.0724 398.768C66.2524 398.588 66.3904 398.372 66.4864 398.12C66.5944 397.868 66.6484 397.598 66.6484 397.31V396.788C65.9764 396.788 65.3764 396.836 64.8484 396.932C64.3204 397.016 63.9004 397.166 63.5884 397.382C63.2884 397.598 63.1384 397.898 63.1384 398.282C63.1384 398.498 63.1924 398.684 63.3004 398.84C63.4084 398.996 63.5644 399.116 63.7684 399.2C63.9724 399.284 64.2184 399.326 64.5064 399.326ZM77.4318 401.216C76.8198 401.216 76.2558 401.096 75.7398 400.856C75.2358 400.604 74.8278 400.226 74.5158 399.722H74.3898L74.1918 401H72.1398V387.986H74.6418V392.576H74.7498C74.9418 392.3 75.1758 392.066 75.4518 391.874C75.7278 391.682 76.0398 391.544 76.3878 391.46C76.7358 391.364 77.1138 391.316 77.5218 391.316C78.2658 391.316 78.9138 391.49 79.4658 391.838C80.0298 392.186 80.4678 392.726 80.7798 393.458C81.0918 394.178 81.2478 395.108 81.2478 396.248C81.2478 397.388 81.0918 398.324 80.7798 399.056C80.4798 399.788 80.0418 400.334 79.4658 400.694C78.9018 401.042 78.2238 401.216 77.4318 401.216ZM76.6578 399.164C77.1618 399.164 77.5578 399.068 77.8458 398.876C78.1458 398.672 78.3618 398.372 78.4938 397.976C78.6258 397.58 78.6918 397.082 78.6918 396.482V396.068C78.6918 395.468 78.6258 394.97 78.4938 394.574C78.3618 394.166 78.1458 393.866 77.8458 393.674C77.5578 393.47 77.1618 393.368 76.6578 393.368C76.2978 393.368 75.9918 393.434 75.7398 393.566C75.4878 393.686 75.2778 393.866 75.1098 394.106C74.9538 394.334 74.8338 394.622 74.7498 394.97C74.6658 395.318 74.6238 395.702 74.6238 396.122V396.446C74.6238 397.01 74.6958 397.496 74.8398 397.904C74.9838 398.312 75.2058 398.624 75.5058 398.84C75.8058 399.056 76.1898 399.164 76.6578 399.164ZM86.1329 401.216C85.8209 401.216 85.4849 401.18 85.1249 401.108C84.7769 401.036 84.4469 400.91 84.1349 400.73C83.8229 400.538 83.5649 400.268 83.3609 399.92C83.1689 399.56 83.0729 399.104 83.0729 398.552C83.0729 397.892 83.2169 397.346 83.5049 396.914C83.7929 396.482 84.2009 396.146 84.7289 395.906C85.2689 395.654 85.9109 395.48 86.6549 395.384C87.3989 395.288 88.2209 395.24 89.1209 395.24V394.538C89.1209 394.262 89.0729 394.022 88.9769 393.818C88.8929 393.614 88.7369 393.452 88.5089 393.332C88.2929 393.212 87.9869 393.152 87.5909 393.152C87.1949 393.152 86.8709 393.2 86.6189 393.296C86.3789 393.392 86.2049 393.518 86.0969 393.674C86.0009 393.818 85.9529 393.98 85.9529 394.16V394.376H83.5229C83.5109 394.316 83.5049 394.262 83.5049 394.214C83.5049 394.154 83.5049 394.082 83.5049 393.998C83.5049 393.446 83.6729 392.972 84.0089 392.576C84.3449 392.168 84.8189 391.856 85.4309 391.64C86.0429 391.424 86.7569 391.316 87.5729 391.316C88.4489 391.316 89.1809 391.43 89.7689 391.658C90.3689 391.886 90.8249 392.222 91.1369 392.666C91.4609 393.11 91.6229 393.668 91.6229 394.34V398.642C91.6229 398.858 91.6829 399.02 91.8029 399.128C91.9349 399.224 92.0789 399.272 92.2349 399.272H92.8289V400.91C92.7089 400.97 92.5229 401.03 92.2709 401.09C92.0189 401.162 91.7129 401.198 91.3529 401.198C91.0049 401.198 90.6929 401.144 90.4169 401.036C90.1529 400.94 89.9309 400.802 89.7509 400.622C89.5709 400.43 89.4449 400.202 89.3729 399.938H89.2469C89.0429 400.19 88.7909 400.412 88.4909 400.604C88.2029 400.796 87.8609 400.946 87.4649 401.054C87.0809 401.162 86.6369 401.216 86.1329 401.216ZM86.9789 399.326C87.3149 399.326 87.6149 399.278 87.8789 399.182C88.1429 399.074 88.3649 398.936 88.5449 398.768C88.7249 398.588 88.8629 398.372 88.9589 398.12C89.0669 397.868 89.1209 397.598 89.1209 397.31V396.788C88.4489 396.788 87.8489 396.836 87.3209 396.932C86.7929 397.016 86.3729 397.166 86.0609 397.382C85.7609 397.598 85.6109 397.898 85.6109 398.282C85.6109 398.498 85.6649 398.684 85.7729 398.84C85.8809 398.996 86.0369 399.116 86.2409 399.2C86.4449 399.284 86.6909 399.326 86.9789 399.326ZM98.4464 401.216C97.7864 401.216 97.1924 401.144 96.6644 401C96.1364 400.856 95.6864 400.658 95.3144 400.406C94.9424 400.142 94.6544 399.83 94.4504 399.47C94.2584 399.11 94.1624 398.702 94.1624 398.246C94.1624 398.198 94.1624 398.15 94.1624 398.102C94.1624 398.054 94.1684 398.018 94.1804 397.994H96.5924C96.5924 398.018 96.5924 398.042 96.5924 398.066C96.5924 398.09 96.5924 398.114 96.5924 398.138C96.6044 398.438 96.7004 398.684 96.8804 398.876C97.0604 399.056 97.2944 399.188 97.5824 399.272C97.8824 399.356 98.1944 399.398 98.5184 399.398C98.8064 399.398 99.0824 399.374 99.3464 399.326C99.6224 399.266 99.8504 399.164 100.03 399.02C100.222 398.876 100.318 398.69 100.318 398.462C100.318 398.174 100.198 397.952 99.9584 397.796C99.7304 397.64 99.4244 397.514 99.0404 397.418C98.6684 397.322 98.2604 397.214 97.8164 397.094C97.4084 396.998 97.0004 396.89 96.5924 396.77C96.1844 396.638 95.8124 396.47 95.4764 396.266C95.1524 396.062 94.8884 395.798 94.6844 395.474C94.4804 395.138 94.3784 394.718 94.3784 394.214C94.3784 393.722 94.4864 393.296 94.7024 392.936C94.9184 392.564 95.2124 392.258 95.5844 392.018C95.9684 391.778 96.4124 391.604 96.9164 391.496C97.4324 391.376 97.9844 391.316 98.5724 391.316C99.1244 391.316 99.6404 391.376 100.12 391.496C100.6 391.604 101.02 391.772 101.38 392C101.74 392.216 102.022 392.492 102.226 392.828C102.43 393.152 102.532 393.518 102.532 393.926C102.532 394.01 102.532 394.088 102.532 394.16C102.532 394.232 102.526 394.28 102.514 394.304H100.12V394.16C100.12 393.944 100.054 393.764 99.9224 393.62C99.7904 393.464 99.5984 393.344 99.3464 393.26C99.1064 393.176 98.8124 393.134 98.4644 393.134C98.2244 393.134 98.0024 393.152 97.7984 393.188C97.6064 393.224 97.4384 393.278 97.2944 393.35C97.1504 393.422 97.0364 393.512 96.9524 393.62C96.8804 393.716 96.8444 393.836 96.8444 393.98C96.8444 394.184 96.9284 394.352 97.0964 394.484C97.2764 394.604 97.5104 394.706 97.7984 394.79C98.0864 394.874 98.4044 394.964 98.7524 395.06C99.1844 395.18 99.6344 395.3 100.102 395.42C100.582 395.528 101.026 395.678 101.434 395.87C101.842 396.062 102.172 396.338 102.424 396.698C102.676 397.046 102.802 397.52 102.802 398.12C102.802 398.696 102.688 399.182 102.46 399.578C102.244 399.974 101.938 400.292 101.542 400.532C101.146 400.772 100.684 400.946 100.156 401.054C99.6284 401.162 99.0584 401.216 98.4464 401.216ZM109.456 401.216C108.412 401.216 107.536 401.042 106.828 400.694C106.12 400.334 105.586 399.788 105.226 399.056C104.866 398.324 104.686 397.394 104.686 396.266C104.686 395.126 104.866 394.196 105.226 393.476C105.586 392.744 106.114 392.204 106.81 391.856C107.518 391.496 108.382 391.316 109.402 391.316C110.362 391.316 111.172 391.49 111.832 391.838C112.492 392.174 112.99 392.702 113.326 393.422C113.662 394.13 113.83 395.048 113.83 396.176V396.824H107.224C107.248 397.376 107.332 397.844 107.476 398.228C107.632 398.612 107.866 398.9 108.178 399.092C108.502 399.272 108.928 399.362 109.456 399.362C109.744 399.362 110.002 399.326 110.23 399.254C110.47 399.182 110.674 399.074 110.842 398.93C111.01 398.786 111.142 398.606 111.238 398.39C111.334 398.174 111.382 397.928 111.382 397.652H113.83C113.83 398.252 113.722 398.774 113.506 399.218C113.29 399.662 112.99 400.034 112.606 400.334C112.222 400.622 111.76 400.844 111.22 401C110.692 401.144 110.104 401.216 109.456 401.216ZM107.26 395.24H111.256C111.256 394.88 111.208 394.568 111.112 394.304C111.028 394.04 110.908 393.824 110.752 393.656C110.596 393.488 110.404 393.368 110.176 393.296C109.96 393.212 109.714 393.17 109.438 393.17C108.982 393.17 108.598 393.248 108.286 393.404C107.986 393.548 107.752 393.776 107.584 394.088C107.428 394.388 107.32 394.772 107.26 395.24Z" fill="#202F38"/>
<path d="M72 310L63.3397 325L80.6603 325L72 310ZM72 360L80.6603 345L63.3397 345L72 360ZM70.5 323.5L70.5 346.5L73.5 346.5L73.5 323.5L70.5 323.5Z" fill="#415056"/>
<path d="M0 240H308V310H0V240Z" fill="#D9D9D9"/>
<path d="M102.356 268L107.108 255.652H110.42L115.172 268H112.274L111.392 265.57H106.01L105.128 268H102.356ZM106.784 263.41H110.618L109.52 260.368C109.472 260.236 109.412 260.08 109.34 259.9C109.28 259.708 109.214 259.498 109.142 259.27C109.07 259.042 108.998 258.82 108.926 258.604C108.866 258.376 108.806 258.172 108.746 257.992H108.638C108.578 258.22 108.5 258.49 108.404 258.802C108.308 259.102 108.212 259.396 108.116 259.684C108.02 259.96 107.942 260.188 107.882 260.368L106.784 263.41ZM116.966 271.204V258.532H119.018L119.234 259.81H119.36C119.672 259.294 120.08 258.916 120.584 258.676C121.088 258.436 121.646 258.316 122.258 258.316C123.05 258.316 123.728 258.49 124.292 258.838C124.868 259.186 125.306 259.726 125.606 260.458C125.918 261.19 126.074 262.132 126.074 263.284C126.074 264.4 125.918 265.324 125.606 266.056C125.294 266.788 124.856 267.334 124.292 267.694C123.74 268.042 123.092 268.216 122.348 268.216C121.94 268.216 121.562 268.168 121.214 268.072C120.866 267.988 120.554 267.85 120.278 267.658C120.002 267.466 119.768 267.232 119.576 266.956H119.468V271.204H116.966ZM121.484 266.164C121.988 266.164 122.384 266.068 122.672 265.876C122.972 265.672 123.188 265.372 123.32 264.976C123.452 264.568 123.518 264.07 123.518 263.482V263.068C123.518 262.468 123.452 261.97 123.32 261.574C123.188 261.166 122.972 260.866 122.672 260.674C122.384 260.47 121.988 260.368 121.484 260.368C121.016 260.368 120.632 260.476 120.332 260.692C120.032 260.908 119.81 261.22 119.666 261.628C119.522 262.036 119.45 262.528 119.45 263.104V263.41C119.45 263.83 119.492 264.214 119.576 264.562C119.66 264.898 119.78 265.186 119.936 265.426C120.104 265.666 120.314 265.852 120.566 265.984C120.818 266.104 121.124 266.164 121.484 266.164ZM128.457 271.204V258.532H130.509L130.725 259.81H130.851C131.163 259.294 131.571 258.916 132.075 258.676C132.579 258.436 133.137 258.316 133.749 258.316C134.541 258.316 135.219 258.49 135.783 258.838C136.359 259.186 136.797 259.726 137.097 260.458C137.409 261.19 137.565 262.132 137.565 263.284C137.565 264.4 137.409 265.324 137.097 266.056C136.785 266.788 136.347 267.334 135.783 267.694C135.231 268.042 134.583 268.216 133.839 268.216C133.431 268.216 133.053 268.168 132.705 268.072C132.357 267.988 132.045 267.85 131.769 267.658C131.493 267.466 131.259 267.232 131.067 266.956H130.959V271.204H128.457ZM132.975 266.164C133.479 266.164 133.875 266.068 134.163 265.876C134.463 265.672 134.679 265.372 134.811 264.976C134.943 264.568 135.009 264.07 135.009 263.482V263.068C135.009 262.468 134.943 261.97 134.811 261.574C134.679 261.166 134.463 260.866 134.163 260.674C133.875 260.47 133.479 260.368 132.975 260.368C132.507 260.368 132.123 260.476 131.823 260.692C131.523 260.908 131.301 261.22 131.157 261.628C131.013 262.036 130.941 262.528 130.941 263.104V263.41C130.941 263.83 130.983 264.214 131.067 264.562C131.151 264.898 131.271 265.186 131.427 265.426C131.595 265.666 131.805 265.852 132.057 265.984C132.309 266.104 132.615 266.164 132.975 266.164ZM139.948 268V254.986H142.45V268H139.948ZM145.287 257.146V254.986H147.789V257.146H145.287ZM145.287 268V258.532H147.789V268H145.287ZM154.784 268.216C153.776 268.216 152.93 268.042 152.246 267.694C151.562 267.334 151.04 266.788 150.68 266.056C150.332 265.312 150.158 264.382 150.158 263.266C150.158 262.126 150.332 261.196 150.68 260.476C151.04 259.744 151.562 259.198 152.246 258.838C152.942 258.478 153.788 258.298 154.784 258.298C155.432 258.298 156.014 258.376 156.53 258.532C157.058 258.688 157.514 258.928 157.898 259.252C158.282 259.576 158.57 259.978 158.762 260.458C158.966 260.926 159.068 261.484 159.068 262.132H156.566C156.566 261.7 156.5 261.346 156.368 261.07C156.236 260.794 156.032 260.584 155.756 260.44C155.492 260.296 155.156 260.224 154.748 260.224C154.268 260.224 153.878 260.332 153.578 260.548C153.278 260.764 153.056 261.082 152.912 261.502C152.768 261.922 152.696 262.444 152.696 263.068V263.482C152.696 264.094 152.768 264.61 152.912 265.03C153.068 265.45 153.302 265.768 153.614 265.984C153.926 266.188 154.334 266.29 154.838 266.29C155.246 266.29 155.582 266.218 155.846 266.074C156.122 265.93 156.332 265.714 156.476 265.426C156.62 265.138 156.692 264.79 156.692 264.382H159.068C159.068 264.994 158.966 265.54 158.762 266.02C158.57 266.5 158.282 266.902 157.898 267.226C157.526 267.55 157.076 267.796 156.548 267.964C156.02 268.132 155.432 268.216 154.784 268.216ZM163.986 268.216C163.674 268.216 163.338 268.18 162.978 268.108C162.63 268.036 162.3 267.91 161.988 267.73C161.676 267.538 161.418 267.268 161.214 266.92C161.022 266.56 160.926 266.104 160.926 265.552C160.926 264.892 161.07 264.346 161.358 263.914C161.646 263.482 162.054 263.146 162.582 262.906C163.122 262.654 163.764 262.48 164.508 262.384C165.252 262.288 166.074 262.24 166.974 262.24V261.538C166.974 261.262 166.926 261.022 166.83 260.818C166.746 260.614 166.59 260.452 166.362 260.332C166.146 260.212 165.84 260.152 165.444 260.152C165.048 260.152 164.724 260.2 164.472 260.296C164.232 260.392 164.058 260.518 163.95 260.674C163.854 260.818 163.806 260.98 163.806 261.16V261.376H161.376C161.364 261.316 161.358 261.262 161.358 261.214C161.358 261.154 161.358 261.082 161.358 260.998C161.358 260.446 161.526 259.972 161.862 259.576C162.198 259.168 162.672 258.856 163.284 258.64C163.896 258.424 164.61 258.316 165.426 258.316C166.302 258.316 167.034 258.43 167.622 258.658C168.222 258.886 168.678 259.222 168.99 259.666C169.314 260.11 169.476 260.668 169.476 261.34V265.642C169.476 265.858 169.536 266.02 169.656 266.128C169.788 266.224 169.932 266.272 170.088 266.272H170.682V267.91C170.562 267.97 170.376 268.03 170.124 268.09C169.872 268.162 169.566 268.198 169.206 268.198C168.858 268.198 168.546 268.144 168.27 268.036C168.006 267.94 167.784 267.802 167.604 267.622C167.424 267.43 167.298 267.202 167.226 266.938H167.1C166.896 267.19 166.644 267.412 166.344 267.604C166.056 267.796 165.714 267.946 165.318 268.054C164.934 268.162 164.49 268.216 163.986 268.216ZM164.832 266.326C165.168 266.326 165.468 266.278 165.732 266.182C165.996 266.074 166.218 265.936 166.398 265.768C166.578 265.588 166.716 265.372 166.812 265.12C166.92 264.868 166.974 264.598 166.974 264.31V263.788C166.302 263.788 165.702 263.836 165.174 263.932C164.646 264.016 164.226 264.166 163.914 264.382C163.614 264.598 163.464 264.898 163.464 265.282C163.464 265.498 163.518 265.684 163.626 265.84C163.734 265.996 163.89 266.116 164.094 266.2C164.298 266.284 164.544 266.326 164.832 266.326ZM175.291 268.216C174.691 268.216 174.205 268.108 173.833 267.892C173.461 267.676 173.191 267.388 173.023 267.028C172.855 266.656 172.771 266.248 172.771 265.804V260.458H171.601V258.532H172.861L173.329 255.832H175.273V258.532H177.001V260.458H175.273V265.39C175.273 265.678 175.339 265.9 175.471 266.056C175.603 266.2 175.819 266.272 176.119 266.272H177.001V267.928C176.857 267.976 176.689 268.018 176.497 268.054C176.305 268.102 176.101 268.138 175.885 268.162C175.669 268.198 175.471 268.216 175.291 268.216ZM179.158 257.146V254.986H181.66V257.146H179.158ZM179.158 268V258.532H181.66V268H179.158ZM188.853 268.216C187.821 268.216 186.945 268.042 186.225 267.694C185.505 267.334 184.959 266.788 184.587 266.056C184.215 265.312 184.029 264.382 184.029 263.266C184.029 262.126 184.215 261.196 184.587 260.476C184.959 259.744 185.505 259.204 186.225 258.856C186.945 258.496 187.821 258.316 188.853 258.316C189.909 258.316 190.791 258.496 191.499 258.856C192.219 259.204 192.765 259.744 193.137 260.476C193.509 261.196 193.695 262.126 193.695 263.266C193.695 264.382 193.509 265.312 193.137 266.056C192.765 266.788 192.219 267.334 191.499 267.694C190.791 268.042 189.909 268.216 188.853 268.216ZM188.853 266.272C189.405 266.272 189.843 266.17 190.167 265.966C190.503 265.762 190.749 265.45 190.905 265.03C191.061 264.61 191.139 264.094 191.139 263.482V263.05C191.139 262.438 191.061 261.922 190.905 261.502C190.749 261.082 190.503 260.77 190.167 260.566C189.843 260.35 189.405 260.242 188.853 260.242C188.313 260.242 187.875 260.35 187.539 260.566C187.215 260.77 186.975 261.082 186.819 261.502C186.663 261.922 186.585 262.438 186.585 263.05V263.482C186.585 264.094 186.663 264.61 186.819 265.03C186.975 265.45 187.215 265.762 187.539 265.966C187.875 266.17 188.313 266.272 188.853 266.272ZM196.076 268V258.532H198.146L198.344 259.828H198.47C198.686 259.516 198.944 259.246 199.244 259.018C199.556 258.79 199.904 258.616 200.288 258.496C200.672 258.376 201.092 258.316 201.548 258.316C202.172 258.316 202.718 258.43 203.186 258.658C203.654 258.886 204.014 259.246 204.266 259.738C204.53 260.23 204.662 260.872 204.662 261.664V268H202.16V262.06C202.16 261.76 202.124 261.508 202.052 261.304C201.98 261.088 201.872 260.914 201.728 260.782C201.596 260.638 201.428 260.536 201.224 260.476C201.02 260.416 200.792 260.386 200.54 260.386C200.168 260.386 199.832 260.476 199.532 260.656C199.232 260.836 198.998 261.082 198.83 261.394C198.662 261.706 198.578 262.066 198.578 262.474V268H196.076ZM44.6988 297.844C43.7028 296.728 42.9348 295.474 42.3948 294.082C41.8668 292.69 41.6028 291.256 41.6028 289.78C41.6028 288.304 41.8668 286.87 42.3948 285.478C42.9348 284.086 43.7028 282.844 44.6988 281.752H46.2828C45.8268 282.484 45.4128 283.3 45.0408 284.2C44.6688 285.088 44.3808 286.012 44.1768 286.972C43.9728 287.92 43.8708 288.856 43.8708 289.78C43.8708 290.692 43.9728 291.634 44.1768 292.606C44.3808 293.566 44.6688 294.49 45.0408 295.378C45.4128 296.278 45.8268 297.1 46.2828 297.844H44.6988ZM50.9854 295L47.7454 282.652H50.5894L52.3894 290.014C52.4254 290.122 52.4614 290.284 52.4974 290.5C52.5334 290.704 52.5694 290.92 52.6054 291.148C52.6414 291.376 52.6714 291.58 52.6954 291.76H52.7854C52.8094 291.628 52.8274 291.478 52.8394 291.31C52.8634 291.142 52.8874 290.98 52.9114 290.824C52.9474 290.656 52.9774 290.5 53.0014 290.356C53.0374 290.212 53.0614 290.098 53.0734 290.014L54.7474 282.652H57.9514L59.6614 290.014C59.6974 290.134 59.7334 290.296 59.7694 290.5C59.8054 290.704 59.8414 290.92 59.8774 291.148C59.9134 291.376 59.9434 291.58 59.9674 291.76H60.0574C60.0814 291.628 60.1054 291.484 60.1294 291.328C60.1654 291.172 60.1954 291.016 60.2194 290.86C60.2554 290.692 60.2914 290.536 60.3274 290.392C60.3634 290.248 60.3934 290.122 60.4174 290.014L62.1994 282.652H64.7734L61.5154 295H58.4554L56.6374 287.404C56.6014 287.236 56.5594 287.044 56.5114 286.828C56.4754 286.6 56.4394 286.378 56.4034 286.162C56.3674 285.946 56.3374 285.754 56.3134 285.586H56.2414C56.2174 285.754 56.1874 285.952 56.1514 286.18C56.1274 286.408 56.0914 286.63 56.0434 286.846C56.0074 287.062 55.9714 287.248 55.9354 287.404L54.1354 295H50.9854ZM70.0494 295.216C69.0174 295.216 68.1414 295.042 67.4214 294.694C66.7014 294.334 66.1554 293.788 65.7834 293.056C65.4114 292.312 65.2254 291.382 65.2254 290.266C65.2254 289.126 65.4114 288.196 65.7834 287.476C66.1554 286.744 66.7014 286.204 67.4214 285.856C68.1414 285.496 69.0174 285.316 70.0494 285.316C71.1054 285.316 71.9874 285.496 72.6954 285.856C73.4154 286.204 73.9614 286.744 74.3334 287.476C74.7054 288.196 74.8914 289.126 74.8914 290.266C74.8914 291.382 74.7054 292.312 74.3334 293.056C73.9614 293.788 73.4154 294.334 72.6954 294.694C71.9874 295.042 71.1054 295.216 70.0494 295.216ZM70.0494 293.272C70.6014 293.272 71.0394 293.17 71.3634 292.966C71.6994 292.762 71.9454 292.45 72.1014 292.03C72.2574 291.61 72.3354 291.094 72.3354 290.482V290.05C72.3354 289.438 72.2574 288.922 72.1014 288.502C71.9454 288.082 71.6994 287.77 71.3634 287.566C71.0394 287.35 70.6014 287.242 70.0494 287.242C69.5094 287.242 69.0714 287.35 68.7354 287.566C68.4114 287.77 68.1714 288.082 68.0154 288.502C67.8594 288.922 67.7814 289.438 67.7814 290.05V290.482C67.7814 291.094 67.8594 291.61 68.0154 292.03C68.1714 292.45 68.4114 292.762 68.7354 292.966C69.0714 293.17 69.5094 293.272 70.0494 293.272ZM77.2725 295V285.532H79.3425L79.5405 287.008H79.6665C79.7865 286.696 79.9425 286.414 80.1345 286.162C80.3265 285.898 80.5665 285.688 80.8545 285.532C81.1425 285.376 81.4785 285.298 81.8625 285.298C82.0665 285.298 82.2525 285.322 82.4205 285.37C82.5885 285.406 82.7145 285.442 82.7985 285.478V287.746H82.0245C81.6525 287.746 81.3225 287.8 81.0345 287.908C80.7585 288.004 80.5245 288.16 80.3325 288.376C80.1405 288.592 79.9965 288.856 79.9005 289.168C79.8165 289.48 79.7745 289.846 79.7745 290.266V295H77.2725ZM87.8226 295.216C87.0426 295.216 86.3646 295.042 85.7886 294.694C85.2246 294.334 84.7866 293.788 84.4746 293.056C84.1626 292.324 84.0066 291.388 84.0066 290.248C84.0066 289.108 84.1626 288.178 84.4746 287.458C84.7986 286.726 85.2366 286.186 85.7886 285.838C86.3526 285.49 87.0006 285.316 87.7326 285.316C88.1406 285.316 88.5186 285.364 88.8666 285.46C89.2266 285.544 89.5386 285.682 89.8026 285.874C90.0786 286.066 90.3126 286.3 90.5046 286.576H90.6126V281.986H93.1146V295H91.0626L90.8646 293.722H90.7386C90.4266 294.226 90.0186 294.604 89.5146 294.856C89.0106 295.096 88.4466 295.216 87.8226 295.216ZM88.6146 293.164C89.0826 293.164 89.4606 293.056 89.7486 292.84C90.0486 292.624 90.2706 292.312 90.4146 291.904C90.5586 291.496 90.6306 291.01 90.6306 290.446V290.122C90.6306 289.702 90.5886 289.318 90.5046 288.97C90.4326 288.622 90.3126 288.334 90.1446 288.106C89.9766 287.866 89.7666 287.686 89.5146 287.566C89.2626 287.434 88.9626 287.368 88.6146 287.368C88.1106 287.368 87.7086 287.47 87.4086 287.674C87.1086 287.866 86.8926 288.166 86.7606 288.574C86.6286 288.97 86.5626 289.468 86.5626 290.068V290.482C86.5626 291.082 86.6286 291.58 86.7606 291.976C86.8926 292.372 87.1086 292.672 87.4086 292.876C87.7086 293.068 88.1106 293.164 88.6146 293.164ZM95.9658 298.204V285.532H98.0178L98.2338 286.81H98.3598C98.6718 286.294 99.0798 285.916 99.5838 285.676C100.088 285.436 100.646 285.316 101.258 285.316C102.05 285.316 102.728 285.49 103.292 285.838C103.868 286.186 104.306 286.726 104.606 287.458C104.918 288.19 105.074 289.132 105.074 290.284C105.074 291.4 104.918 292.324 104.606 293.056C104.294 293.788 103.856 294.334 103.292 294.694C102.74 295.042 102.092 295.216 101.348 295.216C100.94 295.216 100.562 295.168 100.214 295.072C99.8658 294.988 99.5538 294.85 99.2778 294.658C99.0018 294.466 98.7678 294.232 98.5758 293.956H98.4678V298.204H95.9658ZM100.484 293.164C100.988 293.164 101.384 293.068 101.672 292.876C101.972 292.672 102.188 292.372 102.32 291.976C102.452 291.568 102.518 291.07 102.518 290.482V290.068C102.518 289.468 102.452 288.97 102.32 288.574C102.188 288.166 101.972 287.866 101.672 287.674C101.384 287.47 100.988 287.368 100.484 287.368C100.016 287.368 99.6318 287.476 99.3318 287.692C99.0318 287.908 98.8098 288.22 98.6658 288.628C98.5218 289.036 98.4498 289.528 98.4498 290.104V290.41C98.4498 290.83 98.4918 291.214 98.5758 291.562C98.6598 291.898 98.7798 292.186 98.9358 292.426C99.1038 292.666 99.3138 292.852 99.5658 292.984C99.8178 293.104 100.124 293.164 100.484 293.164ZM107.457 295V285.532H109.527L109.725 287.008H109.851C109.971 286.696 110.127 286.414 110.319 286.162C110.511 285.898 110.751 285.688 111.039 285.532C111.327 285.376 111.663 285.298 112.047 285.298C112.251 285.298 112.437 285.322 112.605 285.37C112.773 285.406 112.899 285.442 112.983 285.478V287.746H112.209C111.837 287.746 111.507 287.8 111.219 287.908C110.943 288.004 110.709 288.16 110.517 288.376C110.325 288.592 110.181 288.856 110.085 289.168C110.001 289.48 109.959 289.846 109.959 290.266V295H107.457ZM118.961 295.216C117.917 295.216 117.041 295.042 116.333 294.694C115.625 294.334 115.091 293.788 114.731 293.056C114.371 292.324 114.191 291.394 114.191 290.266C114.191 289.126 114.371 288.196 114.731 287.476C115.091 286.744 115.619 286.204 116.315 285.856C117.023 285.496 117.887 285.316 118.907 285.316C119.867 285.316 120.677 285.49 121.337 285.838C121.997 286.174 122.495 286.702 122.831 287.422C123.167 288.13 123.335 289.048 123.335 290.176V290.824H116.729C116.753 291.376 116.837 291.844 116.981 292.228C117.137 292.612 117.371 292.9 117.683 293.092C118.007 293.272 118.433 293.362 118.961 293.362C119.249 293.362 119.507 293.326 119.735 293.254C119.975 293.182 120.179 293.074 120.347 292.93C120.515 292.786 120.647 292.606 120.743 292.39C120.839 292.174 120.887 291.928 120.887 291.652H123.335C123.335 292.252 123.227 292.774 123.011 293.218C122.795 293.662 122.495 294.034 122.111 294.334C121.727 294.622 121.265 294.844 120.725 295C120.197 295.144 119.609 295.216 118.961 295.216ZM116.765 289.24H120.761C120.761 288.88 120.713 288.568 120.617 288.304C120.533 288.04 120.413 287.824 120.257 287.656C120.101 287.488 119.909 287.368 119.681 287.296C119.465 287.212 119.219 287.17 118.943 287.17C118.487 287.17 118.103 287.248 117.791 287.404C117.491 287.548 117.257 287.776 117.089 288.088C116.933 288.388 116.825 288.772 116.765 289.24ZM129.545 295.216C128.885 295.216 128.291 295.144 127.763 295C127.235 294.856 126.785 294.658 126.413 294.406C126.041 294.142 125.753 293.83 125.549 293.47C125.357 293.11 125.261 292.702 125.261 292.246C125.261 292.198 125.261 292.15 125.261 292.102C125.261 292.054 125.267 292.018 125.279 291.994H127.691C127.691 292.018 127.691 292.042 127.691 292.066C127.691 292.09 127.691 292.114 127.691 292.138C127.703 292.438 127.799 292.684 127.979 292.876C128.159 293.056 128.393 293.188 128.681 293.272C128.981 293.356 129.293 293.398 129.617 293.398C129.905 293.398 130.181 293.374 130.445 293.326C130.721 293.266 130.949 293.164 131.129 293.02C131.321 292.876 131.417 292.69 131.417 292.462C131.417 292.174 131.297 291.952 131.057 291.796C130.829 291.64 130.523 291.514 130.139 291.418C129.767 291.322 129.359 291.214 128.915 291.094C128.507 290.998 128.099 290.89 127.691 290.77C127.283 290.638 126.911 290.47 126.575 290.266C126.251 290.062 125.987 289.798 125.783 289.474C125.579 289.138 125.477 288.718 125.477 288.214C125.477 287.722 125.585 287.296 125.801 286.936C126.017 286.564 126.311 286.258 126.683 286.018C127.067 285.778 127.511 285.604 128.015 285.496C128.531 285.376 129.083 285.316 129.671 285.316C130.223 285.316 130.739 285.376 131.219 285.496C131.699 285.604 132.119 285.772 132.479 286C132.839 286.216 133.121 286.492 133.325 286.828C133.529 287.152 133.631 287.518 133.631 287.926C133.631 288.01 133.631 288.088 133.631 288.16C133.631 288.232 133.625 288.28 133.613 288.304H131.219V288.16C131.219 287.944 131.153 287.764 131.021 287.62C130.889 287.464 130.697 287.344 130.445 287.26C130.205 287.176 129.911 287.134 129.563 287.134C129.323 287.134 129.101 287.152 128.897 287.188C128.705 287.224 128.537 287.278 128.393 287.35C128.249 287.422 128.135 287.512 128.051 287.62C127.979 287.716 127.943 287.836 127.943 287.98C127.943 288.184 128.027 288.352 128.195 288.484C128.375 288.604 128.609 288.706 128.897 288.79C129.185 288.874 129.503 288.964 129.851 289.06C130.283 289.18 130.733 289.3 131.201 289.42C131.681 289.528 132.125 289.678 132.533 289.87C132.941 290.062 133.271 290.338 133.523 290.698C133.775 291.046 133.901 291.52 133.901 292.12C133.901 292.696 133.787 293.182 133.559 293.578C133.343 293.974 133.037 294.292 132.641 294.532C132.245 294.772 131.783 294.946 131.255 295.054C130.727 295.162 130.157 295.216 129.545 295.216ZM140.087 295.216C139.427 295.216 138.833 295.144 138.305 295C137.777 294.856 137.327 294.658 136.955 294.406C136.583 294.142 136.295 293.83 136.091 293.47C135.899 293.11 135.803 292.702 135.803 292.246C135.803 292.198 135.803 292.15 135.803 292.102C135.803 292.054 135.809 292.018 135.821 291.994H138.233C138.233 292.018 138.233 292.042 138.233 292.066C138.233 292.09 138.233 292.114 138.233 292.138C138.245 292.438 138.341 292.684 138.521 292.876C138.701 293.056 138.935 293.188 139.223 293.272C139.523 293.356 139.835 293.398 140.159 293.398C140.447 293.398 140.723 293.374 140.987 293.326C141.263 293.266 141.491 293.164 141.671 293.02C141.863 292.876 141.959 292.69 141.959 292.462C141.959 292.174 141.839 291.952 141.599 291.796C141.371 291.64 141.065 291.514 140.681 291.418C140.309 291.322 139.901 291.214 139.457 291.094C139.049 290.998 138.641 290.89 138.233 290.77C137.825 290.638 137.453 290.47 137.117 290.266C136.793 290.062 136.529 289.798 136.325 289.474C136.121 289.138 136.019 288.718 136.019 288.214C136.019 287.722 136.127 287.296 136.343 286.936C136.559 286.564 136.853 286.258 137.225 286.018C137.609 285.778 138.053 285.604 138.557 285.496C139.073 285.376 139.625 285.316 140.213 285.316C140.765 285.316 141.281 285.376 141.761 285.496C142.241 285.604 142.661 285.772 143.021 286C143.381 286.216 143.663 286.492 143.867 286.828C144.071 287.152 144.173 287.518 144.173 287.926C144.173 288.01 144.173 288.088 144.173 288.16C144.173 288.232 144.167 288.28 144.155 288.304H141.761V288.16C141.761 287.944 141.695 287.764 141.563 287.62C141.431 287.464 141.239 287.344 140.987 287.26C140.747 287.176 140.453 287.134 140.105 287.134C139.865 287.134 139.643 287.152 139.439 287.188C139.247 287.224 139.079 287.278 138.935 287.35C138.791 287.422 138.677 287.512 138.593 287.62C138.521 287.716 138.485 287.836 138.485 287.98C138.485 288.184 138.569 288.352 138.737 288.484C138.917 288.604 139.151 288.706 139.439 288.79C139.727 288.874 140.045 288.964 140.393 289.06C140.825 289.18 141.275 289.3 141.743 289.42C142.223 289.528 142.667 289.678 143.075 289.87C143.483 290.062 143.813 290.338 144.065 290.698C144.317 291.046 144.443 291.52 144.443 292.12C144.443 292.696 144.329 293.182 144.101 293.578C143.885 293.974 143.579 294.292 143.183 294.532C142.787 294.772 142.325 294.946 141.797 295.054C141.269 295.162 140.699 295.216 140.087 295.216ZM146.993 298.042V296.998C147.293 296.95 147.545 296.83 147.749 296.638C147.953 296.458 148.109 296.224 148.217 295.936C148.325 295.648 148.379 295.336 148.379 295H147.101V292.426H149.711V294.748C149.711 295.48 149.585 296.074 149.333 296.53C149.081 296.986 148.745 297.334 148.325 297.574C147.917 297.814 147.473 297.97 146.993 298.042ZM157.143 295V282.652H162.183C163.467 282.652 164.559 282.874 165.459 283.318C166.359 283.762 167.049 284.44 167.529 285.352C168.021 286.252 168.267 287.41 168.267 288.826C168.267 290.23 168.021 291.388 167.529 292.3C167.049 293.212 166.359 293.89 165.459 294.334C164.559 294.778 163.467 295 162.183 295H157.143ZM159.825 292.786H162.165C162.705 292.786 163.185 292.708 163.605 292.552C164.025 292.396 164.373 292.168 164.649 291.868C164.925 291.556 165.135 291.172 165.279 290.716C165.423 290.248 165.495 289.708 165.495 289.096V288.556C165.495 287.944 165.423 287.41 165.279 286.954C165.135 286.486 164.925 286.102 164.649 285.802C164.373 285.49 164.025 285.256 163.605 285.1C163.185 284.932 162.705 284.848 162.165 284.848H159.825V292.786ZM170.774 295V285.532H172.844L173.042 287.008H173.168C173.288 286.696 173.444 286.414 173.636 286.162C173.828 285.898 174.068 285.688 174.356 285.532C174.644 285.376 174.98 285.298 175.364 285.298C175.568 285.298 175.754 285.322 175.922 285.37C176.09 285.406 176.216 285.442 176.3 285.478V287.746H175.526C175.154 287.746 174.824 287.8 174.536 287.908C174.26 288.004 174.026 288.16 173.834 288.376C173.642 288.592 173.498 288.856 173.402 289.168C173.318 289.48 173.276 289.846 173.276 290.266V295H170.774ZM181.212 295.216C180.252 295.216 179.49 294.952 178.926 294.424C178.362 293.896 178.08 293.044 178.08 291.868V285.532H180.582V291.454C180.582 291.766 180.618 292.03 180.69 292.246C180.762 292.45 180.864 292.618 180.996 292.75C181.14 292.882 181.314 292.978 181.518 293.038C181.722 293.098 181.95 293.128 182.202 293.128C182.574 293.128 182.91 293.038 183.21 292.858C183.51 292.678 183.744 292.432 183.912 292.12C184.08 291.796 184.164 291.436 184.164 291.04V285.532H186.666V295H184.614L184.434 293.704H184.308C184.08 294.004 183.81 294.268 183.498 294.496C183.198 294.724 182.856 294.898 182.472 295.018C182.088 295.15 181.668 295.216 181.212 295.216ZM189.502 298.204V285.532H191.554L191.77 286.81H191.896C192.208 286.294 192.616 285.916 193.12 285.676C193.624 285.436 194.182 285.316 194.794 285.316C195.586 285.316 196.264 285.49 196.828 285.838C197.404 286.186 197.842 286.726 198.142 287.458C198.454 288.19 198.61 289.132 198.61 290.284C198.61 291.4 198.454 292.324 198.142 293.056C197.83 293.788 197.392 294.334 196.828 294.694C196.276 295.042 195.628 295.216 194.884 295.216C194.476 295.216 194.098 295.168 193.75 295.072C193.402 294.988 193.09 294.85 192.814 294.658C192.538 294.466 192.304 294.232 192.112 293.956H192.004V298.204H189.502ZM194.02 293.164C194.524 293.164 194.92 293.068 195.208 292.876C195.508 292.672 195.724 292.372 195.856 291.976C195.988 291.568 196.054 291.07 196.054 290.482V290.068C196.054 289.468 195.988 288.97 195.856 288.574C195.724 288.166 195.508 287.866 195.208 287.674C194.92 287.47 194.524 287.368 194.02 287.368C193.552 287.368 193.168 287.476 192.868 287.692C192.568 287.908 192.346 288.22 192.202 288.628C192.058 289.036 191.986 289.528 191.986 290.104V290.41C191.986 290.83 192.028 291.214 192.112 291.562C192.196 291.898 192.316 292.186 192.472 292.426C192.64 292.666 192.85 292.852 193.102 292.984C193.354 293.104 193.66 293.164 194.02 293.164ZM203.496 295.216C203.184 295.216 202.848 295.18 202.488 295.108C202.14 295.036 201.81 294.91 201.498 294.73C201.186 294.538 200.928 294.268 200.724 293.92C200.532 293.56 200.436 293.104 200.436 292.552C200.436 291.892 200.58 291.346 200.868 290.914C201.156 290.482 201.564 290.146 202.092 289.906C202.632 289.654 203.274 289.48 204.018 289.384C204.762 289.288 205.584 289.24 206.484 289.24V288.538C206.484 288.262 206.436 288.022 206.34 287.818C206.256 287.614 206.1 287.452 205.872 287.332C205.656 287.212 205.35 287.152 204.954 287.152C204.558 287.152 204.234 287.2 203.982 287.296C203.742 287.392 203.568 287.518 203.46 287.674C203.364 287.818 203.316 287.98 203.316 288.16V288.376H200.886C200.874 288.316 200.868 288.262 200.868 288.214C200.868 288.154 200.868 288.082 200.868 287.998C200.868 287.446 201.036 286.972 201.372 286.576C201.708 286.168 202.182 285.856 202.794 285.64C203.406 285.424 204.12 285.316 204.936 285.316C205.812 285.316 206.544 285.43 207.132 285.658C207.732 285.886 208.188 286.222 208.5 286.666C208.824 287.11 208.986 287.668 208.986 288.34V292.642C208.986 292.858 209.046 293.02 209.166 293.128C209.298 293.224 209.442 293.272 209.598 293.272H210.192V294.91C210.072 294.97 209.886 295.03 209.634 295.09C209.382 295.162 209.076 295.198 208.716 295.198C208.368 295.198 208.056 295.144 207.78 295.036C207.516 294.94 207.294 294.802 207.114 294.622C206.934 294.43 206.808 294.202 206.736 293.938H206.61C206.406 294.19 206.154 294.412 205.854 294.604C205.566 294.796 205.224 294.946 204.828 295.054C204.444 295.162 204 295.216 203.496 295.216ZM204.342 293.326C204.678 293.326 204.978 293.278 205.242 293.182C205.506 293.074 205.728 292.936 205.908 292.768C206.088 292.588 206.226 292.372 206.322 292.12C206.43 291.868 206.484 291.598 206.484 291.31V290.788C205.812 290.788 205.212 290.836 204.684 290.932C204.156 291.016 203.736 291.166 203.424 291.382C203.124 291.598 202.974 291.898 202.974 292.282C202.974 292.498 203.028 292.684 203.136 292.84C203.244 292.996 203.4 293.116 203.604 293.2C203.808 293.284 204.054 293.326 204.342 293.326ZM211.975 295V281.986H214.477V295H211.975ZM217.512 298.042V296.998C217.812 296.95 218.064 296.83 218.268 296.638C218.472 296.458 218.628 296.224 218.736 295.936C218.844 295.648 218.898 295.336 218.898 295H217.62V292.426H220.23V294.748C220.23 295.48 220.104 296.074 219.852 296.53C219.6 296.986 219.264 297.334 218.844 297.574C218.436 297.814 217.992 297.97 217.512 298.042ZM231.749 295.216C230.705 295.216 229.829 295.042 229.121 294.694C228.413 294.334 227.879 293.788 227.519 293.056C227.159 292.324 226.979 291.394 226.979 290.266C226.979 289.126 227.159 288.196 227.519 287.476C227.879 286.744 228.407 286.204 229.103 285.856C229.811 285.496 230.675 285.316 231.695 285.316C232.655 285.316 233.465 285.49 234.125 285.838C234.785 286.174 235.283 286.702 235.619 287.422C235.955 288.13 236.123 289.048 236.123 290.176V290.824H229.517C229.541 291.376 229.625 291.844 229.769 292.228C229.925 292.612 230.159 292.9 230.471 293.092C230.795 293.272 231.221 293.362 231.749 293.362C232.037 293.362 232.295 293.326 232.523 293.254C232.763 293.182 232.967 293.074 233.135 292.93C233.303 292.786 233.435 292.606 233.531 292.39C233.627 292.174 233.675 291.928 233.675 291.652H236.123C236.123 292.252 236.015 292.774 235.799 293.218C235.583 293.662 235.283 294.034 234.899 294.334C234.515 294.622 234.053 294.844 233.513 295C232.985 295.144 232.397 295.216 231.749 295.216ZM229.553 289.24H233.549C233.549 288.88 233.501 288.568 233.405 288.304C233.321 288.04 233.201 287.824 233.045 287.656C232.889 287.488 232.697 287.368 232.469 287.296C232.253 287.212 232.007 287.17 231.731 287.17C231.275 287.17 230.891 287.248 230.579 287.404C230.279 287.548 230.045 287.776 229.877 288.088C229.721 288.388 229.613 288.772 229.553 289.24ZM241.324 295.216C240.724 295.216 240.238 295.108 239.866 294.892C239.494 294.676 239.224 294.388 239.056 294.028C238.888 293.656 238.804 293.248 238.804 292.804V287.458H237.634V285.532H238.894L239.362 282.832H241.306V285.532H243.034V287.458H241.306V292.39C241.306 292.678 241.372 292.9 241.504 293.056C241.636 293.2 241.852 293.272 242.152 293.272H243.034V294.928C242.89 294.976 242.722 295.018 242.53 295.054C242.338 295.102 242.134 295.138 241.918 295.162C241.702 295.198 241.504 295.216 241.324 295.216ZM249.349 295.216C248.341 295.216 247.495 295.042 246.811 294.694C246.127 294.334 245.605 293.788 245.245 293.056C244.897 292.312 244.723 291.382 244.723 290.266C244.723 289.126 244.897 288.196 245.245 287.476C245.605 286.744 246.127 286.198 246.811 285.838C247.507 285.478 248.353 285.298 249.349 285.298C249.997 285.298 250.579 285.376 251.095 285.532C251.623 285.688 252.079 285.928 252.463 286.252C252.847 286.576 253.135 286.978 253.327 287.458C253.531 287.926 253.633 288.484 253.633 289.132H251.131C251.131 288.7 251.065 288.346 250.933 288.07C250.801 287.794 250.597 287.584 250.321 287.44C250.057 287.296 249.721 287.224 249.313 287.224C248.833 287.224 248.443 287.332 248.143 287.548C247.843 287.764 247.621 288.082 247.477 288.502C247.333 288.922 247.261 289.444 247.261 290.068V290.482C247.261 291.094 247.333 291.61 247.477 292.03C247.633 292.45 247.867 292.768 248.179 292.984C248.491 293.188 248.899 293.29 249.403 293.29C249.811 293.29 250.147 293.218 250.411 293.074C250.687 292.93 250.897 292.714 251.041 292.426C251.185 292.138 251.257 291.79 251.257 291.382H253.633C253.633 291.994 253.531 292.54 253.327 293.02C253.135 293.5 252.847 293.902 252.463 294.226C252.091 294.55 251.641 294.796 251.113 294.964C250.585 295.132 249.997 295.216 249.349 295.216ZM256.355 295V292.426H258.965V295H256.355ZM263.297 281.752C264.293 282.868 265.055 284.122 265.583 285.514C266.123 286.906 266.393 288.34 266.393 289.816C266.393 291.292 266.123 292.726 265.583 294.118C265.055 295.498 264.293 296.74 263.297 297.844H261.713C262.181 297.112 262.595 296.296 262.955 295.396C263.327 294.508 263.615 293.59 263.819 292.642C264.023 291.682 264.125 290.74 264.125 289.816C264.125 288.892 264.023 287.95 263.819 286.99C263.615 286.03 263.327 285.1 262.955 284.2C262.595 283.3 262.181 282.484 261.713 281.752H263.297Z" fill="#202F38"/>
<path d="M154.5 190L145.84 205L163.16 205L154.5 190ZM154.5 240L163.16 225L145.84 225L154.5 240ZM153 203.5L153 226.5L156 226.5L156 203.5L153 203.5Z" fill="#415056"/>
<path d="M0 120H308V190H0V120Z" fill="#FFF7F7"/>
<path d="M105.885 161L102.645 148.652H105.489L107.289 156.014C107.325 156.122 107.361 156.284 107.397 156.5C107.433 156.704 107.469 156.92 107.505 157.148C107.541 157.376 107.571 157.58 107.595 157.76H107.685C107.709 157.628 107.727 157.478 107.739 157.31C107.763 157.142 107.787 156.98 107.811 156.824C107.847 156.656 107.877 156.5 107.901 156.356C107.937 156.212 107.961 156.098 107.973 156.014L109.647 148.652H112.851L114.561 156.014C114.597 156.134 114.633 156.296 114.669 156.5C114.705 156.704 114.741 156.92 114.777 157.148C114.813 157.376 114.843 157.58 114.867 157.76H114.957C114.981 157.628 115.005 157.484 115.029 157.328C115.065 157.172 115.095 157.016 115.119 156.86C115.155 156.692 115.191 156.536 115.227 156.392C115.263 156.248 115.293 156.122 115.317 156.014L117.099 148.652H119.673L116.415 161H113.355L111.537 153.404C111.501 153.236 111.459 153.044 111.411 152.828C111.375 152.6 111.339 152.378 111.303 152.162C111.267 151.946 111.237 151.754 111.213 151.586H111.141C111.117 151.754 111.087 151.952 111.051 152.18C111.027 152.408 110.991 152.63 110.943 152.846C110.907 153.062 110.871 153.248 110.835 153.404L109.035 161H105.885ZM124.895 161.216C123.851 161.216 122.975 161.042 122.267 160.694C121.559 160.334 121.025 159.788 120.665 159.056C120.305 158.324 120.125 157.394 120.125 156.266C120.125 155.126 120.305 154.196 120.665 153.476C121.025 152.744 121.553 152.204 122.249 151.856C122.957 151.496 123.821 151.316 124.841 151.316C125.801 151.316 126.611 151.49 127.271 151.838C127.931 152.174 128.429 152.702 128.765 153.422C129.101 154.13 129.269 155.048 129.269 156.176V156.824H122.663C122.687 157.376 122.771 157.844 122.915 158.228C123.071 158.612 123.305 158.9 123.617 159.092C123.941 159.272 124.367 159.362 124.895 159.362C125.183 159.362 125.441 159.326 125.669 159.254C125.909 159.182 126.113 159.074 126.281 158.93C126.449 158.786 126.581 158.606 126.677 158.39C126.773 158.174 126.821 157.928 126.821 157.652H129.269C129.269 158.252 129.161 158.774 128.945 159.218C128.729 159.662 128.429 160.034 128.045 160.334C127.661 160.622 127.199 160.844 126.659 161C126.131 161.144 125.543 161.216 124.895 161.216ZM122.699 155.24H126.695C126.695 154.88 126.647 154.568 126.551 154.304C126.467 154.04 126.347 153.824 126.191 153.656C126.035 153.488 125.843 153.368 125.615 153.296C125.399 153.212 125.153 153.17 124.877 153.17C124.421 153.17 124.037 153.248 123.725 153.404C123.425 153.548 123.191 153.776 123.023 154.088C122.867 154.388 122.759 154.772 122.699 155.24ZM136.937 161.216C136.325 161.216 135.761 161.096 135.245 160.856C134.741 160.604 134.333 160.226 134.021 159.722H133.895L133.697 161H131.645V147.986H134.147V152.576H134.255C134.447 152.3 134.681 152.066 134.957 151.874C135.233 151.682 135.545 151.544 135.893 151.46C136.241 151.364 136.619 151.316 137.027 151.316C137.771 151.316 138.419 151.49 138.971 151.838C139.535 152.186 139.973 152.726 140.285 153.458C140.597 154.178 140.753 155.108 140.753 156.248C140.753 157.388 140.597 158.324 140.285 159.056C139.985 159.788 139.547 160.334 138.971 160.694C138.407 161.042 137.729 161.216 136.937 161.216ZM136.163 159.164C136.667 159.164 137.063 159.068 137.351 158.876C137.651 158.672 137.867 158.372 137.999 157.976C138.131 157.58 138.197 157.082 138.197 156.482V156.068C138.197 155.468 138.131 154.97 137.999 154.574C137.867 154.166 137.651 153.866 137.351 153.674C137.063 153.47 136.667 153.368 136.163 153.368C135.803 153.368 135.497 153.434 135.245 153.566C134.993 153.686 134.783 153.866 134.615 154.106C134.459 154.334 134.339 154.622 134.255 154.97C134.171 155.318 134.129 155.702 134.129 156.122V156.446C134.129 157.01 134.201 157.496 134.345 157.904C134.489 158.312 134.711 158.624 135.011 158.84C135.311 159.056 135.695 159.164 136.163 159.164ZM152.231 161.216C151.511 161.216 150.827 161.144 150.179 161C149.531 160.856 148.955 160.628 148.451 160.316C147.959 159.992 147.569 159.59 147.281 159.11C147.005 158.618 146.867 158.024 146.867 157.328C146.867 157.268 146.867 157.208 146.867 157.148C146.867 157.076 146.873 157.022 146.885 156.986H149.549C149.537 157.022 149.531 157.07 149.531 157.13C149.531 157.19 149.531 157.244 149.531 157.292C149.531 157.676 149.633 158 149.837 158.264C150.053 158.528 150.365 158.726 150.773 158.858C151.181 158.99 151.655 159.056 152.195 159.056C152.543 159.056 152.849 159.038 153.113 159.002C153.389 158.954 153.629 158.894 153.833 158.822C154.049 158.738 154.223 158.642 154.355 158.534C154.499 158.426 154.601 158.3 154.661 158.156C154.733 158.012 154.769 157.85 154.769 157.67C154.769 157.346 154.661 157.082 154.445 156.878C154.241 156.674 153.953 156.5 153.581 156.356C153.221 156.212 152.813 156.08 152.357 155.96C151.901 155.84 151.433 155.72 150.953 155.6C150.473 155.468 150.005 155.312 149.549 155.132C149.093 154.94 148.685 154.712 148.325 154.448C147.965 154.184 147.677 153.848 147.461 153.44C147.245 153.032 147.137 152.54 147.137 151.964C147.137 151.352 147.263 150.824 147.515 150.38C147.779 149.936 148.145 149.57 148.613 149.282C149.081 148.994 149.621 148.784 150.233 148.652C150.845 148.508 151.511 148.436 152.231 148.436C152.903 148.436 153.539 148.508 154.139 148.652C154.739 148.784 155.267 149 155.723 149.3C156.179 149.6 156.533 149.978 156.785 150.434C157.049 150.89 157.181 151.43 157.181 152.054V152.27H154.571V152.126C154.571 151.802 154.475 151.526 154.283 151.298C154.091 151.07 153.821 150.89 153.473 150.758C153.125 150.626 152.717 150.56 152.249 150.56C151.745 150.56 151.313 150.608 150.953 150.704C150.605 150.8 150.335 150.944 150.143 151.136C149.963 151.316 149.873 151.532 149.873 151.784C149.873 152.072 149.975 152.312 150.179 152.504C150.395 152.684 150.683 152.846 151.043 152.99C151.415 153.122 151.829 153.242 152.285 153.35C152.741 153.458 153.209 153.578 153.689 153.71C154.169 153.842 154.637 153.998 155.093 154.178C155.549 154.358 155.957 154.586 156.317 154.862C156.677 155.126 156.965 155.456 157.181 155.852C157.397 156.248 157.505 156.722 157.505 157.274C157.505 158.222 157.277 158.984 156.821 159.56C156.365 160.136 155.741 160.556 154.949 160.82C154.157 161.084 153.251 161.216 152.231 161.216ZM164.268 161.216C163.224 161.216 162.348 161.042 161.64 160.694C160.932 160.334 160.398 159.788 160.038 159.056C159.678 158.324 159.498 157.394 159.498 156.266C159.498 155.126 159.678 154.196 160.038 153.476C160.398 152.744 160.926 152.204 161.622 151.856C162.33 151.496 163.194 151.316 164.214 151.316C165.174 151.316 165.984 151.49 166.644 151.838C167.304 152.174 167.802 152.702 168.138 153.422C168.474 154.13 168.642 155.048 168.642 156.176V156.824H162.036C162.06 157.376 162.144 157.844 162.288 158.228C162.444 158.612 162.678 158.9 162.99 159.092C163.314 159.272 163.74 159.362 164.268 159.362C164.556 159.362 164.814 159.326 165.042 159.254C165.282 159.182 165.486 159.074 165.654 158.93C165.822 158.786 165.954 158.606 166.05 158.39C166.146 158.174 166.194 157.928 166.194 157.652H168.642C168.642 158.252 168.534 158.774 168.318 159.218C168.102 159.662 167.802 160.034 167.418 160.334C167.034 160.622 166.572 160.844 166.032 161C165.504 161.144 164.916 161.216 164.268 161.216ZM162.072 155.24H166.068C166.068 154.88 166.02 154.568 165.924 154.304C165.84 154.04 165.72 153.824 165.564 153.656C165.408 153.488 165.216 153.368 164.988 153.296C164.772 153.212 164.526 153.17 164.25 153.17C163.794 153.17 163.41 153.248 163.098 153.404C162.798 153.548 162.564 153.776 162.396 154.088C162.24 154.388 162.132 154.772 162.072 155.24ZM171.018 161V151.532H173.088L173.286 153.008H173.412C173.532 152.696 173.688 152.414 173.88 152.162C174.072 151.898 174.312 151.688 174.6 151.532C174.888 151.376 175.224 151.298 175.608 151.298C175.812 151.298 175.998 151.322 176.166 151.37C176.334 151.406 176.46 151.442 176.544 151.478V153.746H175.77C175.398 153.746 175.068 153.8 174.78 153.908C174.504 154.004 174.27 154.16 174.078 154.376C173.886 154.592 173.742 154.856 173.646 155.168C173.562 155.48 173.52 155.846 173.52 156.266V161H171.018ZM180.844 161L177.316 151.532H179.962L181.348 155.528C181.42 155.732 181.504 156.002 181.6 156.338C181.708 156.674 181.816 157.028 181.924 157.4C182.032 157.772 182.122 158.108 182.194 158.408H182.284C182.368 158.132 182.458 157.814 182.554 157.454C182.65 157.082 182.746 156.728 182.842 156.392C182.95 156.044 183.04 155.756 183.112 155.528L184.498 151.532H187.018L183.472 161H180.844ZM193.081 161.216C192.037 161.216 191.161 161.042 190.453 160.694C189.745 160.334 189.211 159.788 188.851 159.056C188.491 158.324 188.311 157.394 188.311 156.266C188.311 155.126 188.491 154.196 188.851 153.476C189.211 152.744 189.739 152.204 190.435 151.856C191.143 151.496 192.007 151.316 193.027 151.316C193.987 151.316 194.797 151.49 195.457 151.838C196.117 152.174 196.615 152.702 196.951 153.422C197.287 154.13 197.455 155.048 197.455 156.176V156.824H190.849C190.873 157.376 190.957 157.844 191.101 158.228C191.257 158.612 191.491 158.9 191.803 159.092C192.127 159.272 192.553 159.362 193.081 159.362C193.369 159.362 193.627 159.326 193.855 159.254C194.095 159.182 194.299 159.074 194.467 158.93C194.635 158.786 194.767 158.606 194.863 158.39C194.959 158.174 195.007 157.928 195.007 157.652H197.455C197.455 158.252 197.347 158.774 197.131 159.218C196.915 159.662 196.615 160.034 196.231 160.334C195.847 160.622 195.385 160.844 194.845 161C194.317 161.144 193.729 161.216 193.081 161.216ZM190.885 155.24H194.881C194.881 154.88 194.833 154.568 194.737 154.304C194.653 154.04 194.533 153.824 194.377 153.656C194.221 153.488 194.029 153.368 193.801 153.296C193.585 153.212 193.339 153.17 193.063 153.17C192.607 153.17 192.223 153.248 191.911 153.404C191.611 153.548 191.377 153.776 191.209 154.088C191.053 154.388 190.945 154.772 190.885 155.24ZM199.831 161V151.532H201.901L202.099 153.008H202.225C202.345 152.696 202.501 152.414 202.693 152.162C202.885 151.898 203.125 151.688 203.413 151.532C203.701 151.376 204.037 151.298 204.421 151.298C204.625 151.298 204.811 151.322 204.979 151.37C205.147 151.406 205.273 151.442 205.357 151.478V153.746H204.583C204.211 153.746 203.881 153.8 203.593 153.908C203.317 154.004 203.083 154.16 202.891 154.376C202.699 154.592 202.555 154.856 202.459 155.168C202.375 155.48 202.333 155.846 202.333 156.266V161H199.831Z" fill="#202F38"/>
<path d="M154.5 70L145.84 85L163.16 85L154.5 70ZM154.5 120L163.16 105L145.84 105L154.5 120ZM153 83.5L153 106.5L156 106.5L156 83.5L153 83.5Z" fill="#415056"/>
<path d="M0 0H308V70H0V0Z" fill="#415056"/>
<path d="M139.496 41.216C138.368 41.216 137.396 41.036 136.58 40.676C135.776 40.316 135.158 39.776 134.726 39.056C134.294 38.324 134.078 37.418 134.078 36.338V28.652H136.778V36.266C136.778 37.154 137.012 37.838 137.48 38.318C137.948 38.786 138.62 39.02 139.496 39.02C140.372 39.02 141.044 38.786 141.512 38.318C141.992 37.838 142.232 37.154 142.232 36.266V28.652H144.932V36.338C144.932 37.418 144.716 38.324 144.284 39.056C143.852 39.776 143.228 40.316 142.412 40.676C141.608 41.036 140.636 41.216 139.496 41.216ZM151.773 41.216C151.113 41.216 150.519 41.144 149.991 41C149.463 40.856 149.013 40.658 148.641 40.406C148.269 40.142 147.981 39.83 147.777 39.47C147.585 39.11 147.489 38.702 147.489 38.246C147.489 38.198 147.489 38.15 147.489 38.102C147.489 38.054 147.495 38.018 147.507 37.994H149.919C149.919 38.018 149.919 38.042 149.919 38.066C149.919 38.09 149.919 38.114 149.919 38.138C149.931 38.438 150.027 38.684 150.207 38.876C150.387 39.056 150.621 39.188 150.909 39.272C151.209 39.356 151.521 39.398 151.845 39.398C152.133 39.398 152.409 39.374 152.673 39.326C152.949 39.266 153.177 39.164 153.357 39.02C153.549 38.876 153.645 38.69 153.645 38.462C153.645 38.174 153.525 37.952 153.285 37.796C153.057 37.64 152.751 37.514 152.367 37.418C151.995 37.322 151.587 37.214 151.143 37.094C150.735 36.998 150.327 36.89 149.919 36.77C149.511 36.638 149.139 36.47 148.803 36.266C148.479 36.062 148.215 35.798 148.011 35.474C147.807 35.138 147.705 34.718 147.705 34.214C147.705 33.722 147.813 33.296 148.029 32.936C148.245 32.564 148.539 32.258 148.911 32.018C149.295 31.778 149.739 31.604 150.243 31.496C150.759 31.376 151.311 31.316 151.899 31.316C152.451 31.316 152.967 31.376 153.447 31.496C153.927 31.604 154.347 31.772 154.707 32C155.067 32.216 155.349 32.492 155.553 32.828C155.757 33.152 155.859 33.518 155.859 33.926C155.859 34.01 155.859 34.088 155.859 34.16C155.859 34.232 155.853 34.28 155.841 34.304H153.447V34.16C153.447 33.944 153.381 33.764 153.249 33.62C153.117 33.464 152.925 33.344 152.673 33.26C152.433 33.176 152.139 33.134 151.791 33.134C151.551 33.134 151.329 33.152 151.125 33.188C150.933 33.224 150.765 33.278 150.621 33.35C150.477 33.422 150.363 33.512 150.279 33.62C150.207 33.716 150.171 33.836 150.171 33.98C150.171 34.184 150.255 34.352 150.423 34.484C150.603 34.604 150.837 34.706 151.125 34.79C151.413 34.874 151.731 34.964 152.079 35.06C152.511 35.18 152.961 35.3 153.429 35.42C153.909 35.528 154.353 35.678 154.761 35.87C155.169 36.062 155.499 36.338 155.751 36.698C156.003 37.046 156.129 37.52 156.129 38.12C156.129 38.696 156.015 39.182 155.787 39.578C155.571 39.974 155.265 40.292 154.869 40.532C154.473 40.772 154.011 40.946 153.483 41.054C152.955 41.162 152.385 41.216 151.773 41.216ZM162.783 41.216C161.739 41.216 160.863 41.042 160.155 40.694C159.447 40.334 158.913 39.788 158.553 39.056C158.193 38.324 158.013 37.394 158.013 36.266C158.013 35.126 158.193 34.196 158.553 33.476C158.913 32.744 159.441 32.204 160.137 31.856C160.845 31.496 161.709 31.316 162.729 31.316C163.689 31.316 164.499 31.49 165.159 31.838C165.819 32.174 166.317 32.702 166.653 33.422C166.989 34.13 167.157 35.048 167.157 36.176V36.824H160.551C160.575 37.376 160.659 37.844 160.803 38.228C160.959 38.612 161.193 38.9 161.505 39.092C161.829 39.272 162.255 39.362 162.783 39.362C163.071 39.362 163.329 39.326 163.557 39.254C163.797 39.182 164.001 39.074 164.169 38.93C164.337 38.786 164.469 38.606 164.565 38.39C164.661 38.174 164.709 37.928 164.709 37.652H167.157C167.157 38.252 167.049 38.774 166.833 39.218C166.617 39.662 166.317 40.034 165.933 40.334C165.549 40.622 165.087 40.844 164.547 41C164.019 41.144 163.431 41.216 162.783 41.216ZM160.587 35.24H164.583C164.583 34.88 164.535 34.568 164.439 34.304C164.355 34.04 164.235 33.824 164.079 33.656C163.923 33.488 163.731 33.368 163.503 33.296C163.287 33.212 163.041 33.17 162.765 33.17C162.309 33.17 161.925 33.248 161.613 33.404C161.313 33.548 161.079 33.776 160.911 34.088C160.755 34.388 160.647 34.772 160.587 35.24ZM169.532 41V31.532H171.602L171.8 33.008H171.926C172.046 32.696 172.202 32.414 172.394 32.162C172.586 31.898 172.826 31.688 173.114 31.532C173.402 31.376 173.738 31.298 174.122 31.298C174.326 31.298 174.512 31.322 174.68 31.37C174.848 31.406 174.974 31.442 175.058 31.478V33.746H174.284C173.912 33.746 173.582 33.8 173.294 33.908C173.018 34.004 172.784 34.16 172.592 34.376C172.4 34.592 172.256 34.856 172.16 35.168C172.076 35.48 172.034 35.846 172.034 36.266V41H169.532Z" fill="white"/>
</svg>
